<?xml version="1.0" encoding="UTF-8"?><svg id="Layer_2" xmlns="http://www.w3.org/2000/svg" xmlns:xlink="http://www.w3.org/1999/xlink" viewBox="0 0 550.36 893.22"><defs><clipPath id="clippath"><rect width="550.36" height="893.22" style="fill:none;"/></clipPath></defs><g id="Layer_1-2"><g id="Group_764"><g id="Group_763"><g style="clip-path:url(#clippath);"><g id="Group_762"><path id="Path_1190" d="m344.89,584.82c-1.2-1.58-3.08-2.48-5.06-2.44-1.01-.01-2.01.21-2.92.64-.86.42-1.61,1.03-2.2,1.78-.63.82-1.1,1.76-1.39,2.75-.33,1.15-.49,2.34-.48,3.54-.01,1.18.15,2.36.48,3.5.29,1,.76,1.93,1.39,2.75.59.75,1.33,1.36,2.19,1.79.89.44,1.88.66,2.87.64,1.01.01,2-.21,2.91-.64.86-.42,1.6-1.04,2.19-1.79.63-.82,1.09-1.76,1.37-2.75.33-1.14.48-2.31.47-3.5.01-1.19-.14-2.37-.46-3.51-.27-1-.73-1.93-1.35-2.75" style="fill:#fff;"/><path id="Path_1191" d="m306.94,425.93c.16.3.32.54.48.83.09-.35.17-.7.25-1.08-.24.09-.49.15-.73.24" style="fill:#fff;"/><path id="Path_1192" d="m365.93,548.47c-.69-.65-1.54-1.12-2.45-1.38-.91-.3-1.88-.37-2.83-.23-.89.15-1.74.5-2.48,1.02-.8.57-1.49,1.29-2.02,2.11-.61.95-1.08,1.99-1.39,3.08-.34,1.07-.52,2.18-.54,3.3-.01.98.16,1.95.51,2.87.33.84.83,1.6,1.49,2.22,2.12,1.99,5.35,2.22,7.72.54.79-.57,1.46-1.29,1.99-2.12.61-.94,1.07-1.97,1.39-3.04.34-1.07.52-2.19.54-3.31.02-.97-.14-1.94-.47-2.86-.32-.84-.82-1.6-1.47-2.21" style="fill:#fff;"/><path id="Path_1193" d="m321.25,538.59c-.2-.22-.44-.41-.71-.54-.52-.22-1.06-.38-1.62-.49-.69-.13-1.45-.26-2.29-.39l-2.96-.42-1.03,7.19,2.98.43c.31.05.6.08.87.12s.54.06.83.09c.65.09,1.3.09,1.95,0,.49-.08.96-.26,1.38-.54.37-.27.67-.62.87-1.03.23-.48.38-1,.44-1.53.05-.36.05-.72,0-1.08-.04-.34-.12-.68-.25-1-.12-.3-.29-.57-.5-.81" style="fill:#fff;"/><path id="Path_1194" d="m287.18,534.82l-3.59,9.74,6.57.24-2.98-9.99Z" style="fill:#fff;"/><path id="Path_1195" d="m270.13,586.08c.09-1.02-.31-2.02-1.08-2.7-.95-.65-2.09-.96-3.24-.87h-6.1v7.29h5.71c.73.01,1.45-.06,2.16-.22.53-.1,1.03-.32,1.46-.65.38-.3.67-.7.84-1.15.2-.55.29-1.12.28-1.71" style="fill:#fff;"/><path id="Path_1196" d="m210.8,558.58c.3-.93.42-1.91.35-2.88-.07-1.12-.31-2.22-.7-3.28-.36-1.06-.88-2.06-1.53-2.98-.56-.8-1.27-1.49-2.08-2.02-1.57-1.02-3.54-1.22-5.28-.54-.91.31-1.73.82-2.41,1.5-.63.65-1.11,1.44-1.39,2.3-.3.93-.42,1.91-.37,2.88.07,1.13.31,2.24.7,3.31.36,1.06.89,2.06,1.54,2.97.57.8,1.29,1.48,2.11,2.01,1.58,1.02,3.55,1.22,5.29.54.9-.31,1.72-.82,2.39-1.5.63-.65,1.1-1.44,1.38-2.3" style="fill:#fff;"/><path id="Path_1197" d="m343.32,546.99c.29-.46.49-.98.59-1.52.27-.92.1-1.92-.47-2.7-.75-.8-1.75-1.31-2.83-1.46l-5.65-1.2-1.44,6.75,5.28,1.13c.66.16,1.34.24,2.02.24.51,0,1.01-.1,1.48-.31.41-.21.76-.52,1.01-.91" style="fill:#fff;"/><path id="Path_1198" d="m276.14,648.91c92.35,0,167.26-76.95,167.92-172.13l.03-229.8c-20.94,0-74.15-48.58-74.15-70.78v-.97h-185.96c0,.32.03.64.03.97,0,20.73-56.55,70.78-74.79,70.78-.34,0-.69,0-1.03-.03l.03,226.49c.66,95.18,75.56,175.48,167.92,175.48m-76.58-83.37c-1.31-.7-2.46-1.66-3.39-2.83-1.03-1.29-1.84-2.75-2.39-4.32-.58-1.57-.89-3.23-.91-4.91-.02-1.48.27-2.95.85-4.32.57-1.33,1.42-2.51,2.5-3.48,1.17-1.05,2.55-1.86,4.04-2.36,1.46-.55,3.03-.8,4.59-.72,1.44.07,2.84.46,4.12,1.12,1.31.7,2.46,1.66,3.38,2.82,1.04,1.31,1.86,2.79,2.4,4.37.57,1.56.88,3.2.91,4.86.03,1.48-.24,2.95-.8,4.32-.56,1.33-1.4,2.52-2.47,3.49-1.18,1.05-2.56,1.86-4.05,2.37-1.48.55-3.05.79-4.63.72-1.45-.06-2.86-.44-4.15-1.11m12.25,29.25c.27.97.72,1.89,1.33,2.7.56.72,1.28,1.29,2.1,1.68.87.38,1.81.56,2.75.54,1.41.07,2.8-.36,3.92-1.21,1.04-.9,1.67-2.18,1.77-3.55h4.69c-.13,1.3-.47,2.56-1.03,3.74-.51,1.08-1.27,2.02-2.2,2.77-.94.77-2.02,1.34-3.18,1.71-1.28.37-2.61.56-3.94.54-1.62.02-3.23-.27-4.75-.85-1.41-.54-2.68-1.42-3.69-2.54-1.04-1.17-1.83-2.54-2.32-4.03-.53-1.7-.78-3.47-.76-5.25-.17-3.36.92-6.67,3.07-9.26,1.02-1.13,2.29-2.01,3.7-2.57,1.51-.58,3.11-.87,4.73-.85,1.27-.02,2.53.15,3.75.5,1.12.33,2.17.86,3.1,1.57,1.04.73,1.89,1.69,2.5,2.81.57,1.12.92,2.34,1.04,3.59h-4.73c-.08-.65-.28-1.28-.58-1.87-.29-.54-.69-1.03-1.17-1.41-.51-.4-1.09-.7-1.71-.89-.7-.21-1.43-.32-2.16-.31-.95-.01-1.89.18-2.75.57-.83.38-1.56.95-2.12,1.67-.62.82-1.08,1.74-1.35,2.73-.34,1.21-.5,2.47-.48,3.72-.02,1.25.14,2.5.47,3.71m9.08-52.82l2.06,8.91,2.02,9.39-4.09.89-4.92-22.71,6.28-1.35,9.18,16.53,1.57-18.82,6.29-1.35,4.92,22.7-4.06.89-2.02-9.39-1.84-8.95-1.72,19.52-3.96.86-9.72-17.1Zm30.32,61.36h-4.69v-10.85h-10.58v10.89h-4.69v-24.53h4.69v9.66h10.58v-9.66h4.69v24.48Zm-3.78-47.57l-2.16-23.13,4.47-.42,11.87,15.72-.89-8.24-.78-8.43,4.16-.39,2.16,23.13-4.46.42-11.87-15.72.87,8.21.78,8.44-4.16.39Zm-34.54-69.63c8.23-1.75,16.62-2.59,25.03-2.5h.19c.72-.11,5.47-.82,12.15-1.69,1.24-.16,2.37.7,2.53,1.94.01.1.02.2.02.29v1.92c0,.72-.51,1.34-1.21,1.48-16.92,3.17-37.24,9.06-57.57,9.06-7.23.17-14.45-.64-21.47-2.41-1.41-.38-3.03-4.65-3.98-7.49-.26-.79.18-1.65.97-1.9.25-.08.51-.1.77-.04,7.39,1.65,29.15,5.84,42.53,1.38m-36.59-8.89c9.55,1.55,19.24,2.1,28.91,1.62v4.75s-22.48,1.2-28.91-2.06c-6.43-3.26,0-4.32,0-4.32m32.38,4.47v-12.11c.04-1.1.8-2.03,1.86-2.31l40.4-8.41c.8-.21,1.61.27,1.82,1.07.04.14.05.29.05.44v13.67c-.02,1.07-.83,1.95-1.89,2.06,0,0-11.13.87-15.43,1.62-8.42,1.32-16.76,3.08-24.99,5.29-.67.28-1.44-.04-1.72-.71-.08-.2-.11-.41-.1-.62m62.35,121.63l-2.16-6.1c-.19-.51-.43-1.01-.72-1.47-.28-.43-.63-.81-1.03-1.14-.39-.31-.83-.55-1.3-.72-.5-.17-1.03-.26-1.55-.25h-4.57v9.72h-4.69v-24.54h10.88c.85,0,1.7.04,2.54.12.73.06,1.46.21,2.16.43.63.19,1.22.47,1.76.85.53.38.99.86,1.35,1.41.81,1.24,1.22,2.69,1.18,4.17.07,1.52-.42,3.02-1.38,4.2-1.03,1.12-2.39,1.88-3.88,2.16v.05c.92.3,1.74.86,2.35,1.62.71.91,1.26,1.93,1.66,3.02l2.43,6.48h-5.03Zm-1.45-72.49l4.45-.09.43,23.21-4.44.09-.44-23.21Zm6.13,22.93l9.23-22.9,4.86.19,7.82,23.54-4.66-.18-1.88-6.02-8.67-.33-2.25,5.86-4.45-.17Zm8.41-68.81v-5.2c.01-.69.55-1.26,1.24-1.32,4.73-.53,9.5-.62,14.24-.28,17.59,1.25,21.25-7.26,41.05-9.64,19.8-2.37,43.14,9.64,41.02,11.31s-12.57-3.35-25.97-3.35-23.04,6.28-39.79,8.79c-10.11,1.39-20.33,1.73-30.51,1-.72-.01-1.3-.59-1.31-1.31m-.82,118.36h-4.7v-24.53h4.69v24.53Zm22.6-3.97c-.5.94-1.2,1.75-2.06,2.37-.94.69-1.99,1.19-3.11,1.5-1.28.36-2.6.54-3.93.54-2.78.19-5.54-.57-7.83-2.16-1.87-1.57-2.95-3.88-2.95-6.32h4.51c.05.72.26,1.42.6,2.05.33.57.77,1.07,1.31,1.45.58.4,1.22.7,1.91.87.76.2,1.53.3,2.32.29.74,0,1.48-.07,2.2-.24.59-.13,1.16-.36,1.68-.68.44-.27.81-.64,1.08-1.08.26-.44.39-.95.38-1.46.01-.44-.11-.87-.34-1.24-.27-.38-.62-.7-1.03-.93-.54-.31-1.12-.55-1.72-.72-.69-.22-1.49-.43-2.41-.66-1.34-.32-2.56-.64-3.66-.95-1.01-.28-1.98-.67-2.89-1.18-.77-.42-1.44-1-1.98-1.69-.52-.76-.85-1.63-.94-2.54-.04-.26-.05-.54-.08-.8-.02-.28-.02-.57,0-.85.06-.92.33-1.82.8-2.61.48-.81,1.13-1.51,1.91-2.05.88-.6,1.84-1.05,2.87-1.33,1.2-.33,2.43-.49,3.68-.48,1.34-.02,2.69.16,3.98.51,1.11.3,2.15.8,3.07,1.48.83.64,1.51,1.45,2,2.39.5,1,.78,2.09.82,3.21h-4.57c-.24-2.5-1.96-3.75-5.17-3.75-.68,0-1.36.07-2.02.23-.53.12-1.04.34-1.51.63-.39.24-.71.58-.94.97-.22.39-.33.83-.33,1.27-.01.4.08.79.28,1.14.23.35.54.63.91.82.52.27,1.06.49,1.62.66.66.21,1.45.42,2.39.62s1.72.39,2.54.57c.8.19,1.58.42,2.35.69.7.25,1.38.56,2.03.92.61.33,1.16.76,1.62,1.28.46.52.81,1.13,1.04,1.78.26.77.38,1.58.37,2.39.02,1.1-.24,2.18-.74,3.16m38.18-46.37c.47.99.79,2.04.93,3.13l.96,6.48-4.66-1-.78-6.09c-.07-.51-.2-1.02-.38-1.51-.17-.46-.42-.88-.72-1.26-.3-.37-.67-.68-1.08-.92-.43-.26-.9-.44-1.39-.54l-4.23-.91-1.92,8.99-4.36-.93,4.86-22.72,10.09,2.16c.79.16,1.57.37,2.34.61.66.21,1.3.48,1.91.82.54.3,1.04.69,1.46,1.14.42.46.76,1,.98,1.58.5,1.31.59,2.73.25,4.09-.24,1.42-.98,2.71-2.1,3.62-1.17.84-2.59,1.28-4.03,1.25v.05c.8.46,1.44,1.15,1.86,1.97m-17.58-11.06c-.13,1.11-.48,2.18-1.04,3.15-.51.85-1.21,1.57-2.06,2.08-.93.54-1.96.89-3.03,1.03-1.32.15-2.65.13-3.96-.08l-4.28-.6-1.21,8.64-4.4-.62,3.24-23,8.81,1.23c.93.13,1.79.3,2.56.48.72.17,1.42.42,2.08.76.6.29,1.14.67,1.62,1.14.47.47.86,1.03,1.13,1.65.32.63.52,1.31.6,2.01.08.72.06,1.44-.04,2.16m.54,40.91h-7.47v20.46h-4.69v-20.46h-7.39v-4.06h19.56v4.06Zm23.61,13.32c-.5,1.48-1.3,2.84-2.34,4-1.03,1.12-2.28,2-3.69,2.59-3.12,1.21-6.59,1.21-9.72,0-1.42-.58-2.69-1.47-3.72-2.59-1.06-1.16-1.86-2.52-2.36-4-.57-1.66-.85-3.41-.83-5.17-.02-1.77.26-3.53.84-5.2.5-1.48,1.31-2.84,2.37-3.99,1.03-1.12,2.3-2,3.71-2.57,1.54-.63,3.19-.94,4.86-.91,1.65-.03,3.3.28,4.83.91,1.4.58,2.66,1.46,3.69,2.57,1.06,1.15,1.86,2.51,2.37,3.99,1.1,3.37,1.1,7,0,10.36m20.98-38.06c-.46,1.6-1.19,3.11-2.16,4.46-.86,1.21-1.97,2.23-3.24,3-1.24.75-2.62,1.21-4.06,1.35-3.17.25-6.32-.7-8.82-2.66-1.14-.91-2.06-2.06-2.7-3.36-.65-1.34-1.02-2.79-1.08-4.28-.06-1.67.17-3.33.67-4.92.46-1.61,1.19-3.13,2.16-4.49.87-1.2,1.97-2.22,3.24-2.98,1.25-.72,2.64-1.17,4.08-1.32,1.57-.15,3.15.02,4.65.5,1.51.43,2.91,1.16,4.13,2.16,1.11.91,2.01,2.05,2.64,3.34.64,1.34.99,2.8,1.05,4.28.07,1.67-.15,3.34-.66,4.94m21.73-42.53c.01,1.13-.9,2.06-2.03,2.07-.28,0-.56-.05-.82-.16-10.53-4.79-21.7-8.04-33.17-9.63-14.24-.84-23.04,3.78-36.02,5.13-10.09,1.08-20.18,1.42-34.28,1.92-1.15.04-2.11-.85-2.16-2,0-.02,0-.04,0-.06v-19.27c0-1.86,1.52-3.36,3.38-3.35.01,0,.02,0,.03,0,8.99.16,13.22.85,22.13.85,13.82,0,22.2-7.56,46.49-7.56,12.52-.5,24.91,2.77,35.55,9.39.56.39.9,1.02.9,1.71v20.97Zm5.86-40.91c3.14,2.84.63,13.08-2.7,8.89-4.93-4.97-10.79-8.92-17.24-11.64-.95-.38-1.62-1.24-1.75-2.25,0-.84.84-1.35,1.87-1.15,0,0,16.78,3.29,19.92,6.13m-233.04-180.14h0c-.05-.98.34-1.93,1.08-2.57.75-.62,1.74-.88,2.7-.71l11.33,2.06v-16.73c.05-2.53,1.62-4.78,3.98-5.7,11.07-3.55,22.64-5.3,34.27-5.17,1.03,0,2.06,0,3.12.04,13.28.71,26.01,5.57,36.39,13.89,1.33-32.34,2.5-57,3-67.15.12-2.26,2.05-3.99,4.3-3.87.83.04,1.63.34,2.28.85l8.43,6.51c.99.76,1.57,1.93,1.58,3.17l1.08,68.5c3.69-1.97,10.9-5.73,19.37-9.72-4.23-5.53-8.89-10.73-13.94-15.53-1.18-1.18-1.88-2.75-1.95-4.42v-29.45l2.62-.93.94,1.2c7.36,11.22,15.86,21.65,25.35,31.13,2.76,2.96,5.54,5.94,8.27,8.99,3.15-1.15,6.22-2.16,9.11-2.98,6.92-1.86,14.07-2.76,21.24-2.7,7.61.01,15.19.84,22.62,2.46,2,.45,3.41,2.24,3.39,4.29v3.78c3.44-1.09,7.1-1.32,10.65-.67l1.08.42-1.39,157.86c.18,1.25-.68,2.41-1.93,2.59-.9.13-1.79-.28-2.27-1.05l-4.26-4.91c.85,1.5,1.33,3.18,1.38,4.9l-.09,1.86-1.84-.28c-11.56-1.74-23.24-2.47-34.92-2.2-6.98.68-13.88,2.07-20.58,4.15-3.75,1.24-7.63,2.04-11.56,2.4-1.33.1-2.64-.31-3.68-1.15-.39-.42-.66-.94-.77-1.51l-14.37,9.34-.96-.96c-2.54-3.09-4.28-6.76-5.08-10.68-1.82-.48-3.12-2.07-3.24-3.95l-1.37-26.43.78,49.22,58.46-9.11c1.04-.14,1.49.5,1,1.43,0,0-12.52,23.87-23.4,26.8-4.77,1.28-29.02,2.39-35.72,2.67l.54,35.38c.02,1.36-.64,2.65-1.76,3.42-.68.48-1.5.74-2.34.73-.51,0-1.01-.1-1.49-.28l-21.71-8.5c-1.56-.6-2.6-2.1-2.6-3.78,0-21.08.31-43.98.78-67.37-.66.45-1.43.69-2.22.71-.21-.02-.41-.06-.62-.11.97,3.13,1,6.48.09,9.63-.74,1.04-1.96,1.63-3.24,1.55-3.29-.47-6.46-1.55-9.35-3.18-5.28-2.76-10.98-4.61-16.87-5.49-10.83-.25-21.66.67-32.3,2.76l-1.77.35-.22-1.79c-.16-1.46-.25-2.93-.25-4.4-.62.34-1.3.53-2.01.54-1.43-.01-2.74-.78-3.45-2.02l-6.06,2.98c-.45.22-.93.34-1.43.34-.49,0-.97-.13-1.39-.38-.85-.53-1.37-1.46-1.38-2.47l-5.48-138.58Zm-8.64,204.33c-.07-.71.45-1.35,1.16-1.41.22-.02.44.01.64.1,0,0,23.75,7.78,37.14,6.95,10.79-.67,54.42-11.6,54.42-11.6.75-.24,1.55.18,1.78.92.05.17.07.34.06.52v21.42c-.05,1.1-.79,2.04-1.85,2.35,0,0-33.58,8.15-51.91,10.29-13.43,2.14-27.18.56-39.77-4.58-1-.58-1.63-1.62-1.69-2.77v-22.18Z" style="fill:#fff;"/><path id="Path_1199" d="m39.22,230.6c.45.94.93.86,1.05-.18,0,0,3.14-27.15,19.89-37.21,16.75-10.06,52.49-22.33,64.77-32.38,12.28-10.06,10.06-30.16,13.41-32.38,3.35-2.22,24.57-18.43,134.74-18.43s145.31,21.83,145.31,21.83c.98.69,1.67,1.7,1.95,2.87,2.55,10.52,8.65,19.84,17.27,26.4,14.52,11.17,37.3,17.92,52.69,29.74,19.35,14.87,24.83,27.43,24.83,27.43.42.96,1.11.97,1.54,0l33.04-72.49c.43-1.11.44-2.35.03-3.47-4.15-9.28-10.39-17.48-18.23-23.95-11.17-7.81-30.15-15.65-39.08-22.34-6.46-5.19-12.34-11.06-17.53-17.51-.68-.95-.88-2.16-.54-3.28l11.79-32.15c.35-1.02-.09-2.14-1.04-2.65C485.1,40.45,406.39,0,277.02,0S67.44,40.47,67.44,40.47c-.95.52-1.42,1.63-1.11,2.67l9.99,30.45c.36,1.2.56,2.45.59,3.7-2.17,5.1-4.99,9.9-8.38,14.29-8.38,12.84-30.29,20.11-43.72,26.8-13.43,6.7-24.13,29.55-24.13,29.55-.45,1.1-.45,2.33,0,3.43l38.54,79.23Zm456.73-123.36c.09.04,8.43,3.78,19.16,7.86,10.02,3.83,27.06,15.74,30.1,31.41l.1.54-27.02,59.88c-.36.97-1.25,1.64-2.29,1.72h-.09c-1-.03-1.9-.63-2.31-1.54-4.88-8.06-11.26-15.12-18.79-20.79-7.34-5.35-15.26-9.85-23.6-13.43-2.48-1.04-4.87-2.27-7.17-3.66l-1.16-.81,28.33-59.4c.85-1.77,2.94-2.54,4.74-1.75m-11.67-5.29c.93-.26,1.92-.11,2.73.42l2.54,1.62c1.6,1.05,2.2,3.11,1.4,4.86l-26.51,55.81c-.41.88-1.19,1.54-2.13,1.78-.24.06-.49.09-.73.09-.72,0-1.41-.25-1.99-.68l-2.53-1.92c-1.48-1.17-1.97-3.2-1.2-4.92l26.31-55.26c.41-.88,1.17-1.53,2.1-1.8m-7.96-6.91c.98-.17,1.98.14,2.7.84l2.09,1.96c1.31,1.29,1.69,3.27.94,4.95l-26.52,55.82c-.41.88-1.19,1.53-2.13,1.77-.24.06-.48.09-.72.09-.72,0-1.42-.25-2-.69l-2.53-1.92c-1.48-1.17-1.97-3.2-1.19-4.92l27.18-56.16c.41-.9,1.23-1.55,2.2-1.74M75.74,49.73c-.43-.96-.03-2.09.91-2.57,0,0,72.58-35.98,188.45-37.13,141.29-1.39,212.22,38.44,212.22,38.44.92.53,1.28,1.67.82,2.63l-37.96,76.77c-.49.95-1.61,1.38-2.61,1.01-55.64-19.92-114.21-30.44-173.31-31.14-93.54,0-150.25,32.35-150.25,32.35-.81.48-1.85.22-2.33-.59-.04-.06-.07-.13-.1-.19l-35.85-79.56Zm-3.73,51.44l2.1-1.97c1.16-1.17,3.06-1.18,4.23-.02.26.26.48.57.63.91l27.29,56.13c.79,1.72.31,3.75-1.17,4.93l-2.53,1.91c-.57.45-1.27.69-2,.7-.24,0-.49-.03-.72-.09-.95-.24-1.75-.89-2.16-1.78l-26.6-55.74c-.75-1.68-.39-3.66.92-4.95m-8.45,6.16l2.54-1.62c.81-.53,1.8-.68,2.73-.42.92.27,1.69.92,2.1,1.79l26.42,55.21c.78,1.72.29,3.74-1.19,4.92l-2.53,1.92c-.57.45-1.27.69-2,.7-.24,0-.48-.03-.72-.09-.96-.23-1.75-.89-2.16-1.78l-26.6-55.76c-.8-1.74-.21-3.8,1.39-4.86M7.67,153.04c1.41-21.17,21.73-31.21,30.39-34.54,10.72-4.13,19.05-7.86,19.14-7.9,1.79-.8,3.9-.03,4.75,1.74l28.47,59.37-1.16.81c-2.29,1.4-4.69,2.63-7.16,3.68-8.34,3.6-16.25,8.12-23.58,13.49-7.53,5.66-13.89,12.73-18.74,20.8-.43.91-1.33,1.51-2.34,1.55h-.06c-1.03-.07-1.92-.72-2.32-1.67l-27.43-56.9.03-.44Z" style="fill:#fff;"/><path id="Path_1200" d="m73.43,208.08c-.42,0-.84,0-1.25-.03v280.23l.04,3.35c.8,111.96,91.75,199.13,203.93,199.13,112.06,0,203.12-90.42,203.93-202.48h.03V208.08c-44.17,0-79.99-32.52-79.99-72.64l.05-1.14h-246.78c0,.39.05.76.05,1.14,0,40.12-35.82,72.64-80,72.64m103.2-42.58h200.28c10.99,35.51,40.13,62.44,76.39,70.61v242.43l-.04,5.15c-.54,97.82-80.28,176.69-178.1,176.15-97.06-.54-175.62-79.09-176.15-176.15l-.04-4.32v-242.97c36.81-7.84,66.51-34.96,77.65-70.91" style="fill:#fff;"/><path id="Path_1201" d="m374.17,424.29c2.31,2.34,3.79,5.37,4.22,8.64-11.67-1.76-23.47-2.5-35.27-2.2-15.4.89-31.25,8.87-34.6,5.79-.31-.38-.5-.84-.54-1.33-.13.14-.26.27-.4.39l-.99.65c.11.57.39,1.09.78,1.51,1.03.84,2.34,1.25,3.66,1.15,3.93-.36,7.81-1.16,11.56-2.4,6.71-2.06,13.61-3.43,20.6-4.09,11.68-.28,23.36.46,34.91,2.2l1.85.28.09-1.86c-.04-1.72-.51-3.41-1.38-4.9l-3.75-4.32c-.24.2-.49.39-.76.54" style="fill:#fff;"/><path id="Path_1202" d="m307.67,425.68c-.09.36-.18.72-.25,1.08.44.78.87,1.48,1.24,2.06.25-1.17.54-2.4.91-3.69-.65.19-1.28.39-1.91.57" style="fill:#fff;"/><path id="Path_1203" d="m372.29,424.66c1.69,1.85,3.06,3.97,4.05,6.27-11.03-1.59-22.19-2.22-33.33-1.89-7.22.66-14.36,2.07-21.29,4.2-4.91,1.34-10.99,3.02-12.01,2.1-.22-3.68.38-7.37,1.75-10.79-.65.19-1.28.37-1.91.54-.36,1.29-.66,2.53-.91,3.7l.26.43c.68,1,.92,2.24.67,3.42-.23,1-.81,1.88-1.62,2.5.04.49.23.95.54,1.33,3.35,3.08,19.19-4.91,34.59-5.79,11.8-.3,23.6.44,35.27,2.2-.42-3.26-1.91-6.3-4.22-8.64-.56.26-1.16.39-1.77.39h-.09" style="fill:#fff;"/><path id="Path_1204" d="m173.09,435.66c.42.25.9.38,1.39.38.5,0,.98-.12,1.43-.34l6.06-2.98c-.28-.5-.46-1.05-.54-1.62l-6.24,3.06c-.53.35-1.24.21-1.59-.32-.15-.22-.21-.49-.18-.76l-5.52-138.56c-.07-.8.52-1.52,1.32-1.59.16-.01.32,0,.47.03l11.65,2.11v-1.73l-11.33-2.06c-.96-.18-1.95.07-2.7.7-.73.65-1.13,1.6-1.08,2.57l5.48,138.63c0,1.01.53,1.94,1.39,2.47" style="fill:#fff;"/><path id="Path_1205" d="m386.85,274.75l-1.37,156.7c0,1.05-.57,1.25-1.25.46l-8.15-9.37c-.15.29-.33.57-.54.82,1.21,1.47,2.27,3.05,3.15,4.74l4.26,4.91c.66,1.08,2.06,1.42,3.14.76.79-.48,1.21-1.39,1.07-2.3l1.39-157.9-1.08-.42c-3.55-.65-7.21-.41-10.65.68v1.62c3.24-1.06,6.69-1.32,10.06-.74" style="fill:#fff;"/><path id="Path_1206" d="m374.94,423.78l3.75,4.32c-.89-1.68-1.95-3.27-3.16-4.74-.18.16-.38.3-.59.43" style="fill:#fff;"/><path id="Path_1207" d="m181.34,429.3l-6.31,3.09-5.45-137.74,11.76,2.13v-1.69l-11.65-2.1c-.78-.19-1.57.29-1.76,1.08-.04.16-.05.32-.03.48l5.49,138.61c-.07.63.37,1.2,1,1.27.27.03.55-.04.78-.19l6.24-3.06c-.05-.26-.07-.53-.08-.79v-1.07Z" style="fill:#fff;"/><path id="Path_1208" d="m385.18,276.07l-1.35,152.81-7.11-8.19c-.07.65-.28,1.28-.63,1.84l8.13,9.38c.69.79,1.25.57,1.26-.46l1.38-156.7c-3.36-.58-6.81-.32-10.06.74v1.68c2.72-.79,5.54-1.17,8.37-1.11" style="fill:#fff;"/><path id="Path_1209" d="m306.2,424.39c.25.54.51,1.08.76,1.54.24-.09.49-.16.73-.24.16-.63.33-1.27.51-1.92-.69.21-1.35.42-2.01.62" style="fill:#fff;"/><path id="Path_1210" d="m300.19,279.35l-1.04-1.35c-8.48,3.98-15.7,7.75-19.37,9.72l.03,1.88c3.39-1.82,11.17-5.94,20.38-10.25" style="fill:#fff;"/><path id="Path_1211" d="m329.99,267.62c6.78-1.81,13.77-2.7,20.79-2.63,7.48.01,14.94.83,22.25,2.42,1.24.28,2.11,1.39,2.1,2.66v4.18c.57-.14,1.12-.26,1.68-.39v-3.78c.02-2.06-1.39-3.86-3.4-4.32-7.43-1.62-15.01-2.45-22.62-2.46-7.17-.06-14.31.85-21.24,2.7-2.88.81-5.96,1.85-9.11,3,.39.44.8.89,1.2,1.34,2.89-1.05,5.71-1.97,8.37-2.7" style="fill:#fff;"/><path id="Path_1212" d="m284.67,429.88l-2.42-45.95-.95.18.31,19.43,1.39,26.42c.11,1.88,1.42,3.47,3.24,3.94-.18-.67-.36-1.35-.54-2.07-.6-.48-.98-1.19-1.03-1.96" style="fill:#fff;"/><path id="Path_1213" d="m333.02,417.69c-7.64,1.53-14.75,3.24-20.97,4.97-.2.65-.38,1.29-.54,1.91,6.48-1.84,13.9-3.64,21.86-5.23,3.23-.63,6.51-.95,9.8-.93,9.48.16,18.83,2.18,27.53,5.94.52.23,1.09.35,1.66.35-.67-.77-1.42-1.58-2.24-2.39-8.54-3.53-17.67-5.41-26.92-5.55-3.4,0-6.79.32-10.13.97" style="fill:#fff;"/><path id="Path_1214" d="m372.97,422.89c.43.48.82.94,1.2,1.4.27-.15.53-.34.77-.54l-1.08-1.25c-.27.18-.57.3-.89.37" style="fill:#fff;"/><path id="Path_1215" d="m308.18,423.77c-.18.65-.34,1.29-.5,1.92.62-.19,1.25-.39,1.91-.57.17-.63.36-1.28.54-1.92l-1.95.57" style="fill:#fff;"/><path id="Path_1216" d="m372.4,423.01c-.37,0-.74-.08-1.08-.23-.35-.15-.81-.34-1.25-.54.82.81,1.58,1.62,2.25,2.4h.09c.61,0,1.21-.14,1.77-.39-.38-.47-.77-.93-1.2-1.4-.19.06-.38.09-.57.11" style="fill:#fff;"/><path id="Path_1217" d="m310.13,423.2c-.19.64-.38,1.29-.54,1.91l1.91-.54c.18-.61.36-1.25.54-1.91-.65.19-1.28.36-1.91.54" style="fill:#fff;"/><path id="Path_1218" d="m376.71,420.7c.04-.14.07-.29.09-.43v-143.08c-.54.13-1.08.28-1.68.43v141.26l1.59,1.82Z" style="fill:#fff;"/><path id="Path_1219" d="m281.24,380.7l.83-.16-1.19-22.42.36,22.58Z" style="fill:#fff;"/><path id="Path_1220" d="m374.45,422.03c.39.45.73.89,1.08,1.33.21-.25.39-.53.54-.82l-1.14-1.32c-.12.3-.29.57-.5.81" style="fill:#fff;"/><path id="Path_1221" d="m375.12,275.92c.54-.14,1.14-.29,1.68-.42v-1.62c-.54.12-1.08.24-1.68.39v1.65Z" style="fill:#fff;"/><path id="Path_1222" d="m281.28,382.41l.03,1.69.94-.18-.09-1.68-.89.17Z" style="fill:#fff;"/><path id="Path_1223" d="m373.86,422.52l1.08,1.25c.21-.12.41-.27.59-.43-.36-.44-.7-.87-1.08-1.33-.17.2-.36.37-.58.5" style="fill:#fff;"/><path id="Path_1224" d="m281.25,380.7l.03,1.71.89-.17-.1-1.69-.81.16Z" style="fill:#fff;"/><path id="Path_1225" d="m375.12,418.88v1.39c0,.32-.07.64-.19.94l1.15,1.33c.34-.56.56-1.18.63-1.84l-1.59-1.83Z" style="fill:#fff;"/><path id="Path_1226" d="m376.8,277.18v-1.68c-.54.12-1.11.28-1.68.42v1.68c.58-.15,1.13-.28,1.68-.42" style="fill:#fff;"/><path id="Path_1227" d="m305.48,422.86c.23.54.45,1.04.69,1.54.66-.21,1.32-.43,2.01-.62.17-.63.35-1.26.54-1.91-1.08.33-2.16.66-3.24.99" style="fill:#fff;"/><path id="Path_1228" d="m330.44,269.24c6.63-1.77,13.47-2.63,20.33-2.56,7.36,0,14.69.81,21.88,2.37.48.11.81.54.79,1.03v4.61c.54-.15,1.14-.3,1.68-.43v-4.18c.01-1.27-.86-2.37-2.1-2.66-7.31-1.6-14.77-2.42-22.25-2.42-7.02-.07-14.01.82-20.79,2.63-2.66.74-5.47,1.67-8.37,2.7.39.44.79.9,1.19,1.35,2.64-.94,5.2-1.77,7.63-2.45" style="fill:#fff;"/><path id="Path_1229" d="m301.21,280.74c-.34-.47-.68-.93-1.02-1.39-9.21,4.32-16.99,8.43-20.39,10.25l.04,1.89c2.48-1.35,11.05-5.94,21.37-10.75" style="fill:#fff;"/><path id="Path_1230" d="m285.28,409.67l-1.38-26.07-1.66.32,2.42,45.95c.05.77.42,1.48,1.03,1.96-1.47-7.3-1.61-14.81-.42-22.16" style="fill:#fff;"/><path id="Path_1231" d="m343.15,415.04c-3.51-.01-7.01.32-10.46,1-6.77,1.35-13.69,2.98-20.06,4.73-.21.64-.39,1.27-.58,1.88,6.23-1.74,13.32-3.44,20.97-4.97,3.34-.66,6.73-.98,10.13-.97,9.24.13,18.37,2.02,26.92,5.55-.99-.99-2.06-2-3.24-3.02-7.6-2.68-15.59-4.1-23.66-4.21" style="fill:#fff;"/><path id="Path_1232" d="m308.71,421.87c-.19.64-.37,1.27-.54,1.89l1.96-.57c.18-.62.38-1.25.54-1.88-.66.18-1.33.38-1.98.54" style="fill:#fff;"/><path id="Path_1233" d="m372.4,421.33c-.15,0-.29-.03-.43-.09-.25-.11-.63-.28-.96-.4.7.69,1.35,1.38,1.96,2.05.31-.06.61-.18.87-.36l-1.14-1.32c-.11.03-.2.12-.31.12" style="fill:#fff;"/><path id="Path_1234" d="m310.13,423.19c.63-.19,1.26-.36,1.91-.54.19-.61.38-1.24.58-1.88l-1.92.54c-.2.64-.39,1.27-.57,1.89" style="fill:#fff;"/><path id="Path_1235" d="m366.8,419.26c1.2,1.02,2.27,2.02,3.24,3.02.44.18.91.37,1.25.54.34.15.71.23,1.08.23.18-.02.37-.06.54-.12-.6-.67-1.25-1.35-1.95-2.05-1.08-.45-2.5-1-4.22-1.62" style="fill:#fff;"/><path id="Path_1236" d="m375.13,418.87v-141.26c-.54.14-1.08.29-1.68.45v138.88l1.68,1.93Z" style="fill:#fff;"/><path id="Path_1237" d="m280.89,358.13l1.19,22.42,1.66-.32-3.56-67.47.72,45.37Z" style="fill:#fff;"/><path id="Path_1238" d="m373.45,276.36c.58-.16,1.12-.29,1.68-.43v-1.67l-1.68.44v1.66Z" style="fill:#fff;"/><path id="Path_1239" d="m373.46,420.27c-.02.18-.09.35-.2.49.4.42.82.85,1.19,1.26.22-.23.39-.51.5-.81l-1.49-1.71v.76Z" style="fill:#fff;"/><path id="Path_1240" d="m283.82,381.92l-1.66.32.09,1.68,1.66-.32-.09-1.68Z" style="fill:#fff;"/><path id="Path_1241" d="m372.71,421.2l1.14,1.32c.22-.14.42-.3.59-.5-.38-.42-.79-.85-1.2-1.26-.12.21-.31.37-.54.44" style="fill:#fff;"/><path id="Path_1242" d="m373.45,278.06l1.68-.46v-1.68c-.54.14-1.08.28-1.68.43v1.72Z" style="fill:#fff;"/><path id="Path_1243" d="m282.08,380.54l.09,1.68,1.66-.32-.09-1.68-1.66.32Z" style="fill:#fff;"/><path id="Path_1244" d="m373.45,419.51l1.49,1.71c.12-.3.18-.62.19-.94v-1.39l-1.68-1.93v2.56Z" style="fill:#fff;"/><path id="Path_1245" d="m305.29,426.43c.54,1.03,1.08,1.92,1.62,2.7.15-.77.32-1.58.54-2.4-.17-.28-.32-.54-.48-.83-.54.16-1.08.34-1.62.51" style="fill:#fff;"/><path id="Path_1246" d="m286.35,261.24c-.84-.85-1.34-1.98-1.4-3.17v-28.21c0-.13.11-.24.24-.25.09,0,.17.05.21.12,9.11,15,21.83,27.13,33.36,39.89.54-.22,1.12-.42,1.68-.62-2.73-3.03-5.5-6.02-8.27-8.99-9.49-9.49-17.98-19.93-25.34-31.15l-.94-1.2-2.62.92v29.5c.07,1.67.77,3.25,1.96,4.42,5.04,4.8,9.7,9.99,13.94,15.52l1.58-.73c-4.36-5.72-9.17-11.08-14.39-16.02" style="fill:#fff;"/><path id="Path_1247" d="m292.48,443.4c-2.22-2.72-3.76-5.93-4.51-9.35-.58.18-1.21.13-1.75-.13.8,3.92,2.54,7.58,5.07,10.68l.96.96,14.37-9.35c-.16-.59-.25-1.2-.26-1.82l-13.87,9.01Z" style="fill:#fff;"/><path id="Path_1248" d="m308,435.17c-.13-2.14.08-4.29.65-6.36-.38-.57-.79-1.27-1.24-2.06-.2.83-.37,1.62-.54,2.4.22.35.44.71.64,1.01.87,1.32.51,3.1-.81,3.97-.01,0-.02.02-.04.02l-.34.22c.01.62.1,1.23.26,1.83l.99-.64c.14-.12.28-.25.4-.39" style="fill:#fff;"/><path id="Path_1249" d="m309.6,432.66c.25-1.18,0-2.41-.66-3.42-.09-.12-.19-.29-.28-.43-.56,2.07-.78,4.22-.65,6.36.8-.63,1.36-1.52,1.58-2.52" style="fill:#fff;"/><path id="Path_1250" d="m313.4,297.6c-2.98-6.18-6.54-12.08-10.61-17.6l-1.58.73c4.08,5.5,7.64,11.38,10.63,17.55l1.57-.69" style="fill:#fff;"/><path id="Path_1251" d="m335.5,288.22c-3.82-5.81-8.06-11.34-12.68-16.54-.54.2-1.12.42-1.68.62,4.67,5.2,8.95,10.73,12.82,16.54l1.54-.62" style="fill:#fff;"/><path id="Path_1252" d="m302.53,410.39c-1.14,4.35-.67,8.97,1.34,12.99.54-.17,1.08-.35,1.62-.54-1.88-3.68-2.37-7.92-1.38-11.93,2.42-3.82,5.44-7.23,8.95-10.08,7.91-7.21,15.03-15.25,21.21-23.99l-1.13-1.3c-12.26,18.32-28.56,28.86-30.61,34.82" style="fill:#fff;"/><path id="Path_1253" d="m291.64,393.98c2.08-4.56,4.46-8.99,7.11-13.24l-2.2.43c-2.39,3.91-4.54,7.96-6.44,12.13-2.32,5.22-3.93,10.73-4.81,16.38l1.08,20.12c.04.47.39.86.86.93-2.29-12.41-.74-25.23,4.44-36.75" style="fill:#fff;"/><path id="Path_1254" d="m320.12,324.46c-.16-8.21-1.98-16.31-5.33-23.8-.54.24-1.05.45-1.57.69,3.28,7.27,5.05,15.13,5.22,23.11,0,21.97-8.33,35.14-17.16,49.06-.79,1.25-1.58,2.51-2.37,3.78l2.24-.43c9.18-14.57,18.97-28.61,18.97-52.41" style="fill:#fff;"/><path id="Path_1255" d="m346.92,331.15c.04,14.68-4.09,29.08-11.92,41.51.05.05.14.09.19.16l.99,1.14c8.15-12.79,12.46-27.64,12.41-42.81.05-14.13-3.86-28-11.28-40.03l-1.54.62c7.34,11.83,11.2,25.48,11.13,39.4" style="fill:#fff;"/><path id="Path_1256" d="m336.42,289.69c-.31-.49-.62-.98-.94-1.47-.51.22-1.03.42-1.53.63.31.48.63.97.94,1.46l1.53-.62" style="fill:#fff;"/><path id="Path_1257" d="m334.26,376.87c.32-.48.65-.95.97-1.44l-1.14-1.31c-.32.49-.64.97-.96,1.45l1.13,1.3Z" style="fill:#fff;"/><path id="Path_1258" d="m297.71,379.23l-1.16,1.93,2.2-.43c.39-.65.79-1.3,1.19-1.94l-2.22.44Z" style="fill:#fff;"/><path id="Path_1259" d="m314.11,299.16c-.24-.54-.47-1.04-.72-1.55l-1.55.69c.24.51.48,1.04.72,1.55l1.55-.69" style="fill:#fff;"/><path id="Path_1260" d="m314.11,299.16l-1.55.69c.22.5.45.99.67,1.5.51-.24,1.04-.46,1.55-.69-.22-.5-.44-1-.67-1.5" style="fill:#fff;"/><path id="Path_1261" d="m335.01,372.66c-.31.49-.61.97-.92,1.45l1.15,1.32c.31-.49.63-.97.95-1.47l-1-1.14c-.05-.06-.13-.1-.18-.16" style="fill:#fff;"/><path id="Path_1262" d="m335.78,291.74l1.54-.63c-.29-.48-.59-.95-.89-1.43l-1.53.62c.3.48.57.96.87,1.44" style="fill:#fff;"/><path id="Path_1263" d="m301.15,376.87l-2.25.43c-.39.64-.79,1.29-1.19,1.94l2.22-.43c.4-.64.81-1.29,1.21-1.94" style="fill:#fff;"/><path id="Path_1264" d="m287.98,434.05c-.14-.51-.26-1.08-.39-1.62-.06,0-.12.03-.19.03-.62-.01-1.21-.23-1.68-.63.16.72.34,1.4.54,2.07.37.14.77.22,1.17.24.2-.02.39-.05.58-.1" style="fill:#fff;"/><path id="Path_1265" d="m319.95,270.95l1.68-.62c-.4-.45-.8-.9-1.2-1.34-.54.2-1.11.4-1.68.62.39.44.8.89,1.2,1.34" style="fill:#fff;"/><path id="Path_1266" d="m301.78,278.62c-.35-.46-.69-.91-1.04-1.35l-1.62.73c.35.44.7.91,1.05,1.37.54-.25,1.05-.5,1.58-.74" style="fill:#fff;"/><path id="Path_1267" d="m304.56,424.9c.24.54.49,1.05.76,1.54.54-.17,1.08-.36,1.62-.54-.25-.47-.51-1-.76-1.53-.54.17-1.08.35-1.62.51" style="fill:#fff;"/><path id="Path_1268" d="m302.8,280c-.34-.47-.68-.93-1.02-1.39-.54.24-1.08.5-1.58.74.34.45.68.91,1.02,1.38l1.58-.73" style="fill:#fff;"/><path id="Path_1269" d="m303.87,423.39c.23.54.45,1.03.69,1.53.54-.18,1.08-.35,1.62-.54-.24-.5-.46-1-.69-1.54-.54.18-1.08.36-1.62.54" style="fill:#fff;"/><path id="Path_1270" d="m322.82,271.69c-.4-.45-.8-.9-1.2-1.35-.54.2-1.12.4-1.68.62.4.44.8.9,1.19,1.35.57-.21,1.12-.43,1.68-.62" style="fill:#fff;"/><path id="Path_1271" d="m286.34,429.79l-1.08-20.12c-1.19,7.36-1.05,14.87.43,22.17.47.39,1.07.62,1.68.63.06,0,.12-.04.19-.04-.13-.54-.26-1.13-.38-1.72-.47-.07-.83-.46-.86-.93" style="fill:#fff;"/><path id="Path_1272" d="m303.69,426.97c.75,1.42,1.56,2.79,2.45,4.13.17.26.24.58.18.89-.07.32-.27.6-.54.77l-12.95,8.43c-1.48-2.39-2.57-4.99-3.24-7.72-.5.3-1.05.49-1.62.57.75,3.42,2.3,6.63,4.52,9.34l13.89-9.02c0-1.75.18-3.5.54-5.22-.54-.81-1.05-1.71-1.62-2.73l-1.62.54" style="fill:#fff;"/><path id="Path_1273" d="m287.47,259.99c-.49-.53-.79-1.21-.86-1.93v-23.33c6.95,9.79,14.67,19,23.1,27.56,2.49,2.66,4.95,5.31,7.36,7.96l1.68-.64c-11.51-12.76-24.24-24.88-33.34-39.89-.07-.12-.22-.16-.34-.09-.08.04-.13.13-.13.22v28.21c.07,1.19.57,2.32,1.4,3.17,5.23,4.95,10.05,10.31,14.41,16.04l1.62-.76c-4.5-5.91-9.48-11.43-14.89-16.52" style="fill:#fff;"/><path id="Path_1274" d="m306.36,434.38l.34-.22c1.34-.86,1.73-2.64.87-3.97,0,0-.01-.02-.02-.03-.2-.29-.43-.65-.64-1-.36,1.72-.54,3.47-.54,5.22" style="fill:#fff;"/><path id="Path_1275" d="m314.97,296.92c-2.97-6.2-6.51-12.11-10.57-17.65-.54.24-1.08.48-1.62.73,4.08,5.52,7.63,11.42,10.62,17.6l1.58-.69" style="fill:#fff;"/><path id="Path_1276" d="m333.97,288.84c-3.87-5.82-8.16-11.34-12.82-16.54-.54.21-1.11.4-1.68.62,4.71,5.2,9.04,10.74,12.95,16.58l1.57-.65" style="fill:#fff;"/><path id="Path_1277" d="m302.53,410.39c2.06-5.96,18.35-16.51,30.61-34.82l-.48-.54c-.26-.23-.57-.38-.91-.44-6.1,8.71-13.14,16.72-21.01,23.87-3.97,3.14-7.3,7-9.81,11.39-1.29,4.7-.82,9.7,1.33,14.08l1.62-.54c-2-4.03-2.48-8.64-1.34-12.99" style="fill:#fff;"/><path id="Path_1278" d="m293.17,394.66c2.28-4.95,4.89-9.75,7.81-14.35l-2.23.43c-2.65,4.26-5.02,8.69-7.11,13.26-5.18,11.51-6.72,24.33-4.43,36.75.06,0,.11.06.19.06.24,0,.47-.08.64-.24.23-.18.51-.36.76-.54-2.16-11.95-.63-24.28,4.37-35.35" style="fill:#fff;"/><path id="Path_1279" d="m345.24,331.15c.02,14.35-4.03,28.41-11.68,40.54.53.23,1.01.56,1.41.96,7.82-12.43,11.96-26.82,11.92-41.51.06-13.92-3.8-27.58-11.15-39.4-.51.22-1.02.43-1.53.63,7.27,11.62,11.08,25.07,10.99,38.78" style="fill:#fff;"/><path id="Path_1280" d="m304.12,375.33c8.69-13.72,17.68-27.91,17.68-50.85-.16-8.45-2.01-16.77-5.45-24.49l-1.57.69c3.36,7.49,5.18,15.59,5.34,23.8,0,23.79-9.77,37.78-18.97,52.41l2.26-.47c.23-.37.46-.74.7-1.11" style="fill:#fff;"/><path id="Path_1281" d="m334.92,290.31c-.31-.49-.63-.98-.95-1.46l-1.55.65c.32.48.62.97.93,1.46l1.58-.65" style="fill:#fff;"/><path id="Path_1282" d="m315.68,298.46c-.24-.54-.47-1.04-.72-1.55l-1.58.69c.24.54.48,1.04.72,1.55l1.58-.69" style="fill:#fff;"/><path id="Path_1283" d="m299.94,378.8l-1.19,1.93,2.22-.43c.4-.65.81-1.3,1.21-1.94l-2.25.44Z" style="fill:#fff;"/><path id="Path_1284" d="m333.14,375.56c.32-.48.64-.96.96-1.45l-.17-.2c-.33-.35-.74-.63-1.2-.8-.32.5-.65.96-.98,1.45.34.06.65.21.91.44l.48.56Z" style="fill:#fff;"/><path id="Path_1285" d="m301.15,376.86c-.4.65-.81,1.3-1.21,1.94l2.25-.43c.4-.65.82-1.3,1.23-1.94l-2.26.43Z" style="fill:#fff;"/><path id="Path_1286" d="m316.35,299.98c-.23-.5-.44-1.01-.65-1.5-.54.23-1.08.45-1.58.69.21.5.43.99.66,1.5.54-.23,1.05-.46,1.57-.69" style="fill:#fff;"/><path id="Path_1287" d="m332.73,373.12c.45.17.86.45,1.2.8l.17.2c.3-.48.6-.97.91-1.46-.41-.4-.88-.73-1.4-.96-.29.47-.57.96-.87,1.42" style="fill:#fff;"/><path id="Path_1288" d="m335.78,291.74c-.29-.48-.54-.96-.87-1.44l-1.58.65c.3.48.62.94.91,1.42.51-.22,1.02-.43,1.53-.63" style="fill:#fff;"/><path id="Path_1289" d="m302.96,425.46c.24.54.48,1.05.73,1.53l1.62-.54c-.26-.48-.51-1.01-.76-1.53l-1.62.54" style="fill:#fff;"/><path id="Path_1290" d="m302.35,276.51c-.54.24-1.08.5-1.62.74.35.45.7.9,1.05,1.37.54-.25,1.08-.5,1.62-.74l-1.04-1.37" style="fill:#fff;"/><path id="Path_1291" d="m318.26,271.58l1.68-.63c-.4-.44-.8-.9-1.2-1.34l-1.68.64c.4.44.8.89,1.2,1.33" style="fill:#fff;"/><path id="Path_1292" d="m289.16,431.81l-.06.05c-.44.35-.97.55-1.53.58.13.54.25,1.08.39,1.62.57-.08,1.12-.27,1.62-.57-.15-.54-.3-1.08-.43-1.66" style="fill:#fff;"/><path id="Path_1293" d="m289.16,431.81c-.13-.57-.25-1.19-.38-1.8-.25.19-.54.38-.76.54-.18.16-.41.24-.65.24-.06,0-.11-.06-.18-.08.11.58.24,1.15.37,1.72.56-.03,1.09-.23,1.53-.58l.06-.05" style="fill:#fff;"/><path id="Path_1294" d="m304.4,279.26c-.34-.47-.68-.93-1.02-1.39-.54.24-1.08.49-1.62.74.34.45.68.92,1.02,1.39l1.62-.73" style="fill:#fff;"/><path id="Path_1295" d="m319.46,272.92c.54-.22,1.12-.42,1.68-.62-.39-.45-.79-.9-1.2-1.35-.54.21-1.12.42-1.68.63.39.44.8.89,1.2,1.34" style="fill:#fff;"/><path id="Path_1296" d="m302.27,423.92c.22.54.45,1.03.69,1.53l1.62-.54c-.24-.5-.47-1-.69-1.53l-1.62.54" style="fill:#fff;"/><path id="Path_1297" d="m250.03,443.4c-2.79,3.91-15.07-6.7-27.92-7.82-10.99-.27-21.98.67-32.77,2.8-.21-1.75-.28-3.52-.23-5.28-.54.37-.85.6-.87.62-.26.18-.54.33-.83.46,0,1.47.09,2.94.25,4.4l.22,1.79,1.77-.35c10.63-2.08,21.46-3.01,32.3-2.77,5.89.89,11.59,2.75,16.87,5.5,2.89,1.63,6.06,2.71,9.35,3.18,1.28.07,2.5-.52,3.24-1.57.92-3.14.89-6.49-.09-9.62-.63-.08-1.24-.28-1.79-.6,1,2.98,1.17,6.18.51,9.25" style="fill:#fff;"/><path id="Path_1298" d="m247.59,433.08c.97,3.02,1.33,6.19,1.08,9.35-.61.87-5.33-1.29-8.44-2.7-5.62-2.94-11.69-4.9-17.97-5.8-1.68-.15-3.45-.22-5.28-.22-8.77.2-17.51,1.1-26.14,2.7-.1-1.48-.1-2.96,0-4.44-.72.45-1.29.83-1.72,1.13-.06,1.76.02,3.53.23,5.28,10.79-2.13,21.78-3.06,32.77-2.79,12.84,1.11,25.13,11.72,27.92,7.81.67-3.07.49-6.27-.51-9.25l-.05-.03s-.72-.43-1.88-1.05" style="fill:#fff;"/><path id="Path_1299" d="m183.02,276.65c.05-1.83,1.18-3.45,2.88-4.13,10.88-3.49,22.26-5.2,33.68-5.07,1.01,0,2.03,0,3.08.04,13.34.72,26.09,5.74,36.35,14.29l.09-2.08c-10.38-8.33-23.11-13.18-36.4-13.89-1.08-.03-2.09-.04-3.11-.04-11.63-.13-23.2,1.62-34.27,5.17-2.36.92-3.93,3.17-3.98,5.7v16.73l1.68.3v-17.03Z" style="fill:#fff;"/><path id="Path_1300" d="m251.95,433.16c-.33,0-.66-.07-.97-.19.12.6.24,1.2.34,1.77.21.05.42.08.63.09.79-.02,1.57-.26,2.22-.71,0-.8.04-1.62.05-2.4-.42.88-1.3,1.43-2.27,1.43" style="fill:#fff;"/><path id="Path_1301" d="m187.23,432.39c-.51.42-1.15.66-1.81.68-.78-.02-1.49-.42-1.91-1.08l-1.54.76c.71,1.24,2.02,2,3.45,2.02.71-.02,1.4-.2,2.02-.54,0-.67,0-1.32.03-1.97l-.24.18" style="fill:#fff;"/><path id="Path_1302" d="m181.34,296.79v132.52l1.68-.83v-131.39l-1.68-.3Z" style="fill:#fff;"/><path id="Path_1303" d="m183.02,430.34l-1.62.78c.08.57.26,1.12.54,1.62l1.54-.76c-.33-.48-.5-1.04-.49-1.62" style="fill:#fff;"/><path id="Path_1304" d="m183.02,295.38v-1.71l-1.68-.3v1.71l1.68.3Z" style="fill:#fff;"/><path id="Path_1305" d="m183.02,297.09v-1.71l-1.68-.3v1.71l1.68.3Z" style="fill:#fff;"/><path id="Path_1306" d="m183.02,430.33v-1.86l-1.68.82v1.04c0,.27.03.53.08.79l1.62-.78h-.02Z" style="fill:#fff;"/><path id="Path_1307" d="m191.09,429.85c-.09.69-.17,1.39-.22,2.1,7.68-4.96,16.55-7.76,25.69-8.1,10.91.73,21.53,3.88,31.07,9.22-.16-.69-.32-1.4-.5-2.16-9.43-5.11-19.86-8.1-30.57-8.75-9.02.29-17.8,2.94-25.47,7.69" style="fill:#fff;"/><path id="Path_1308" d="m250.33,432.7s-.5-.29-1.28-.72c.17.74.33,1.47.47,2.16.55.31,1.16.51,1.79.59-.1-.57-.22-1.16-.34-1.77-.22-.07-.44-.16-.64-.28" style="fill:#fff;"/><path id="Path_1309" d="m189.12,433.09c0-.71.05-1.41.1-2.09-.86.54-1.47.99-1.76,1.2-.04.65-.05,1.3-.04,1.97.29-.13.57-.28.83-.46,0,0,.34-.25.87-.62" style="fill:#fff;"/><path id="Path_1310" d="m247.6,433.08c1.17.62,1.85,1.03,1.88,1.05l.05.03c-.14-.71-.3-1.44-.47-2.16-.54-.28-1.15-.62-1.95-1.04.17.74.34,1.45.49,2.16" style="fill:#fff;"/><path id="Path_1311" d="m191.07,429.85c-.71.43-1.31.81-1.84,1.15-.05.67-.09,1.38-.1,2.09.43-.3,1-.69,1.72-1.14.05-.72.12-1.41.22-2.1" style="fill:#fff;"/><path id="Path_1312" d="m184.69,276.65c.05-1.12.75-2.11,1.78-2.55,10.7-3.4,21.88-5.07,33.11-4.95.99,0,2,0,3.02.04,13.39.8,26.15,5.98,36.31,14.75l.09-2.13c-10.26-8.56-23.01-13.57-36.35-14.29-1.05-.03-2.07-.04-3.08-.04-11.43-.14-22.8,1.58-33.68,5.07-1.7.68-2.83,2.3-2.88,4.13v17.02l1.68.31v-17.35Z" style="fill:#fff;"/><path id="Path_1313" d="m186.2,431.07c-.22.19-.49.3-.78.32-.13-.02-.26-.08-.35-.18l-1.55.76c.41.66,1.13,1.06,1.91,1.08.66-.02,1.3-.26,1.81-.68l.24-.18c.04-.74.12-1.47.21-2.16-.94.64-1.47,1.05-1.47,1.05" style="fill:#fff;"/><path id="Path_1314" d="m255.09,389.17l-2.16,41.17c-.04.73-.43,1.15-.97,1.15-.27,0-.53-.09-.76-.24,0,0-.25-.15-.68-.39.16.72.32,1.42.45,2.11.31.12.65.18.98.19.97,0,1.86-.55,2.27-1.43.29-14.14.65-28.42,1.05-42.6l-.19.04Z" style="fill:#fff;"/><path id="Path_1315" d="m255.48,381.77l-.21,3.95h.09l.11-3.94" style="fill:#fff;"/><path id="Path_1316" d="m184.7,297.39l-1.68-.3v131.39l1.68-.82v-130.27Z" style="fill:#fff;"/><path id="Path_1317" d="m255.09,389.17l.18-.04c0-.57.04-1.15.05-1.72l-.14.03-.09,1.73Z" style="fill:#fff;"/><path id="Path_1318" d="m184.69,430.33v-.81l-1.67.82c0,.58.17,1.14.49,1.62l1.53-.75c-.26-.21-.39-.54-.37-.87" style="fill:#fff;"/><path id="Path_1319" d="m184.7,293.99l-1.68-.3v1.71l1.68.3v-1.71Z" style="fill:#fff;"/><path id="Path_1320" d="m255.27,385.72l-.09,1.73.14-.03c0-.57.03-1.15.05-1.72h-.1Z" style="fill:#fff;"/><path id="Path_1321" d="m184.7,297.39v-1.71l-1.68-.3v1.71l1.68.3Z" style="fill:#fff;"/><path id="Path_1322" d="m184.7,427.66l-1.68.82v1.86h0l1.67-.82v-1.86Z" style="fill:#fff;"/><path id="Path_1323" d="m192.67,427.02c-.39.42-.83.78-1.32,1.08-.12.58-.21,1.19-.29,1.78,7.67-4.74,16.45-7.38,25.46-7.67,10.71.66,21.14,3.64,30.58,8.75-.17-.7-.34-1.41-.54-2.16-9.31-4.88-19.55-7.71-30.05-8.28-8.36.21-16.54,2.44-23.85,6.51" style="fill:#fff;"/><path id="Path_1324" d="m191.45,427.68c-.03.13-.08.25-.1.39.48-.31.92-.67,1.32-1.08-.42.22-.83.44-1.21.66" style="fill:#fff;"/><path id="Path_1325" d="m188.17,429.69l-.5.33c-.09.72-.17,1.44-.21,2.16.3-.22.91-.65,1.76-1.2.06-.67.15-1.32.25-1.95l-1.31.66Z" style="fill:#fff;"/><path id="Path_1326" d="m248.55,429.79c.18.72.35,1.44.51,2.16.77.43,1.25.7,1.28.72.2.12.42.22.64.28-.14-.68-.29-1.39-.45-2.1-.44-.25-1.12-.62-1.98-1.08" style="fill:#fff;"/><path id="Path_1327" d="m188.17,429.69l1.31-.64.03-.21c-.5.3-.94.58-1.34.85" style="fill:#fff;"/><path id="Path_1328" d="m191.36,428.07c-.12.09-.24.17-.37.24l-1.52.73c-.09.64-.18,1.29-.24,1.96.54-.34,1.12-.72,1.84-1.15.09-.59.16-1.2.29-1.78" style="fill:#fff;"/><path id="Path_1329" d="m246.58,428.79c.19.74.36,1.45.54,2.16.8.42,1.43.76,1.95,1.04-.15-.72-.32-1.43-.51-2.16-.57-.3-1.23-.64-1.97-1.01" style="fill:#fff;"/><path id="Path_1330" d="m189.49,428.84c0,.07-.01.14-.03.21l1.52-.74c.13-.07.25-.14.37-.23.03-.14.08-.26.1-.39-.72.4-1.37.79-1.96,1.16" style="fill:#fff;"/><path id="Path_1331" d="m279.37,473.73l-.29-18.45v17.51c0,.33.11.66.29.93" style="fill:#fff;"/><path id="Path_1332" d="m279.63,384.44l1.08,68.65c.09,0,.15-.08.23-.09l1.44-.23-.77-49.22-1.02-19.31-.96.19Z" style="fill:#fff;"/><path id="Path_1333" d="m263.76,212.63c.07-1.33,1.2-2.35,2.53-2.29.49.03.97.2,1.36.51l8.43,6.51c.58.45.92,1.14.93,1.87l1.08,69.38c.43-.23,1-.54,1.67-.9l-1.07-68.51c-.03-1.25-.62-2.42-1.62-3.17l-8.43-6.51c-1.78-1.38-4.35-1.06-5.73.72-.51.66-.81,1.46-.85,2.3-.5,10.15-1.67,34.82-3,67.15.69.54,1.24,1,1.62,1.34,1.37-33.19,2.56-58.46,3.04-68.41" style="fill:#fff;"/><path id="Path_1334" d="m281.62,509.96c.01,1.34-1.06,2.44-2.4,2.45-.31,0-.62-.05-.9-.16l-21.71-8.51c-.93-.35-1.54-1.24-1.54-2.23,0-21.66.33-45.26.82-69.34-.34.83-.95,1.52-1.72,1.97-.46,23.4-.76,46.29-.78,67.37,0,1.68,1.04,3.18,2.6,3.78l21.73,8.52c.47.18.98.28,1.49.28.83,0,1.65-.25,2.33-.73,1.12-.78,1.78-2.06,1.76-3.42l-.54-35.38-1.66.06.52,35.34Z" style="fill:#fff;"/><path id="Path_1335" d="m279.57,381.03l.84-.16-1.2-22.63.36,22.79Z" style="fill:#fff;"/><path id="Path_1336" d="m279.6,382.73l.03,1.71.96-.19-.09-1.68-.9.17Z" style="fill:#fff;"/><path id="Path_1337" d="m279.58,381.03l.03,1.71.9-.18-.09-1.68-.84.16Z" style="fill:#fff;"/><path id="Path_1338" d="m279.84,291.49c-.07.03-.14.07-.2.11-.36.19-.57.57-.54.97l.74,14.29.23.03-.23-15.4Z" style="fill:#fff;"/><path id="Path_1339" d="m280.13,310.28h-.09l.14,2.5-.05-2.5Z" style="fill:#fff;"/><path id="Path_1340" d="m280.11,308.59l-.03-1.69-.22-.03.09,1.71.15.02Z" style="fill:#fff;"/><path id="Path_1341" d="m280.13,310.28l-.03-1.69h-.15l.09,1.71h.09Z" style="fill:#fff;"/><path id="Path_1342" d="m278.15,290.68c.2-.21.43-.4.69-.54.26-.14.61-.32.97-.54l-.03-1.88c-.67.35-1.24.67-1.66.9l.03,2.07Z" style="fill:#fff;"/><path id="Path_1343" d="m280.59,384.25l1.02,19.31-.3-19.43-.72.12Z" style="fill:#fff;"/><path id="Path_1344" d="m278.5,312.81l.72,45.43,1.2,22.62.83-.16-.36-22.56-2.39-45.34Z" style="fill:#fff;"/><path id="Path_1345" d="m280.5,382.55l.09,1.68.72-.13-.03-1.71-.78.15Z" style="fill:#fff;"/><path id="Path_1346" d="m280.41,380.87l.09,1.69.78-.15-.03-1.71-.84.16Z" style="fill:#fff;"/><path id="Path_1347" d="m279.87,306.87l-.76-14.29c-.02-.4.19-.78.54-.97l.21-.11-.04-1.88-.96.54c-.26.14-.49.33-.7.54l.25,16,1.45.18Z" style="fill:#fff;"/><path id="Path_1348" d="m280.87,358.13l-.72-45.34-.13-2.52-1.58-.21.04,2.75,2.39,45.31Z" style="fill:#fff;"/><path id="Path_1349" d="m279.95,308.57l-.09-1.71-1.46-.19.03,1.68,1.53.21Z" style="fill:#fff;"/><path id="Path_1350" d="m280.04,310.27l-.09-1.71-1.53-.2.03,1.69,1.59.21Z" style="fill:#fff;"/><path id="Path_1351" d="m280.71,453.09l.34,21.53,1.68-.06-.36-21.78-1.44.23c-.08.02-.15.05-.23.09" style="fill:#fff;"/><path id="Path_1352" d="m259.56,304.17l.89-16.85c0-1.19-.47-2.33-1.29-3.2l-.23-.21c-.26,6.43-.54,13.13-.79,20.06l1.42.18Z" style="fill:#fff;"/><path id="Path_1353" d="m258,307.35c-.87,23.02-1.77,48.43-2.53,74.42l3.91-74.25-1.38-.18Z" style="fill:#fff;"/><path id="Path_1354" d="m258.07,305.66l1.4.19.09-1.68-1.42-.19c0,.54-.05,1.12-.06,1.68" style="fill:#fff;"/><path id="Path_1355" d="m259.47,305.85l-1.4-.19c0,.54-.05,1.11-.06,1.68l1.39.18.08-1.67Z" style="fill:#fff;"/><path id="Path_1356" d="m255.9,432.17c.3-14.39.66-28.92,1.08-43.36l-.18.04-2.19,41.56c-.02.46-.15.91-.37,1.31,0,.8-.04,1.62-.05,2.4.76-.46,1.36-1.15,1.72-1.97" style="fill:#fff;"/><path id="Path_1357" d="m260.3,282.91c.12.11.22.28.33.39l.09-2.26c-.39-.34-.92-.79-1.62-1.34l-.09,2.08c.73.61,1.2,1.03,1.29,1.12" style="fill:#fff;"/><path id="Path_1358" d="m256.97,385.4h.09c.04-1.2.06-2.42.1-3.63l-.19,3.63Z" style="fill:#fff;"/><path id="Path_1359" d="m256.87,387.12l-.09,1.72.18-.04c0-.54.03-1.14.05-1.71l-.13.02Z" style="fill:#fff;"/><path id="Path_1360" d="m256.97,385.4l-.09,1.72h.13c0-.57.04-1.15.05-1.72h-.09Z" style="fill:#fff;"/><path id="Path_1361" d="m259.15,284.13c.82.86,1.28,2.01,1.28,3.2l-.86,16.85.24.03c.28-7.24.54-14.22.83-20.9-.11-.12-.21-.28-.32-.39s-.54-.51-1.29-1.12l-.09,2.16.23.21" style="fill:#fff;"/><path id="Path_1362" d="m254.23,431.73c.22-.41.35-.85.38-1.31l2.19-41.56-1.52.29c-.39,14.18-.76,28.47-1.05,42.6" style="fill:#fff;"/><path id="Path_1363" d="m256.97,385.4l.19-3.65c.76-25.91,1.62-51.24,2.52-74.19l-.28-.03-3.91,74.23-.11,3.94,1.6-.31Z" style="fill:#fff;"/><path id="Path_1364" d="m255.31,387.43c0,.54-.03,1.14-.05,1.72l1.51-.29.09-1.72-1.55.3Z" style="fill:#fff;"/><path id="Path_1365" d="m259.74,305.88c0-.54.05-1.12.06-1.68l-.24-.04-.09,1.68.26.03Z" style="fill:#fff;"/><path id="Path_1366" d="m259.67,307.56c0-.54.05-1.11.06-1.68l-.26-.03-.09,1.68.29.03Z" style="fill:#fff;"/><path id="Path_1367" d="m255.37,385.71c0,.54-.03,1.14-.05,1.72l1.55-.3.08-1.75-1.58.33Z" style="fill:#fff;"/><path id="Path_1368" d="m279.07,455.27v-.03c.03-.99.68-1.85,1.62-2.16l-1.06-68.66-1.67.32,1.11,70.53Z" style="fill:#fff;"/><path id="Path_1369" d="m262.33,282.74c1.38-33.72,2.6-59.59,3.11-70.02,0-.28.17-.52.43-.63.1-.05.21-.07.32-.08.16,0,.32.06.45.16l8.43,6.52c.17.13.28.33.29.54l1.11,70.89c.39-.62.93-1.14,1.58-1.5l.09-.04-1.08-69.38c-.01-.73-.35-1.42-.93-1.87l-8.46-6.48c-1.05-.82-2.57-.63-3.39.42-.3.39-.48.87-.51,1.36-.48,9.94-1.68,35.21-3.04,68.41.39.34.66.58.73.65.33.33.62.69.87,1.08" style="fill:#fff;"/><path id="Path_1370" d="m279.37,473.73l.57,36.25c0,.41-.32.75-.73.76-.09,0-.19-.02-.28-.05l-21.71-8.48c-.28-.11-.47-.38-.47-.68.03-34.7.81-74.33,1.91-113.02l-.16.03-2.21,42c-.03.57-.16,1.12-.38,1.65-.5,24.07-.81,47.67-.83,69.34,0,.99.61,1.88,1.54,2.23l21.71,8.5c1.24.49,2.64-.12,3.13-1.36.12-.29.17-.6.17-.92l-.54-35.34h-.09c-.66.02-1.29-.32-1.62-.9" style="fill:#fff;"/><path id="Path_1371" d="m276.82,312.88l1.08,68.47,1.67-.32-.36-22.79-2.39-45.36Z" style="fill:#fff;"/><path id="Path_1372" d="m258.67,385.07h.08c.03-1.05.05-2.1.09-3.15l-.17,3.15Z" style="fill:#fff;"/><path id="Path_1373" d="m277.94,383.06v1.72l1.67-.32-.03-1.69-1.64.29Z" style="fill:#fff;"/><path id="Path_1374" d="m258.57,386.79l-.09,1.72h.16c0-.57.03-1.15.05-1.72h-.12Z" style="fill:#fff;"/><path id="Path_1375" d="m258.74,385.05h-.08l-.09,1.73.12-.03c0-.54.03-1.14.05-1.72" style="fill:#fff;"/><path id="Path_1376" d="m277.9,381.35l.03,1.71,1.67-.32-.05-1.71-1.65.32Z" style="fill:#fff;"/><path id="Path_1377" d="m276.46,290.15l.25,16.3,1.45.19-.73-13.98c-.05-.73.21-1.45.72-1.98l-.04-2.07-.08.05c-.65.35-1.19.87-1.58,1.5" style="fill:#fff;"/><path id="Path_1378" d="m279.21,358.24l-.72-45.43-.15-2.76-1.58-.21.05,3.04,2.4,45.35Z" style="fill:#fff;"/><path id="Path_1379" d="m278.26,308.34l-.09-1.71-1.45-.19.03,1.69,1.52.2Z" style="fill:#fff;"/><path id="Path_1380" d="m278.35,310.04l-.09-1.71-1.52-.2.03,1.69,1.58.21Z" style="fill:#fff;"/><path id="Path_1381" d="m278.18,306.64l.22.03-.24-15.99c-.5.54-.76,1.25-.72,1.98l.74,13.98Z" style="fill:#fff;"/><path id="Path_1382" d="m278.46,310.06h-.1l.15,2.76-.05-2.76Z" style="fill:#fff;"/><path id="Path_1383" d="m278.43,308.37l-.03-1.69-.23-.03.09,1.71.16.02Z" style="fill:#fff;"/><path id="Path_1384" d="m278.46,310.06l-.03-1.69h-.16l.09,1.71h.1Z" style="fill:#fff;"/><path id="Path_1385" d="m279.07,455.23v.04l.29,18.46c.33.57.96.92,1.62.89h.09l-.34-21.53c-.94.31-1.59,1.17-1.62,2.16" style="fill:#fff;"/><path id="Path_1386" d="m258.49,388.52l-1.54.29c-.4,14.43-.76,28.97-1.08,43.36.22-.52.35-1.08.39-1.65l2.23-42.01Z" style="fill:#fff;"/><path id="Path_1387" d="m261.23,304.39l.24.03c.29-7.52.58-14.75.86-21.68-.25-.39-.54-.75-.87-1.08-.06-.06-.34-.31-.72-.65-.03.76-.05,1.52-.09,2.27.96,1.15,1.49,2.61,1.49,4.11l-.9,17Z" style="fill:#fff;"/><path id="Path_1388" d="m261.34,307.79l-.29-.04-3.9,74c-.04,1.2-.06,2.42-.1,3.63l1.62-.31.16-3.16c.76-25.91,1.62-51.18,2.52-74.12" style="fill:#fff;"/><path id="Path_1389" d="m261.41,306.1c0-.54.05-1.12.06-1.68l-.24-.03-.09,1.68.27.03Z" style="fill:#fff;"/><path id="Path_1390" d="m258.58,386.79l-1.57.3c0,.57-.03,1.14-.05,1.72l1.53-.3.09-1.72Z" style="fill:#fff;"/><path id="Path_1391" d="m257.05,385.38c0,.57-.03,1.15-.05,1.72l1.57-.3.09-1.72-1.61.31Z" style="fill:#fff;"/><path id="Path_1392" d="m261.34,307.77c0-.54.05-1.11.06-1.68l-.28-.04-.09,1.68.3.04Z" style="fill:#fff;"/><path id="Path_1393" d="m261.23,304.39l.87-16.98c0-1.5-.53-2.95-1.49-4.11-.28,6.68-.54,13.66-.83,20.9l1.45.19Z" style="fill:#fff;"/><path id="Path_1394" d="m259.67,307.56c-.87,22.95-1.76,48.27-2.52,74.18l3.89-74-1.38-.18Z" style="fill:#fff;"/><path id="Path_1395" d="m261.13,306.07l.09-1.68-1.41-.19c-.03.54-.05,1.11-.06,1.68l1.39.19Z" style="fill:#fff;"/><path id="Path_1396" d="m261.05,307.75l.09-1.68-1.39-.19c0,.54-.04,1.12-.06,1.68l1.37.18Z" style="fill:#fff;"/><path id="Path_1397" d="m37.39,212.05h.05c1.01-.04,1.91-.64,2.34-1.55,4.85-8.08,11.21-15.16,18.74-20.83,7.33-5.37,15.24-9.9,23.58-13.49,2.47-1.05,4.87-2.28,7.16-3.68l1.16-.82-28.47-59.37c-.85-1.77-2.96-2.54-4.75-1.74-.09.04-8.41,3.78-19.14,7.9-8.67,3.34-28.97,13.37-30.39,34.54l-.03.44,27.43,56.94c.39.95,1.29,1.6,2.32,1.67m1.27-91.99c10.89-4.19,19.22-7.93,19.22-7.93.97-.42,2.09,0,2.55.94l27.86,58.06c-4.19,2.94-17.43,7.07-30.76,17.2-7.73,5.81-14.25,13.06-19.2,21.36-.49.92-1.27.91-1.72-.04l-27.27-56.5c1.26-18.85,18.43-28.9,29.32-33.09" style="fill:#fff;"/><path id="Path_1398" d="m38.31,209.7c4.95-8.3,11.47-15.55,19.19-21.36,13.36-10.13,26.6-14.25,30.76-17.2l-27.83-58.07c-.46-.95-1.59-1.36-2.55-.94,0,0-8.33,3.74-19.22,7.93-10.89,4.19-28.07,14.24-29.32,33.09l27.24,56.5c.45.94,1.24.96,1.73.04m.95-88.07c10.79-4.16,19.22-7.92,19.31-7.97.13-.06.29,0,.35.13l27.21,56.72c-1.34.74-3.24,1.62-5.44,2.64-8.55,3.71-16.67,8.35-24.2,13.85-7.53,5.7-13.97,12.73-18.99,20.73l-26.45-54.9c1.54-18.94,20.21-28.11,28.22-31.2" style="fill:#fff;"/><path id="Path_1399" d="m88.79,167.98c.41.89,1.21,1.55,2.16,1.78.24.06.48.09.72.09.72,0,1.42-.25,2-.69l2.53-1.92c1.47-1.18,1.96-3.2,1.19-4.92l-26.44-55.24c-.78-1.67-2.77-2.39-4.44-1.61-.14.07-.28.14-.41.23l-2.54,1.62c-1.6,1.05-2.19,3.12-1.39,4.86l26.63,55.79Zm-24.33-59.22l2.54-1.62c.73-.52,1.74-.34,2.26.39.07.09.12.19.17.3l26.42,55.21c.44,1,.16,2.17-.69,2.87l-2.53,1.91c-.62.54-1.56.47-2.09-.15-.1-.12-.18-.25-.24-.39l-26.62-55.78c-.44-.98-.11-2.14.78-2.74" style="fill:#fff;"/><path id="Path_1400" d="m90.3,167.25c.33.76,1.2,1.1,1.96.78.14-.06.26-.14.38-.24l2.52-1.92c.85-.69,1.13-1.87.69-2.87l-26.42-55.19c-.35-.82-1.3-1.2-2.13-.85-.1.04-.2.1-.3.17l-2.54,1.62c-.89.61-1.21,1.76-.78,2.74l26.63,55.76Zm-24.94-57.08l2.54-1.62,26.42,55.21c.09.28.02.59-.2.8l-2.39,1.83-26.55-55.61c-.08-.22,0-.47.18-.61" style="fill:#fff;"/><path id="Path_1401" d="m97.71,161.9c.41.89,1.21,1.55,2.16,1.78.24.06.48.09.72.09.72,0,1.43-.25,2-.7l2.52-1.91c1.48-1.18,1.97-3.21,1.18-4.93l-27.29-56.13c-.67-1.51-2.43-2.19-3.94-1.52-.34.15-.65.36-.91.63l-2.09,1.96c-1.31,1.3-1.68,3.28-.93,4.97l26.6,55.77Zm-24.55-59.49l2.09-1.96c.48-.54,1.32-.59,1.86-.11.16.14.28.32.35.51l27.29,56.13c.44,1,.17,2.17-.68,2.86l-2.53,1.92c-.63.53-1.57.46-2.11-.17-.09-.11-.17-.23-.23-.37l-26.62-55.8c-.44-1.02-.23-2.21.54-3.02" style="fill:#fff;"/><path id="Path_1402" d="m99.22,161.18c.32.75,1.19,1.1,1.94.78.14-.06.27-.14.39-.24l2.53-1.91c.84-.69,1.12-1.86.69-2.87l-27.29-56.13c-.27-.68-1.03-1.02-1.71-.75-.19.07-.36.19-.5.35l-2.09,1.96c-.76.81-.97,2-.54,3.02l26.6,55.79Zm-24.91-57.55l1.82-1.71,27.11,55.75c.09.28.02.58-.19.79l-2.4,1.83-26.55-55.6c-.12-.37-.04-.78.2-1.08" style="fill:#fff;"/><path id="Path_1403" d="m462.86,168.42l1.16.81c2.29,1.39,4.69,2.62,7.17,3.65,8.35,3.58,16.26,8.09,23.6,13.43,7.53,5.67,13.91,12.72,18.79,20.79.42.91,1.31,1.51,2.31,1.54h.09c1.03-.08,1.93-.75,2.29-1.72l27.04-59.91-.1-.54c-3.03-15.65-20.07-27.58-30.1-31.41-10.72-4.1-19.07-7.82-19.14-7.86-1.8-.79-3.9-.02-4.75,1.75l-28.35,59.46Zm29.86-58.7c.46-.95,1.59-1.36,2.55-.94,0,0,8.34,3.73,19.24,7.9,10.9,4.17,26.32,16.19,29.04,30.16l-26.81,59.42c-.43.95-1.19.98-1.68.05-4.98-8.29-11.51-15.53-19.25-21.32-13.38-10.1-26.63-14.2-30.82-17.13l27.73-58.13Z" style="fill:#fff;"/><path id="Path_1404" d="m495.8,184.98c7.73,5.79,14.27,13.04,19.24,21.32.5.92,1.26.9,1.68-.05l26.82-59.41c-2.7-13.99-18.15-25.99-29.05-30.16-10.9-4.17-19.23-7.89-19.23-7.89-.96-.43-2.09-.01-2.55.93l-27.74,58.11c4.19,2.93,17.43,7.02,30.82,17.13m-1.58-74.54c.07-.13.22-.18.36-.13.09.04,8.51,3.78,19.32,7.92,9.91,3.78,24.98,15.06,27.89,28.41l-26.02,57.62c-5.03-7.96-11.46-14.95-18.98-20.62-7.54-5.48-15.66-10.11-24.22-13.8-2.22-1.02-4.1-1.88-5.45-2.63l27.09-56.77Z" style="fill:#fff;"/><path id="Path_1405" d="m455.91,159.03c-.77,1.72-.28,3.74,1.2,4.92l2.53,1.91c.76.59,1.75.82,2.7.6.94-.24,1.72-.9,2.13-1.78l26.51-55.81c.79-1.74.19-3.8-1.4-4.86l-2.55-1.62c-.8-.53-1.8-.69-2.73-.43-.93.27-1.69.93-2.1,1.81l-26.28,55.26Zm27.81-54.55c.35-.82,1.3-1.21,2.12-.86.1.04.2.1.29.16l2.55,1.62c.89.6,1.23,1.75.79,2.73l-26.51,55.81c-.32.76-1.19,1.12-1.96.8-.14-.06-.27-.14-.38-.23l-2.53-1.92c-.85-.69-1.14-1.86-.7-2.87l26.31-55.25Z" style="fill:#fff;"/><path id="Path_1406" d="m458.11,162.61l2.53,1.92c.62.53,1.56.46,2.09-.16.1-.11.17-.24.23-.37l26.49-55.83c.44-.98.11-2.14-.78-2.74l-2.55-1.62c-.73-.51-1.74-.33-2.25.41-.06.09-.12.19-.16.29l-26.31,55.27c-.44,1-.15,2.17.7,2.86m.81-2.16l26.33-55.26,2.54,1.62c.18.14.25.39.18.6l-26.29,55.78h-.03l-2.53-1.91c-.21-.21-.29-.52-.2-.81" style="fill:#fff;"/><path id="Path_1407" d="m446.97,152.98c-.78,1.72-.29,3.75,1.19,4.93l2.53,1.91c.57.44,1.27.68,2,.69,1.24,0,2.36-.73,2.86-1.87l26.51-55.81c.75-1.69.37-3.67-.94-4.97l-2.09-1.96c-1.17-1.17-3.06-1.17-4.23,0-.27.26-.48.58-.63.92l-27.18,56.16Zm28.68-55.43c.26-.68,1.03-1.02,1.71-.76.19.07.37.19.5.34l2.09,1.96c.78.8,1,1.99.57,3.02l-26.51,55.81c-.33.75-1.2,1.1-1.95.77-.14-.06-.26-.14-.37-.23l-2.54-1.91c-.84-.69-1.12-1.86-.69-2.86l27.18-56.14Z" style="fill:#fff;"/><path id="Path_1408" d="m449.18,156.56l2.53,1.91c.63.53,1.57.46,2.11-.17.09-.11.17-.23.23-.37l26.5-55.81c.44-1.02.23-2.21-.54-3.02l-2.09-1.96c-.49-.54-1.32-.59-1.86-.1-.16.14-.28.32-.35.52l-27.2,56.14c-.44,1-.16,2.17.69,2.86m.82-2.13l26.99-55.82,1.81,1.71c.25.3.33.71.21,1.08l-26.28,55.77h0l-2.54-1.92c-.21-.21-.28-.51-.19-.79" style="fill:#fff;"/><path id="Path_1409" d="m466.64,54.88l1.82-2.82c-.54-.35-56.42-35.44-191.12-35.44S84.01,51.68,83.44,52.05l1.75,2.86c.54-.35,58.55-34.94,192.15-34.94s188.76,34.54,189.3,34.92" style="fill:#fff;"/><path id="Path_1410" d="m113.59,120.73l1.75,2.86c.49-.3,49.98-29.91,157.74-29.91s162.89,32.51,163.44,32.84l1.73-2.87c-.54-.33-56.33-33.33-165.16-33.33s-159.01,30.1-159.5,30.4" style="fill:#fff;"/><path id="Path_1411" d="m139.5,86.2c-.71.91-1.57,1.69-2.54,2.3-1.18.77-2.45,1.39-3.78,1.86-1.39.52-2.84.86-4.32,1-1.32.13-2.66.03-3.94-.31-1.2-.33-2.32-.92-3.28-1.72-1.03-.89-1.85-2-2.41-3.24l-8.04,2.94c1.59,4.34,5.02,7.76,9.38,9.33,5.11,1.35,10.53.92,15.36-1.23,2.38-.84,4.62-2.01,6.67-3.48,1.79-1.28,3.33-2.86,4.55-4.69,1.11-1.67,1.84-3.57,2.12-5.56.26-2.06.01-4.16-.73-6.1-.5-1.46-1.25-2.83-2.22-4.03-.83-1.01-1.85-1.85-3-2.49-1.14-.62-2.38-1.03-3.66-1.24-1.4-.22-2.82-.33-4.24-.32-1.55.02-3.09.12-4.63.3-1.62.2-3.24.4-4.91.63-1.81.24-3.36.4-4.66.46-1.1.06-2.19.02-3.28-.13-.78-.1-1.53-.4-2.16-.87-.57-.5-1-1.14-1.24-1.86-.3-.79-.38-1.64-.24-2.47.16-.85.52-1.66,1.05-2.35.64-.82,1.4-1.54,2.27-2.11,1.08-.71,2.24-1.29,3.47-1.72,5.7-2.08,9.58-.98,11.64,3.31l8.13-2.97c-.79-1.96-2-3.72-3.54-5.17-1.46-1.36-3.22-2.36-5.13-2.94-2.08-.63-4.27-.85-6.43-.65-2.54.22-5.04.79-7.43,1.69-2.22.78-4.31,1.87-6.23,3.24-1.63,1.17-3.06,2.6-4.22,4.24-1.03,1.45-1.73,3.11-2.06,4.86-.31,1.73-.22,3.5.28,5.18.14.52.32,1.02.54,1.51.21.47.43.93.67,1.39.75,1.57,1.9,2.91,3.34,3.9,1.4.89,2.97,1.48,4.61,1.73,1.96.3,3.96.37,5.94.22,2.16-.15,4.54-.38,7.15-.7,1.78-.19,3.36-.32,4.72-.39,1.18-.08,2.36-.02,3.52.18.88.14,1.71.48,2.43,1,.66.51,1.16,1.2,1.42,2,.35.9.45,1.88.29,2.83-.17.96-.58,1.86-1.18,2.63" style="fill:#fff;"/><path id="Path_1412" d="m161.77,39.78l-20.96,5.28,1.08,4.36,7.92-2,5.52,21.93,5.03-1.26-5.49-21.95,8-2.01-1.1-4.35Z" style="fill:#fff;"/><path id="Path_1413" d="m182.79,47.67c.85-1.52,2.04-2.81,3.49-3.78,1.51-.97,3.21-1.61,4.98-1.86,1.38-.23,2.78-.25,4.17-.05,1.21.17,2.38.57,3.45,1.17,1.01.58,1.9,1.37,2.59,2.32.74,1,1.3,2.13,1.65,3.32l8.86-1.37c-.58-2.31-1.59-4.49-2.97-6.43-1.46-1.92-3.34-3.47-5.5-4.54-1.94-1.06-4.06-1.75-6.26-2.05-2.38-.29-4.8-.24-7.17.16-3.04.42-5.97,1.43-8.64,2.96-2.48,1.47-4.59,3.48-6.18,5.89-3.29,5.47-4.4,11.99-3.09,18.24.46,3.34,1.46,6.58,2.94,9.61,1.33,2.66,3.21,5.01,5.51,6.89,2.22,1.81,4.83,3.08,7.63,3.7,3.01.65,6.11.72,9.14.21,2.5-.35,4.94-1.08,7.23-2.16,2.07-1.01,3.93-2.4,5.47-4.11,1.53-1.67,2.67-3.67,3.32-5.84.68-2.36.96-4.81.83-7.26l-8.79,1.35c.2,2.59-.62,5.16-2.29,7.15-1.86,1.94-4.35,3.15-7.02,3.42-1.77.31-3.59.21-5.32-.28-1.65-.48-3.17-1.35-4.41-2.54-1.38-1.35-2.49-2.96-3.28-4.72-.97-2.17-1.63-4.46-1.96-6.81-.4-2.35-.46-4.75-.17-7.11.22-1.93.82-3.8,1.75-5.5" style="fill:#fff;"/><path id="Path_1414" d="m253.25,68.28l-21.19,1.37-2.49-38.68-8.87.54,2.98,46.42,30.07-1.93-.5-7.71Z" style="fill:#fff;"/><path id="Path_1415" d="m285.39,64.13l4.15,11.91,9.35.08-17.13-46.62-9.72-.06-17.02,46.37,8.89.05,4.15-11.87,17.34.15Zm-8.6-26.99l6.56,19.8-13.15-.09,6.6-19.71Z" style="fill:#fff;"/><path id="Path_1416" d="m340.08,54.54c2.02-2.06,3.21-4.79,3.35-7.66.36-2.78-.15-5.61-1.45-8.1-.58-1.11-1.36-2.1-2.31-2.91-.95-.8-2.02-1.45-3.17-1.93-1.28-.53-2.62-.93-3.98-1.19-1.45-.28-3.05-.51-4.79-.68l-20.57-1.93-4.41,46.27,8.86.84,1.74-18.3,8.64.83c1,.08,1.98.33,2.89.76.86.4,1.64.95,2.32,1.62.7.68,1.29,1.47,1.73,2.34.46.93.83,1.9,1.08,2.9l2.97,11.91,9.5.91-3.42-12.65c-.55-2.12-1.42-4.14-2.59-5.99-1.01-1.54-2.45-2.75-4.13-3.48v-.1c2.87-.28,5.58-1.48,7.71-3.43m-8.28-2.84c-.88.53-1.86.86-2.87.97-1.35.15-2.72.15-4.07,0l-10.79-1.03,1.31-13.75,11.5,1.08c2.19.05,4.3.84,5.99,2.23,1.32,1.42,1.89,3.38,1.55,5.29-.08,1.09-.36,2.16-.82,3.16-.4.83-1.02,1.53-1.8,2.02" style="fill:#fff;"/><path id="Path_1417" d="m389.54,49.82l1.52-7.44-33.78-6.76-9.13,45.59,34.77,6.96,1.48-7.42-26.04-5.21,2.43-12.13,23.39,4.69,1.49-7.46-23.39-4.68,2.23-11.15,25.03,5.01Z" style="fill:#fff;"/><path id="Path_1418" d="m442.85,59.76c-2.04-1.52-4.29-2.75-6.67-3.66-2.18-.89-4.46-1.47-6.8-1.72-2-.22-4.02-.1-5.97.34-1.74.4-3.37,1.18-4.78,2.27-1.38,1.08-2.49,2.47-3.24,4.05-.24.47-.44.96-.6,1.47-.15.5-.29.99-.42,1.48-.48,1.67-.53,3.44-.12,5.13.46,1.6,1.24,3.08,2.3,4.36,1.26,1.52,2.69,2.9,4.27,4.1,1.72,1.34,3.66,2.75,5.8,4.24,1.46,1.05,2.72,2,3.78,2.86.93.72,1.78,1.55,2.5,2.48.56.68.96,1.49,1.15,2.35.16.82.07,1.68-.26,2.45-.34.9-.92,1.7-1.67,2.31-.77.59-1.67.99-2.63,1.17-1.13.21-2.29.22-3.43.03-1.39-.21-2.75-.59-4.05-1.12-1.39-.55-2.7-1.27-3.9-2.16-1.06-.78-1.98-1.75-2.7-2.86-.69-1.05-1.13-2.24-1.31-3.48-.17-1.35-.05-2.73.37-4.03l-7.95-3.16c-1.7,4.3-1.42,9.14.78,13.21,2.92,4.41,7.25,7.69,12.28,9.31,2.33.95,4.79,1.57,7.29,1.84,2.18.24,4.39.08,6.52-.46,1.94-.51,3.75-1.45,5.28-2.74,1.57-1.36,2.78-3.09,3.51-5.04.59-1.43.94-2.94,1.03-4.49.05-1.31-.15-2.62-.58-3.85-.44-1.22-1.09-2.37-1.91-3.37-.9-1.09-1.89-2.12-2.95-3.05-1.17-1.02-2.4-1.98-3.69-2.86-1.32-.91-2.7-1.85-4.08-2.8-1.52-1.02-2.78-1.94-3.78-2.76-.86-.68-1.65-1.45-2.36-2.29-.51-.6-.86-1.31-1.02-2.08-.1-.75,0-1.52.31-2.21.29-.79.8-1.48,1.46-2,.68-.53,1.48-.9,2.33-1.08,1.02-.19,2.07-.22,3.1-.06,1.28.19,2.53.53,3.73,1.02,5.65,2.24,7.8,5.65,6.48,10.22l8.05,3.2c.71-1.98.98-4.08.8-6.17-.2-1.98-.83-3.89-1.87-5.6-1.14-1.85-2.62-3.47-4.37-4.77" style="fill:#fff;"/><path id="Path_1419" d="m401.49,57.79c1.04-1.07,1.76-2.41,2.07-3.87l-2.27-.65-1.04,5.13c.45-.1.88-.31,1.24-.6" style="fill:#fff;"/><path id="Path_1420" d="m408.08,54.6c-.4,1.48-1.01,2.9-1.82,4.21-.64,1.03-1.48,1.9-2.49,2.57-.93.6-1.99.96-3.09,1.05-.41.03-.82.03-1.24,0l-.43,2.13,6.16,1.24,5.45-19.75-7.59-1.53-.2,1,7.25,2.1-2.01,6.98Z" style="fill:#fff;"/><path id="Path_1421" d="m401.49,57.76c-.36.3-.78.5-1.24.6l-.8,4.02c.41.04.82.05,1.24.03,1.1-.09,2.16-.45,3.09-1.05,1-.67,1.85-1.55,2.49-2.57.81-1.31,1.42-2.73,1.82-4.22l2.01-7.02-7.24-2.08-1.55,7.75,2.27.65c-.31,1.46-1.03,2.8-2.07,3.87" style="fill:#fff;"/><path id="Path_1422" d="m549.94,626.59l-65.6-31.98c-.36-.17-.8-.01-.97.35-.03.06-.05.12-.06.19-4.73,26.37-16.9,50.84-35.08,70.53-.27.29-.72.3-1.01.03-.03-.02-.05-.05-.07-.08l-9.26-10.58c-.25-.3-.7-.34-1-.09,0,0-.01,0-.02.01-6.57,5.88-73.78,64.03-163.76,64.03s-151.51-58.37-158.04-64.77c-.29-.27-.75-.26-1.02.03-.02.02-.04.04-.06.07l-7.92,10.43c-.24.33-.71.4-1.04.16-.01,0-.03-.02-.04-.03-20.03-16.86-35.5-67.01-37.6-74.08-.12-.38-.52-.59-.91-.48-.04.01-.08.03-.12.05L.4,624.03c-.32.17-.48.54-.38.89,13.85,43.2,36.54,83.05,66.62,117,.26.28.71.3.99.03.01-.01.02-.02.03-.03l11.54-11.49c.27-.29.72-.31,1.01-.04.01.01.03.03.04.04,5.89,6.57,65.02,68.96,189.74,68.96s196-59.62,202.89-65.67c.29-.26.74-.23,1,.07.01.02.03.03.04.05l6.98,8.87c.26.31.71.37,1.04.13,46.96-36,66.57-108.37,68.39-115.44.08-.33-.09-.67-.39-.82m-509.21,67.62c-.96-.07-1.85-.55-2.44-1.31l-1.86-2.39c-1.16-1.53-1.02-3.68.31-5.06l39.43-39.4-39.48,37.26c-.69.7-1.69,1.02-2.67.85-.97-.19-1.79-.84-2.2-1.74-.09-.19-8.81-18.35-14.7-28.17-5.38-8.11-8.85-17.33-10.17-26.97l-.08-1.08,52.48-27.08c1.72-.86,3.82-.33,4.91,1.26,2.47,4.48,4.24,9.32,5.25,14.34,2.78,8.32,6.02,16.47,9.72,24.42.71,1.69.33,3.65-.97,4.94l-1.11,1.05c1.24-1.2,3.22-1.16,4.42.09.15.16.29.34.41.52l1.73,2.66c.99,1.6.77,3.68-.54,5.03l-39.86,39.77c-.63.63-1.49.99-2.39,1h-.2m8.67,7.25c-.62.62-1.45.97-2.33.97h-.28c-.96-.09-1.83-.6-2.39-1.39l-1.54-2.16c-1.08-1.57-.9-3.68.43-5.05l40.33-40.25c.69-.7,1.64-1.05,2.62-.97.97.11,1.83.66,2.35,1.48l1.74,2.66c1,1.6.78,3.68-.54,5.03l-40.4,39.69Zm429.35,13c-57.28,49.16-130.15,76.4-205.64,76.87-74.1.22-145.5-27.85-199.61-78.48-.71-.78-.71-1.98,0-2.77l39.01-41.89c.72-.76,1.91-.82,2.7-.13,0,0,68.71,61.28,157.91,61.28s163.08-58.94,163.08-58.94c.85-.64,2.05-.56,2.81.19l39.8,41.18c.73.76.71,1.96-.05,2.69,0,0,0,0,0,0m29.76-10.57l-1.54,2.16c-.56.79-1.43,1.3-2.39,1.4h-.28c-.88,0-1.72-.36-2.34-.99l-40.4-39.7c-1.31-1.35-1.53-3.43-.54-5.03l1.74-2.66c.52-.82,1.39-1.36,2.35-1.47.97-.08,1.93.27,2.61.96l40.33,40.26c1.32,1.37,1.5,3.48.43,5.05m35.91-71.57c-1.32,9.65-4.8,18.87-10.18,26.99-5.89,9.82-14.62,27.99-14.71,28.16-.4.89-1.2,1.55-2.16,1.75-.18.03-.36.05-.54.05-.81-.01-1.58-.34-2.16-.91l-39.4-37.21,39.4,39.33c1.34,1.37,1.48,3.53.32,5.06l-1.86,2.39c-.59.77-1.48,1.25-2.44,1.31h-.2c-.9,0-1.75-.37-2.39-1l-39.86-39.75c-1.31-1.36-1.53-3.43-.54-5.04l1.74-2.66c.9-1.47,2.82-1.92,4.28-1.02.19.11.36.25.52.4l-1.08-1.03c-1.3-1.3-1.68-3.25-.97-4.94,3.69-7.95,6.93-16.11,9.72-24.42,1-5.02,2.77-9.86,5.25-14.34,1.09-1.59,3.18-2.13,4.9-1.26l52.49,27.06-.13,1.08Z" style="fill:#fff;"/><path id="Path_1423" d="m487.09,605.4c-2.47,4.49-4.24,9.33-5.25,14.36-2.78,8.31-6.02,16.46-9.72,24.41-.71,1.7-.32,3.65.97,4.95l1.08,1.03c.06.03.11.07.17.1l.87.87,39.4,37.21c.58.56,1.35.88,2.16.89.18,0,.36-.01.54-.04.97-.2,1.79-.85,2.2-1.76.09-.17,8.81-18.35,14.71-28.15,5.37-8.11,8.85-17.32,10.17-26.95l.08-1.08-52.48-27.08c-1.72-.85-3.81-.31-4.91,1.26m45.7,53.01c-6,10.01-14.78,28.31-14.78,28.31-.26.67-1.01,1.01-1.68.76-.2-.07-.37-.2-.51-.35l-41.56-39.22c-.77-.81-1.01-2-.59-3.04,3.73-8.04,7-16.29,9.8-24.7.96-4.83,2.65-9.49,5.01-13.81.62-.88,1.79-1.18,2.75-.71l51.5,26.56c-1.29,9.38-4.7,18.34-9.95,26.21" style="fill:#fff;"/><path id="Path_1424" d="m488.47,606.34c-2.36,4.32-4.05,8.98-5.01,13.81-2.8,8.42-6.06,16.67-9.79,24.71-.42,1.04-.18,2.23.59,3.03l41.56,39.22c.47.54,1.3.6,1.84.12.16-.14.29-.32.36-.53,0,0,8.78-18.3,14.78-28.3,5.25-7.88,8.65-16.84,9.94-26.21l-51.53-26.54c-.97-.47-2.13-.17-2.75.71m42.87,51.21c-5.49,9.18-13.38,25.37-14.68,28.07l-41.25-38.96c-.26-.31-.34-.74-.22-1.12,3.77-8.14,7.06-16.48,9.87-25,.93-4.64,2.55-9.12,4.79-13.28.1-.12.25-.19.4-.19.06,0,.12.01.17.04l50.54,26.06c-1.49,8.7-4.76,17-9.62,24.37" style="fill:#fff;"/><path id="Path_1425" d="m471.75,649.29c-.97.11-1.83.66-2.35,1.48l-1.73,2.65c-1,1.61-.77,3.68.54,5.04l39.88,39.75c.63.63,1.48.99,2.37,1h.21c.96-.07,1.85-.54,2.43-1.31l1.87-2.39c1.16-1.53,1.02-3.68-.32-5.05l-39.4-39.34-1.03-.98c-.67-.61-1.56-.92-2.46-.85m41.87,45.18l-1.86,2.39c-.52.73-1.53.89-2.26.37-.09-.06-.17-.14-.24-.22l-39.9-39.75c-.74-.8-.86-2-.3-2.93l1.74-2.66c.41-.71,1.31-.95,2.02-.54.14.08.26.18.37.3l40.24,40.19c.74.78.81,1.98.18,2.84" style="fill:#fff;"/><path id="Path_1426" d="m474.2,650.13l1.03.98-.87-.87s-.11-.05-.16-.1" style="fill:#fff;"/><path id="Path_1427" d="m473.18,651.44c-.55-.61-1.49-.66-2.1-.11-.11.1-.21.22-.29.36l-1.73,2.66c-.57.93-.45,2.13.3,2.93l39.88,39.75c.61.66,1.63.7,2.29.09.08-.07.15-.16.22-.24l1.86-2.39c.64-.87.57-2.07-.18-2.84l-40.24-40.19Zm39.1,42.01l-1.87,2.39-39.88-39.74c-.18-.24-.21-.56-.09-.83l1.66-2.53,40.12,40.08c.15.18.17.43.05.63" style="fill:#fff;"/><path id="Path_1428" d="m467.73,658.56c-.69-.69-1.64-1.04-2.61-.96-.97.11-1.83.65-2.35,1.48l-1.74,2.65c-1,1.61-.77,3.68.54,5.04l40.4,39.7c.61.62,1.45.97,2.32.97h.28c.96-.1,1.84-.61,2.39-1.4l1.54-2.16c1.07-1.57.9-3.68-.43-5.04l-40.33-40.27Zm39.4,44.34l-1.54,2.16c-.47.73-1.45.93-2.17.46-.11-.07-.2-.15-.29-.24l-40.38-39.7c-.75-.79-.88-1.99-.31-2.92l1.73-2.66c.42-.7,1.33-.93,2.04-.51.12.07.23.16.32.26l40.33,40.26c.74.79.84,1.99.24,2.89" style="fill:#fff;"/><path id="Path_1429" d="m466.56,659.75c-.55-.61-1.49-.66-2.1-.1-.11.1-.21.22-.28.35l-1.74,2.66c-.56.93-.43,2.13.32,2.92l40.4,39.74c.6.63,1.6.65,2.23.05.09-.08.17-.18.23-.28l1.54-2.16c.6-.9.5-2.1-.24-2.89l-40.35-40.27Zm39.22,42.18l-1.45,2.16-40.4-39.7c-.18-.23-.21-.54-.09-.81l1.65-2.53,40.22,40.15c.17.21.19.5.06.73" style="fill:#fff;"/><path id="Path_1430" d="m77.15,645.14l1.08-1.05c1.3-1.3,1.69-3.26.97-4.95-3.69-7.95-6.93-16.11-9.72-24.42-.99-5.02-2.76-9.86-5.25-14.34-1.09-1.59-3.19-2.14-4.91-1.27l-52.44,27.07.08,1.08c1.33,9.64,4.81,18.85,10.18,26.95,5.9,9.83,14.62,27.99,14.71,28.17.41.9,1.22,1.55,2.2,1.74.18.04.36.05.54.05.81,0,1.58-.33,2.16-.9l39.46-37.24.82-.81s.1-.05.15-.09m-41.56,36.96c-.48.54-1.31.59-1.85.1-.16-.14-.28-.31-.35-.51,0,0-8.83-18.3-14.83-28.31-5.25-7.88-8.65-16.84-9.95-26.21l51.51-26.57c.96-.47,2.12-.17,2.74.71,2.37,4.33,4.06,8.99,5.02,13.82,2.8,8.41,6.07,16.66,9.79,24.7.42,1.04.19,2.23-.59,3.03l-41.49,39.23Z" style="fill:#fff;"/><path id="Path_1431" d="m77.69,639.83c-3.72-8.04-6.98-16.29-9.77-24.7-.96-4.83-2.65-9.5-5.01-13.82-.62-.88-1.79-1.17-2.75-.71l-51.51,26.57c1.3,9.38,4.7,18.34,9.95,26.21,6,10.01,14.79,28.3,14.79,28.3.26.68,1.02,1.01,1.69.75.19-.07.37-.19.51-.35l41.56-39.22c.78-.81,1.01-1.99.59-3.03m-1.74,1.82l-41.28,38.95c-1.26-2.62-9.18-18.89-14.68-28.07-4.86-7.38-8.13-15.68-9.61-24.39l50.49-26.05c.2-.09.44-.03.58.14,2.23,4.18,3.84,8.65,4.78,13.29,2.82,8.52,6.13,16.87,9.91,25,.12.39.03.81-.23,1.12" style="fill:#fff;"/><path id="Path_1432" d="m83.18,653.43c1.31-1.35,1.53-3.43.54-5.03l-1.73-2.66c-.91-1.47-2.83-1.92-4.3-1.02-.19.12-.36.25-.52.41l-.96.91-39.43,39.4c-1.34,1.38-1.47,3.53-.31,5.06l1.86,2.39c.59.76,1.47,1.24,2.43,1.31h.21c.89,0,1.75-.36,2.37-1l39.86-39.77Zm-43.57,38.41l-1.86-2.39c-.63-.86-.56-2.06.18-2.83l40.24-40.2c.55-.61,1.49-.66,2.1-.1.11.1.21.22.28.35l1.74,2.66c.56.94.43,2.13-.31,2.93l-39.86,39.76c-.63.66-1.68.68-2.34.04-.07-.06-.13-.13-.18-.2" style="fill:#fff;"/><path id="Path_1433" d="m77,645.23l-.81.81.96-.91s-.1.05-.15.09" style="fill:#fff;"/><path id="Path_1434" d="m82.3,649.32l-1.74-2.66c-.41-.71-1.32-.95-2.03-.53-.13.08-.25.18-.36.29l-40.24,40.19c-.74.78-.81,1.98-.18,2.84l1.86,2.39c.52.73,1.53.9,2.26.38.09-.07.18-.14.26-.23l39.86-39.75c.75-.8.88-1.99.31-2.93m-1.49,1.74l-39.89,39.75-1.86-2.39c-.11-.2-.09-.45.05-.63l40.03-40.24v.03l1.73,2.66c.13.27.1.59-.09.82" style="fill:#fff;"/><path id="Path_1435" d="m90.34,656.7l-1.74-2.65c-.52-.83-1.38-1.37-2.35-1.48-.97-.09-1.93.26-2.61.96l-40.33,40.27c-1.32,1.37-1.5,3.48-.43,5.05l1.54,2.16c.55.8,1.43,1.31,2.39,1.4h.28c.87,0,1.71-.35,2.33-.97l40.4-39.7c1.32-1.36,1.54-3.44.54-5.04m-1.72,3.84l-40.38,39.7c-.59.63-1.57.66-2.2.08-.09-.09-.18-.19-.25-.29l-1.54-2.16c-.6-.9-.5-2.1.24-2.89l40.33-40.26c.56-.61,1.5-.66,2.11-.1.11.1.2.21.28.34l1.73,2.66c.57.93.44,2.13-.31,2.92" style="fill:#fff;"/><path id="Path_1436" d="m87.19,654.97c-.41-.71-1.31-.95-2.02-.54-.14.08-.26.18-.37.3l-40.33,40.26c-.74.79-.84,1.99-.24,2.89l1.53,2.16c.48.73,1.47.92,2.19.44.1-.06.19-.14.27-.23l40.4-39.7c.75-.79.88-1.99.31-2.92l-1.75-2.67Zm.25,4.38l-40.32,39.7-1.53-2.16c-.13-.23-.11-.51.05-.72l40.12-40.31h0l1.73,2.66c.13.26.1.58-.09.81" style="fill:#fff;"/><path id="Path_1437" d="m131.07,711.33l-5.94,7.63-8.36-6.48,5.94-7.62-3.7-2.88-15.05,19.36,3.7,2.88,6.68-8.6,8.36,6.48-6.68,8.6,3.71,2.88,15.04-19.36-3.7-2.89Z" style="fill:#fff;"/><rect id="Rectangle_338" x="121.41" y="725.16" width="24.53" height="4.69" transform="translate(-559.1 468.31) rotate(-59.08)" style="fill:#fff;"/><path id="Path_1438" d="m149.21,739.17l5.02,2.35-1.29,2.75c-1,.49-2.12.71-3.24.64-1.25-.1-2.47-.44-3.6-.99-.92-.42-1.75-1.02-2.43-1.76-.63-.7-1.08-1.55-1.32-2.46-.25-1.01-.3-2.06-.14-3.08.41-2.49,1.5-4.82,3.15-6.74.69-.77,1.52-1.41,2.44-1.87.84-.41,1.76-.61,2.7-.59.99.03,1.96.27,2.86.71.73.33,1.41.76,2.02,1.27.53.43.97.95,1.31,1.54.3.54.49,1.13.54,1.74.05.63-.04,1.26-.26,1.86l4.25,2c.41-1.14.58-2.35.5-3.55-.08-1.15-.4-2.28-.93-3.31-.57-1.09-1.34-2.07-2.26-2.89-1.05-.93-2.24-1.7-3.51-2.29-1.52-.75-3.17-1.18-4.86-1.26-1.53-.07-3.05.19-4.46.76-1.43.62-2.71,1.52-3.78,2.65-1.2,1.27-2.18,2.73-2.91,4.32-.78,1.62-1.28,3.36-1.47,5.14-.15,1.56.02,3.14.5,4.64.49,1.44,1.28,2.76,2.32,3.87,1.14,1.2,2.5,2.16,4,2.84,1.31.65,2.72,1.06,4.17,1.23,1.21.12,2.43-.02,3.58-.43l-.29,2.24,2.7,1.26,5.42-11.58-9.18-4.32-1.55,3.31Z" style="fill:#fff;"/><path id="Path_1439" d="m179.15,744.53l-10.06-3.31,3.03-9.18-4.46-1.48-7.7,23.29,4.46,1.47,3.42-10.35,10.06,3.32-3.42,10.35,4.46,1.47,7.7-23.28-4.46-1.47-3.03,9.16Z" style="fill:#fff;"/><path id="Path_1440" d="m214.11,744.5c-.76-.85-1.68-1.54-2.7-2.05-1.2-.6-2.49-1.03-3.82-1.26-1.21-.25-2.46-.34-3.69-.24-1.06.08-2.1.34-3.07.76-.86.37-1.63.92-2.26,1.62-.61.69-1.05,1.52-1.29,2.41-.08.27-.14.55-.17.83-.04.26-.06.53-.08.8-.1.92.05,1.85.43,2.7.39.79.94,1.48,1.62,2.03.8.68,1.68,1.25,2.61,1.72,1.02.54,2.16,1.08,3.41,1.62.86.39,1.62.77,2.24,1.11.56.28,1.07.63,1.54,1.05.36.3.64.68.83,1.11.15.41.19.86.09,1.29-.09.5-.31.98-.65,1.37-.34.38-.76.67-1.24.85-.57.21-1.17.33-1.78.36-.74.01-1.48-.05-2.2-.2-.77-.14-1.52-.39-2.22-.73-.63-.3-1.21-.72-1.69-1.23-.46-.47-.8-1.04-1.01-1.67-.22-.69-.29-1.42-.2-2.13l-4.43-.87c-.47,2.39.15,4.87,1.68,6.77,1.94,2,4.49,3.28,7.25,3.64,1.3.27,2.64.36,3.97.25,1.15-.09,2.28-.38,3.34-.87.96-.45,1.81-1.11,2.48-1.93.69-.86,1.15-1.88,1.34-2.96.17-.8.2-1.62.09-2.42-.1-.68-.33-1.34-.67-1.94-.37-.59-.83-1.1-1.37-1.53-.57-.48-1.18-.92-1.82-1.3-.7-.42-1.42-.79-2.16-1.12l-2.39-1.08c-.87-.38-1.62-.72-2.22-1.08-.51-.27-1-.59-1.45-.96-.32-.25-.58-.57-.76-.93-.12-.38-.14-.79-.05-1.18.07-.43.26-.84.54-1.18.3-.34.68-.61,1.11-.77.52-.2,1.06-.32,1.62-.33.68-.03,1.37.02,2.03.17,3.14.62,4.59,2.16,4.32,4.68l4.47.87c.18-1.1.12-2.22-.18-3.3-.27-1.01-.77-1.95-1.45-2.75" style="fill:#fff;"/><path id="Path_1441" d="m223.66,753.01c.39-.95.96-1.81,1.68-2.54.65-.65,1.44-1.13,2.31-1.41.9-.28,1.85-.36,2.79-.24.73.07,1.45.25,2.13.54.59.26,1.13.62,1.58,1.08.43.44.77.97.99,1.54.23.61.35,1.26.36,1.92l4.7.54c.03-1.26-.17-2.51-.6-3.69-.46-1.19-1.2-2.25-2.16-3.09-.84-.81-1.81-1.47-2.88-1.93-1.17-.49-2.4-.8-3.66-.94-1.6-.22-3.23-.12-4.8.28-1.47.4-2.83,1.12-3.98,2.11-2.45,2.32-3.93,5.47-4.17,8.83-.24,1.76-.2,3.55.13,5.29.3,1.54.92,3,1.82,4.29.87,1.23,2.02,2.25,3.35,2.97,1.44.75,3,1.23,4.61,1.4,1.32.18,2.66.16,3.98-.06,1.19-.22,2.33-.67,3.36-1.31,1.01-.64,1.87-1.49,2.52-2.5.69-1.1,1.18-2.31,1.47-3.58l-4.66-.54c-.26,1.34-1.03,2.53-2.16,3.31-1.22.72-2.65.99-4.04.74-.94-.1-1.86-.4-2.67-.9-.77-.47-1.42-1.13-1.88-1.91-.51-.88-.84-1.86-.99-2.87-.19-1.24-.2-2.5-.03-3.74.14-1.25.45-2.47.92-3.64" style="fill:#fff;"/><path id="Path_1442" d="m258.78,757.18l-10.57-.54.54-9.65-4.69-.25-1.32,24.49,4.69.25.58-10.88,10.56.54-.57,10.88,4.68.25,1.32-24.49-4.69-.25-.53,9.65Z" style="fill:#fff;"/><path id="Path_1443" d="m287.19,750.81c-1.04-1.1-2.31-1.97-3.71-2.54-3.11-1.2-6.57-1.18-9.66.07-1.4.59-2.66,1.48-3.69,2.6-1.05,1.17-1.84,2.53-2.34,4.02-.57,1.68-.83,3.44-.78,5.21-.01,1.76.28,3.5.87,5.15.52,1.48,1.34,2.83,2.4,3.98,1.05,1.11,2.33,1.98,3.75,2.54,3.14,1.18,6.6,1.15,9.72-.09,1.4-.59,2.65-1.49,3.66-2.63,1.03-1.17,1.81-2.54,2.3-4.02.54-1.67.8-3.41.76-5.17,0-1.77-.29-3.53-.89-5.19-.52-1.48-1.34-2.83-2.4-3.98m-1.95,12.71c-.27.99-.72,1.93-1.34,2.76-.57.76-1.31,1.38-2.16,1.82-.9.45-1.9.68-2.91.67-1,.02-1.98-.19-2.88-.62-.85-.42-1.6-1.02-2.2-1.76-.64-.81-1.12-1.74-1.41-2.73-.35-1.13-.53-2.31-.54-3.5-.02-1.2.12-2.39.44-3.54.28-1,.74-1.93,1.37-2.75.57-.76,1.31-1.38,2.16-1.81.91-.45,1.92-.68,2.93-.67,1-.03,2,.18,2.9.62.84.42,1.58,1.03,2.16,1.77.62.82,1.09,1.74,1.38,2.73.33,1.14.49,2.32.49,3.5.03,1.18-.12,2.36-.43,3.5" style="fill:#fff;"/><path id="Path_1444" d="m312.69,749.26c-1.11-1.03-2.43-1.81-3.86-2.29-1.57-.51-3.22-.69-4.86-.54-1.66.1-3.29.53-4.78,1.27-1.36.68-2.56,1.65-3.51,2.83-.97,1.23-1.67,2.65-2.07,4.17-.86,3.44-.6,7.06.76,10.34.61,1.44,1.51,2.74,2.65,3.82,1.12,1.04,2.45,1.83,3.91,2.31,3.21.99,6.68.73,9.72-.72,1.35-.7,2.53-1.68,3.47-2.88.95-1.24,1.64-2.66,2.03-4.17.44-1.7.58-3.46.43-5.2-.11-1.77-.52-3.5-1.21-5.13-.61-1.44-1.51-2.74-2.65-3.82m-1.14,12.81c-.2,1.01-.6,1.97-1.16,2.83-1.09,1.67-2.92,2.71-4.91,2.81-1.97.18-3.91-.59-5.23-2.06-.69-.77-1.22-1.66-1.58-2.63-.41-1.11-.66-2.28-.73-3.46-.1-1.19-.02-2.39.23-3.56.21-1.01.61-1.97,1.18-2.83.53-.8,1.23-1.46,2.06-1.94.88-.5,1.86-.79,2.87-.85,1-.09,2.01.05,2.94.43.87.36,1.65.92,2.28,1.62.68.77,1.21,1.67,1.55,2.64.4,1.12.64,2.28.72,3.47.1,1.18.03,2.37-.22,3.52" style="fill:#fff;"/><path id="Path_1445" d="m325.91,765.14l-2.8-20.25-4.65.64,3.35,24.29,15.74-2.16-.54-4.04-11.11,1.52Z" style="fill:#fff;"/><path id="Path_1446" d="m362.62,737.26l-19.04,4.44.91,3.95,7.21-1.67,4.65,19.93,4.57-1.08-4.65-19.92,7.26-1.69-.91-3.95Z" style="fill:#fff;"/><path id="Path_1447" d="m370.28,734.91l-1.08,26.03,4.47-1.4.17-6.62,8.73-2.74,4,5.32,4.7-1.48-16.12-20.64-4.88,1.54Zm3.5,14.08l.13-10.96,6.48,8.88-6.61,2.07Z" style="fill:#fff;"/><path id="Path_1448" d="m406.37,737.57c-.85-.46-1.82-.66-2.78-.58l-.03-.05c1.27-.84,2.23-2.08,2.74-3.51.43-1.46.31-3.03-.34-4.4-.52-1.38-1.47-2.57-2.7-3.39-.54-.38-1.15-.65-1.79-.79-.64-.13-1.3-.17-1.95-.12-.73.08-1.46.22-2.16.44-.82.24-1.62.53-2.4.87l-10.06,4.18,9.45,22.63,4.32-1.8-3.72-8.95,4.21-1.74c.49-.22,1.01-.34,1.54-.37,1.02-.04,2.02.25,2.87.83.45.31.86.67,1.23,1.08l4.32,4.8,4.65-1.93-4.72-5.04c-.78-.85-1.69-1.58-2.7-2.16m-4.63-3.39c-.27.46-.64.86-1.08,1.17-.6.41-1.24.75-1.91,1.02l-5.27,2.16-2.8-6.74,5.62-2.33c1.03-.52,2.2-.68,3.34-.45.97.34,1.72,1.12,2.03,2.09.23.53.37,1.09.4,1.67.02.48-.1.96-.34,1.39" style="fill:#fff;"/><path id="Path_1449" d="m419.88,737.1l-3.09-5.76,11.08-5.94-1.89-3.54-11.08,5.96-2.83-5.28,11.87-6.38-1.89-3.52-16,8.59,11.63,21.59,16.46-8.86-1.89-3.5-12.35,6.63Z" style="fill:#fff;"/><path id="Path_1450" d="m440.08,725.32l-3.71-5.4,10.35-7.15-2.28-3.29-10.34,7.15-3.42-4.94,11.07-7.66-2.27-3.29-14.93,10.33,13.95,20.16,15.38-10.64-2.26-3.28-11.52,7.99Z" style="fill:#fff;"/><path id="Path_1451" d="m104.44,862.09l.93-38.59-7.02-2.83-25.56,28.68,6.42,2.58,6.38-7.39,12.51,5.04-.4,9.8,6.74,2.71Zm-15.25-22.1l10.38-12.37-.9,16.19-9.49-3.82Z" style="fill:#fff;"/><path id="Path_1452" d="m119.83,829.01l-11.23,34.34,22.26,7.29,1.89-5.72-15.69-5.13,9.36-28.63-6.59-2.15Z" style="fill:#fff;"/><path id="Path_1453" d="m145.64,837.27l-9.29,34.93,22.64,6.01,1.54-5.8-15.95-4.24,7.75-29.11-6.69-1.78Z" style="fill:#fff;"/><path id="Path_1454" d="m208.61,857.17l1.04-5.81-24.79-4.43-6.35,35.58,6.8,1.21,2.59-14.52,15.43,2.76,1.05-5.81-15.44-2.75,1.68-9.44,17.99,3.21Z" style="fill:#fff;"/><path id="Path_1455" d="m218.54,888.17c2.16,1.17,4.53,1.89,6.97,2.13,2.44.32,4.92.13,7.28-.54,2.15-.63,4.14-1.72,5.82-3.2,1.71-1.53,3.1-3.4,4.07-5.48,1.09-2.34,1.78-4.85,2.03-7.43.32-2.59.19-5.21-.38-7.76-.5-2.25-1.46-4.37-2.82-6.24-1.33-1.8-3.03-3.29-4.98-4.37-4.36-2.29-9.42-2.85-14.17-1.57-2.16.62-4.16,1.7-5.86,3.17-1.74,1.52-3.14,3.38-4.13,5.46-1.11,2.36-1.81,4.89-2.06,7.48-.32,2.57-.2,5.17.37,7.7.5,2.26,1.45,4.38,2.81,6.26,1.35,1.81,3.06,3.3,5.04,4.38m-1.16-17.55c.17-1.75.61-3.47,1.28-5.1.58-1.41,1.42-2.69,2.48-3.78.99-1.01,2.19-1.78,3.51-2.26,1.41-.48,2.91-.63,4.39-.45,2.91.26,5.52,1.89,7.02,4.4.77,1.3,1.29,2.74,1.53,4.24.28,1.73.32,3.48.1,5.22-.17,1.74-.59,3.44-1.25,5.05-.58,1.4-1.41,2.68-2.45,3.78-.98,1.01-2.17,1.79-3.5,2.27-1.4.5-2.9.66-4.37.47-1.46-.13-2.87-.61-4.1-1.4-1.18-.76-2.17-1.78-2.9-2.98-.8-1.3-1.35-2.74-1.62-4.25-.3-1.72-.34-3.47-.13-5.2" style="fill:#fff;"/><path id="Path_1456" d="m275.07,879c-.85-1.15-2.02-2.02-3.36-2.52v-.09c2.22-.34,4.26-1.38,5.83-2.98,1.48-1.69,2.29-3.86,2.27-6.1.14-2.17-.37-4.33-1.49-6.2-.5-.84-1.15-1.57-1.92-2.16-.77-.58-1.63-1.04-2.54-1.35-1.02-.36-2.07-.62-3.14-.76-1.14-.16-2.39-.26-3.74-.32l-16.04-.63-1.41,36.11,6.91.26.54-14.28,6.72.26c1.53.04,3,.61,4.16,1.62.57.5,1.05,1.09,1.44,1.74.41.7.74,1.43.98,2.2l2.82,9.11,7.43.29-3.21-9.67c-.52-1.62-1.29-3.15-2.27-4.54m-6.28-6.52c-1.04.18-2.1.24-3.16.19l-8.41-.34.43-10.72,8.96.35c1.7-.06,3.38.46,4.75,1.47,1.08,1.05,1.61,2.55,1.43,4.04-.01.85-.18,1.7-.5,2.49-.28.66-.73,1.23-1.31,1.65-.66.45-1.4.74-2.19.87" style="fill:#fff;"/><path id="Path_1457" d="m321.61,884.48c-1.57,1.37-3.57,2.13-5.65,2.16-1.39.12-2.8-.08-4.11-.57-1.25-.47-2.36-1.24-3.24-2.25-.98-1.14-1.74-2.46-2.23-3.88-.61-1.74-.98-3.56-1.08-5.4-.15-1.85-.03-3.71.34-5.52.31-1.48.89-2.89,1.73-4.15.76-1.11,1.77-2.02,2.95-2.67,1.23-.65,2.59-1.03,3.98-1.11,1.09-.08,2.18,0,3.24.24.93.22,1.8.61,2.59,1.14.75.52,1.38,1.19,1.86,1.97.51.83.86,1.74,1.05,2.7l6.95-.46c-.29-1.83-.93-3.59-1.87-5.18-1-1.58-2.36-2.91-3.96-3.88-1.44-.95-3.03-1.62-4.71-2-1.83-.39-3.7-.51-5.56-.37-2.38.13-4.72.71-6.88,1.72-2.02.97-3.79,2.39-5.18,4.15-2.91,4.02-4.2,8.99-3.62,13.91.13,2.62.68,5.2,1.62,7.64.85,2.15,2.15,4.1,3.81,5.71,1.6,1.55,3.54,2.71,5.66,3.38,2.28.7,4.68.96,7.06.76,1.96-.1,3.9-.5,5.75-1.18,1.67-.65,3.2-1.6,4.51-2.82,1.3-1.2,2.31-2.67,2.96-4.32.7-1.78,1.08-3.67,1.14-5.59l-6.9.46c-.01,2.02-.82,3.96-2.25,5.4" style="fill:#fff;"/><path id="Path_1458" d="m355.68,851.02l2.07,14.09-15.43,2.26-2.07-14.08-6.84,1.01,5.27,35.75,6.84-1.01-2.35-15.87,15.43-2.27,2.34,15.87,6.84-1.01-5.26-35.75-6.84,1.01Z" style="fill:#fff;"/><path id="Path_1459" d="m397.3,865.11c-1.12-.89-2.48-1.44-3.9-1.58v-.08c2.05-.9,3.75-2.44,4.86-4.39,1-2.01,1.22-4.32.62-6.48-.42-2.14-1.48-4.1-3.04-5.61-.7-.68-1.52-1.21-2.41-1.58-.89-.36-1.84-.59-2.8-.66-1.08-.08-2.16-.05-3.24.09-1.24.15-2.48.37-3.7.65l-15.65,3.54,7.94,35.25,6.75-1.52-3.14-13.96,6.56-1.48c.76-.18,1.55-.22,2.33-.14.73.09,1.44.31,2.1.63.68.33,1.3.78,1.84,1.31.58.56,1.09,1.19,1.52,1.87l5.08,8.1,7.24-1.62-5.59-8.51c-.92-1.43-2.05-2.72-3.36-3.81m-5.02-8.03c-.09.71-.38,1.37-.84,1.92-.52.6-1.16,1.09-1.88,1.41-.96.45-1.97.78-3.01,1l-8.21,1.85-2.36-10.48,8.75-1.97c1.63-.49,3.38-.42,4.97.2,1.31.74,2.21,2.04,2.42,3.54.21.83.27,1.69.16,2.54" style="fill:#fff;"/><rect id="Rectangle_339" x="406.86" y="839.27" width="6.92" height="36.13" transform="translate(-215.36 141.86) rotate(-15.59)" style="fill:#fff;"/><path id="Path_1460" d="m448.39,849.54c-.63-.8-1.4-1.48-2.27-2.01-.88-.5-1.83-.86-2.83-1.05-1.08-.2-2.18-.32-3.28-.34-1.2-.03-2.4.01-3.6.13-1.25.11-2.53.24-3.84.37-1.41.15-2.62.24-3.63.24-.85.03-1.71-.03-2.55-.17-.6-.1-1.17-.35-1.65-.73-.44-.4-.75-.9-.92-1.47-.22-.62-.26-1.28-.13-1.92.14-.66.44-1.27.86-1.79.51-.64,1.13-1.19,1.82-1.62.85-.53,1.77-.96,2.73-1.26,4.48-1.49,7.47-.54,8.97,2.84l6.38-2.12c-.57-1.54-1.46-2.93-2.62-4.1-1.11-1.08-2.44-1.9-3.91-2.39-1.61-.54-3.3-.76-4.99-.66-1.98.12-3.93.5-5.8,1.15-1.74.55-3.4,1.35-4.91,2.37-1.3.87-2.45,1.95-3.39,3.2-.83,1.11-1.41,2.38-1.71,3.73-.35,1.75-.19,3.57.46,5.23.15.37.32.73.49,1.08.55,1.24,1.41,2.31,2.5,3.11,1.07.73,2.28,1.23,3.55,1.46,1.51.28,3.05.37,4.59.29,1.69-.05,3.55-.19,5.58-.37,1.39-.1,2.62-.17,3.68-.2.92-.03,1.83.04,2.73.22.68.14,1.31.44,1.86.86.51.42.89.98,1.08,1.62.25.71.3,1.47.16,2.21-.16.74-.5,1.43-.98,2.01-.57.69-1.26,1.27-2.02,1.73-.94.57-1.94,1.02-2.98,1.35-1.09.38-2.23.61-3.38.68-1.03.07-2.06-.04-3.05-.33-.93-.29-1.79-.77-2.52-1.42-.78-.72-1.39-1.6-1.8-2.58l-6.31,2.1c1.14,3.41,3.72,6.14,7.07,7.47,3.94,1.17,8.16.95,11.97-.6,1.86-.59,3.63-1.45,5.26-2.54,1.42-.95,2.66-2.15,3.65-3.54.9-1.28,1.5-2.74,1.77-4.29.25-1.59.11-3.23-.43-4.75-.36-1.15-.9-2.22-1.62-3.18" style="fill:#fff;"/><path id="Path_1461" d="m472.32,822.54l-2.27-5.55-26.7,10.86,2.24,5.54,10.1-4.11,11.33,27.94,6.41-2.61-11.33-27.93,10.22-4.15Z" style="fill:#fff;"/></g></g></g></g></g></svg>