<?xml version="1.0" encoding="UTF-8"?><svg id="Layer_2" xmlns="http://www.w3.org/2000/svg" xmlns:xlink="http://www.w3.org/1999/xlink" viewBox="0 0 550.36 893.22"><defs><clipPath id="clippath"><rect width="550.36" height="893.22" style="fill:none;"/></clipPath></defs><g id="Layer_1-2"><g id="Group_766"><g id="Group_763"><g style="clip-path:url(#clippath);"><g id="Group_762"><path id="Path_1190" d="m344.88,584.82c-1.2-1.58-3.08-2.49-5.06-2.44-1.01-.02-2.01.2-2.92.64-.86.42-1.61,1.03-2.2,1.78-.63.82-1.1,1.76-1.38,2.75-.33,1.15-.49,2.34-.48,3.53-.01,1.18.15,2.36.48,3.49.29,1,.76,1.93,1.38,2.75.59.75,1.33,1.36,2.19,1.79.89.44,1.88.66,2.87.64,1.01.02,2-.2,2.91-.64.85-.42,1.6-1.04,2.19-1.79.63-.82,1.09-1.76,1.37-2.75.33-1.14.49-2.31.47-3.49.01-1.19-.14-2.37-.46-3.51-.27-.99-.73-1.93-1.35-2.75"/><path id="Path_1191" d="m306.93,425.92c.16.3.32.56.48.83.09-.35.17-.7.26-1.07-.25.09-.49.15-.73.24"/><path id="Path_1192" d="m365.93,548.47c-.69-.65-1.54-1.12-2.45-1.38-.91-.3-1.89-.37-2.84-.23-.89.15-1.74.5-2.48,1.02-.8.57-1.48,1.29-2.02,2.11-.61.95-1.08,1.99-1.39,3.08-.33,1.07-.5,2.17-.51,3.29-.01.98.16,1.96.51,2.87.33.84.83,1.6,1.49,2.22,2.12,1.99,5.35,2.22,7.73.55.79-.57,1.47-1.29,1.99-2.11.61-.94,1.07-1.97,1.38-3.05.34-1.07.52-2.19.54-3.32.02-.97-.14-1.94-.47-2.85-.32-.84-.82-1.6-1.47-2.21"/><path id="Path_1193" d="m321.24,538.59c-.2-.23-.44-.41-.71-.55-.53-.22-1.08-.38-1.64-.49-.69-.13-1.44-.26-2.29-.39l-2.96-.41-1.01,7.21,2.99.42c.31.05.6.08.88.12s.56.07.83.09c.65.08,1.3.07,1.95-.02.49-.07.96-.25,1.38-.53.37-.27.67-.62.88-1.03.23-.48.38-1,.44-1.52.05-.36.06-.73.02-1.09-.04-.34-.12-.68-.26-1-.12-.29-.29-.57-.5-.8"/><path id="Path_1194" d="m287.18,534.82l-3.6,9.74,6.58.25-2.97-9.99Z"/><path id="Path_1195" d="m270.12,586.08c.08-1.02-.31-2.01-1.07-2.69-.95-.65-2.1-.96-3.25-.88h-6.1v7.29h5.71c.72.01,1.44-.06,2.14-.22.53-.1,1.03-.32,1.46-.65.38-.3.67-.7.84-1.15.2-.55.29-1.13.27-1.71"/><path id="Path_1196" d="m210.8,558.58c.3-.93.42-1.91.35-2.89-.07-1.12-.31-2.22-.7-3.28-.36-1.06-.88-2.06-1.53-2.98-.56-.8-1.27-1.49-2.09-2.03-1.57-1.03-3.54-1.24-5.29-.56-.91.31-1.73.82-2.41,1.5-.63.65-1.11,1.44-1.39,2.3-.3.93-.42,1.91-.37,2.89.07,1.13.31,2.24.7,3.31.36,1.06.89,2.06,1.55,2.97.57.8,1.29,1.48,2.11,2.01,1.57,1.03,3.54,1.24,5.3.56.9-.31,1.72-.82,2.39-1.5.63-.65,1.1-1.44,1.38-2.3"/><path id="Path_1197" d="m343.31,546.99c.29-.46.49-.98.59-1.52.28-.93.1-1.93-.47-2.71-.75-.8-1.75-1.31-2.84-1.46l-5.63-1.21-1.44,6.74,5.29,1.12c.66.16,1.34.23,2.03.24.51,0,1.01-.1,1.48-.31.41-.21.76-.52,1.01-.91"/><path id="Path_1198" d="m276.14,648.91c92.35,0,167.26-76.95,167.92-172.13l.03-229.81c-20.94,0-74.15-48.58-74.15-70.78,0-.33,0-.65.02-.96h-185.98c0,.32.03.64.03.96,0,20.73-56.55,70.78-74.78,70.78-.34,0-.69-.02-1.03-.03l.02,226.48c.66,95.18,75.58,175.48,167.92,175.48m-76.58-83.37c-1.31-.7-2.47-1.66-3.39-2.83-1.04-1.3-1.84-2.77-2.38-4.34-.58-1.57-.89-3.23-.91-4.91-.02-1.48.27-2.95.85-4.31.57-1.33,1.42-2.51,2.5-3.48,1.17-1.05,2.55-1.86,4.04-2.37,1.46-.55,3.03-.8,4.59-.73,1.44.07,2.84.46,4.12,1.12,1.31.7,2.46,1.66,3.38,2.82,1.05,1.31,1.86,2.79,2.41,4.37.57,1.56.88,3.2.91,4.86.03,1.48-.24,2.95-.8,4.31-.56,1.33-1.4,2.52-2.47,3.49-1.18,1.05-2.56,1.86-4.05,2.37-1.48.55-3.05.8-4.63.73-1.45-.06-2.86-.44-4.15-1.11m12.25,29.26c.27.98.72,1.91,1.33,2.73.56.72,1.28,1.29,2.1,1.68.87.39,1.8.58,2.75.56,1.41.07,2.8-.36,3.92-1.21,1.03-.91,1.67-2.18,1.77-3.55h4.69c-.13,1.3-.48,2.56-1.03,3.74-.51,1.08-1.26,2.02-2.2,2.77-.94.77-2.02,1.34-3.19,1.71-1.28.38-2.61.56-3.94.55-1.62.02-3.23-.27-4.75-.85-1.41-.54-2.68-1.42-3.69-2.54-1.05-1.17-1.83-2.54-2.32-4.03-.53-1.7-.78-3.47-.75-5.25-.17-3.36.92-6.67,3.07-9.26,1.02-1.13,2.29-2,3.7-2.57,1.51-.58,3.11-.87,4.73-.85,1.27-.02,2.53.15,3.75.5,1.12.33,2.17.86,3.1,1.56,1.04.73,1.89,1.69,2.5,2.81.57,1.12.92,2.34,1.04,3.59h-4.72c-.08-.65-.28-1.28-.58-1.87-.29-.54-.69-1.03-1.17-1.41-.51-.4-1.09-.7-1.71-.89-.71-.21-1.44-.32-2.18-.31-.95-.01-1.89.18-2.75.57-.83.38-1.56.95-2.12,1.67-.62.81-1.08,1.74-1.36,2.73-.34,1.21-.5,2.46-.48,3.72-.02,1.25.14,2.5.47,3.71m9.08-52.82l2.06,8.9,2.03,9.38-4.09.89-4.92-22.71,6.28-1.36,9.21,16.48,1.56-18.82,6.29-1.36,4.92,22.7-4.06.89-2.03-9.38-1.84-8.95-1.72,19.54-3.96.86-9.73-17.06Zm30.33,61.36h-4.7v-10.89h-10.58v10.89h-4.69v-24.52h4.69v9.66h10.58v-9.66h4.69v24.52Zm-3.76-47.57l-2.14-23.13,4.48-.41,11.87,15.72-.89-8.23-.78-8.42,4.15-.39,2.14,23.13-4.46.41-11.87-15.72.88,8.22.78,8.44-4.16.39Zm-34.55-69.64c7.09-2.37,23.63-2.51,25.03-2.51l.19-.02c.72-.11,5.47-.82,12.15-1.7,1.23-.16,2.37.7,2.53,1.94.01.1.02.2.02.3v1.93c0,.72-.51,1.34-1.21,1.48-16.91,3.17-37.24,9.06-57.57,9.06-7.23.17-14.45-.64-21.46-2.41-1.41-.38-3.03-4.65-3.98-7.49-.26-.79.17-1.65.97-1.91.26-.08.53-.1.8-.04,7.38,1.65,29.13,5.84,42.53,1.38m-36.59-8.88c9.55,1.56,19.24,2.1,28.91,1.63v4.75s-22.48,1.21-28.91-2.05c-6.43-3.26,0-4.33,0-4.33m32.39,4.47v-12.11c.04-1.09.8-2.03,1.86-2.31l40.4-8.41c.8-.21,1.61.27,1.82,1.07.04.14.05.29.05.44v13.67c-.02,1.07-.83,1.95-1.89,2.05,0,0-11.14.87-15.42,1.63-18.84,3.35-24.99,5.3-24.99,5.3-.67.28-1.44-.04-1.72-.72-.08-.19-.11-.4-.1-.61m62.32,121.62l-2.16-6.1c-.18-.51-.42-1.01-.72-1.47-.28-.43-.63-.81-1.03-1.14-.39-.31-.83-.55-1.3-.73-.5-.17-1.03-.26-1.55-.26h-4.57v9.7h-4.69v-24.52h10.89c.85,0,1.7.04,2.54.12.73.06,1.45.21,2.15.42.63.19,1.23.47,1.77.85.53.38,1,.86,1.36,1.41.81,1.24,1.22,2.69,1.18,4.17.07,1.52-.42,3.02-1.38,4.2-1.02,1.13-2.39,1.9-3.88,2.19v.05c.92.3,1.74.87,2.35,1.63.71.91,1.27,1.93,1.66,3.02l2.43,6.46h-5.04Zm-1.44-72.48l4.45-.09.42,23.23-4.44.09-.43-23.23Zm6.12,22.93l9.23-22.9,4.85.19,7.82,23.55-4.66-.18-1.88-6.02-8.66-.33-2.25,5.86-4.45-.17Zm8.41-68.81v-5.2c.01-.69.55-1.26,1.23-1.32,4.73-.53,9.5-.62,14.25-.28,17.59,1.25,21.25-7.26,41.05-9.64s43.13,9.64,41.04,11.31c-2.09,1.67-12.57-3.35-25.97-3.35s-23.04,6.29-39.79,8.79c-11.92,1.79-18.52,1.33-30.51,1-.72-.01-1.3-.59-1.31-1.31m-.85,118.36h-4.69v-24.52h4.69v24.52Zm22.6-3.97c-.5.94-1.2,1.75-2.05,2.37-.94.68-1.99,1.19-3.11,1.5-1.28.35-2.6.53-3.93.52-2.78.19-5.54-.58-7.83-2.18-1.87-1.57-2.95-3.88-2.95-6.32h4.5c.05.72.26,1.41.6,2.04.33.57.77,1.06,1.31,1.44.58.4,1.22.7,1.9.87.76.2,1.54.3,2.32.29.74,0,1.48-.07,2.2-.24.59-.13,1.16-.36,1.68-.68.44-.27.8-.65,1.06-1.09.26-.44.39-.95.38-1.46.01-.44-.11-.87-.34-1.24-.27-.38-.62-.7-1.03-.93-.54-.31-1.12-.56-1.72-.73-.69-.22-1.49-.43-2.41-.66-1.34-.32-2.57-.64-3.66-.95-1.01-.28-1.97-.67-2.89-1.18-.77-.43-1.44-1-1.98-1.7-.52-.76-.85-1.63-.94-2.54-.04-.26-.06-.53-.08-.8-.02-.28-.02-.57,0-.85.06-.92.33-1.81.8-2.61.48-.81,1.13-1.51,1.9-2.04.88-.6,1.84-1.05,2.86-1.33,1.2-.33,2.43-.5,3.67-.48,1.35-.01,2.69.16,3.99.51,1.11.3,2.15.8,3.07,1.48.83.64,1.52,1.45,2,2.38.51,1,.78,2.09.82,3.21h-4.57c-.24-2.51-1.96-3.75-5.16-3.75-.68,0-1.36.07-2.03.23-.53.12-1.04.34-1.51.63-.39.24-.71.57-.94.96-.22.39-.34.83-.33,1.27-.01.4.09.79.28,1.14.23.35.54.63.91.82.51.27,1.05.49,1.6.66.66.21,1.44.41,2.39.62.88.19,1.72.39,2.54.57.8.19,1.58.42,2.36.69.7.25,1.38.56,2.03.92.6.34,1.14.77,1.59,1.28.46.52.81,1.13,1.04,1.78.26.77.38,1.58.37,2.39.02,1.1-.24,2.18-.74,3.16m38.22-46.33c.47.99.79,2.04.93,3.13l.96,6.47-4.66-1-.78-6.09c-.07-.52-.2-1.02-.38-1.51-.18-.46-.42-.88-.73-1.26-.3-.37-.65-.68-1.06-.92-.43-.26-.9-.45-1.39-.55l-4.23-.91-1.93,8.99-4.35-.93,4.87-22.72,10.09,2.17c.79.17,1.56.38,2.33.62.66.21,1.3.48,1.9.82.54.3,1.03.69,1.46,1.14.42.46.75,1,.98,1.58.5,1.3.59,2.73.26,4.09-.24,1.42-.98,2.71-2.1,3.62-1.17.84-2.59,1.28-4.03,1.25v.05c.79.46,1.43,1.15,1.85,1.97m-17.58-11.06c-.13,1.11-.48,2.18-1.04,3.15-.51.85-1.22,1.57-2.06,2.09-.93.54-1.96.89-3.03,1.03-1.32.15-2.65.12-3.96-.09l-4.28-.6-1.21,8.63-4.4-.62,3.22-23,8.81,1.22c.93.13,1.79.3,2.57.48.72.17,1.42.42,2.09.75.59.29,1.13.68,1.6,1.14.47.48.85,1.04,1.12,1.65.32.63.52,1.31.6,2.01.08.72.06,1.44-.04,2.16m.56,40.92h-7.47v20.46h-4.7v-20.46h-7.38v-4.06h19.56v4.06Zm23.61,13.37c-.5,1.48-1.3,2.84-2.34,4.01-1.03,1.12-2.29,2.01-3.69,2.59-3.13,1.22-6.6,1.22-9.73,0-1.41-.58-2.69-1.47-3.72-2.59-1.06-1.16-1.87-2.52-2.37-4.01-.57-1.66-.85-3.41-.83-5.16-.01-1.77.28-3.53.86-5.2.5-1.48,1.31-2.85,2.37-4,1.04-1.12,2.3-1.99,3.71-2.57,1.54-.63,3.19-.94,4.85-.91,1.65-.03,3.29.29,4.82.91,1.4.57,2.66,1.45,3.69,2.57,1.06,1.16,1.87,2.52,2.37,4,1.1,3.37,1.11,7,0,10.36m21.01-38.08c-.45,1.6-1.18,3.11-2.15,4.46-.85,1.21-1.95,2.23-3.21,3-1.24.75-2.62,1.21-4.06,1.35-3.17.25-6.32-.7-8.83-2.66-1.13-.91-2.04-2.06-2.68-3.37-.64-1.34-1-2.79-1.06-4.28-.06-1.67.17-3.33.67-4.92.46-1.61,1.2-3.13,2.18-4.48.87-1.2,1.97-2.22,3.24-2.98,1.25-.72,2.64-1.17,4.08-1.32,1.57-.15,3.15.02,4.65.5,1.51.43,2.91,1.16,4.13,2.15,1.11.91,2,2.05,2.64,3.34.64,1.34.99,2.8,1.05,4.28.07,1.67-.16,3.34-.66,4.94m21.73-42.53c0,1.13-.9,2.06-2.04,2.07-.28,0-.56-.05-.82-.16-6.38-2.73-22.07-8.99-33.17-9.63-14.25-.84-23.04,3.77-36.02,5.13-10.09,1.06-20.17,1.42-34.28,1.93-1.15.05-2.11-.85-2.16-1.99,0-.02,0-.04,0-.06v-19.26c0-1.86,1.52-3.35,3.37-3.35.01,0,.02,0,.04,0,8.99.16,13.22.85,22.13.85,13.82,0,22.2-7.54,46.49-7.54,20.5,0,32.35,7.15,35.55,9.38.56.39.9,1.02.9,1.71v20.93Zm5.86-40.92c3.14,2.84.63,13.08-2.73,8.89-5.21-6.51-17.31-11.62-17.31-11.62-.94-.38-1.61-1.24-1.75-2.25,0-.84.84-1.36,1.87-1.15,0,0,16.78,3.29,19.92,6.12m-233.06-180.13h0c-.05-.97.34-1.92,1.07-2.57.75-.63,1.74-.89,2.7-.71l11.35,2.06v-16.73c.05-2.53,1.62-4.78,3.98-5.7,11.07-3.55,22.64-5.3,34.27-5.17,1.03,0,2.06.02,3.12.04,17.57.47,31.15,9.73,36.39,13.89,1.33-32.34,2.51-57,3-67.15.12-2.25,2.04-3.99,4.3-3.87.83.04,1.62.34,2.28.84l8.43,6.51c.99.76,1.57,1.93,1.58,3.18l1.08,68.5c3.69-1.97,10.9-5.73,19.37-9.71-4.23-5.53-8.89-10.73-13.94-15.53-1.18-1.18-1.88-2.75-1.95-4.42v-29.47l2.62-.93.94,1.2c6.99,11.52,16.31,21.5,25.34,31.16,2.76,2.96,5.54,5.95,8.27,8.99,3.15-1.15,6.22-2.18,9.11-2.99,6.93-1.85,14.07-2.75,21.24-2.68,7.61.01,15.19.84,22.63,2.46,2,.45,3.41,2.24,3.39,4.29v3.8c4.89-1.09,8.66-1.43,10.66-.67l1.08.41-1.38,157.86c.19,1.25-.67,2.41-1.92,2.6-.91.14-1.81-.28-2.29-1.06l-4.26-4.91c.85,1.5,1.33,3.18,1.38,4.9l-.09,1.86-1.84-.28c-.2-.03-19.87-3.05-34.92-2.2-6.98.66-13.88,2.03-20.59,4.09-3.75,1.24-7.62,2.05-11.55,2.41-1.33.1-2.64-.31-3.67-1.15-.39-.42-.66-.94-.77-1.51l-14.37,9.34-.96-.96c-2.53-3.09-4.28-6.76-5.08-10.68-1.81-.49-3.1-2.08-3.21-3.95l-1.39-26.42.78,49.22,58.46-9.11c1.04-.14,1.49.5,1,1.43,0,0-12.52,23.87-23.4,26.8-4.77,1.28-29.02,2.38-35.72,2.67l.56,35.38c.02,1.36-.64,2.65-1.77,3.42-.68.48-1.5.74-2.34.73-.51,0-1.01-.1-1.49-.28l-21.71-8.5c-1.57-.6-2.6-2.11-2.6-3.8,0-21.08.31-43.98.78-67.37-.66.45-1.43.69-2.22.71-.22-.02-.43-.05-.64-.09.84,4.64,1.05,8.27.09,9.63-.74,1.04-1.95,1.62-3.22,1.55-2.41,0-5.62-1.47-9.35-3.19-4.84-2.21-10.86-4.97-16.87-5.49-12.44-1.08-32.1,2.73-32.3,2.76l-1.77.35-.22-1.79c-.16-1.46-.25-2.93-.26-4.4-.61.35-1.3.54-2.01.56-1.43-.01-2.74-.78-3.45-2.02l-6.06,2.98c-.45.22-.94.33-1.43.34-.49,0-.97-.13-1.38-.38-.85-.53-1.37-1.46-1.38-2.47l-5.5-138.61Zm-8.61,204.33c-.07-.71.46-1.34,1.17-1.41.22-.02.44.01.64.1,0,0,23.75,7.78,37.14,6.94,10.81-.67,54.42-11.6,54.42-11.6.75-.24,1.55.18,1.78.92.05.17.07.34.06.52v21.39c-.05,1.1-.79,2.04-1.85,2.35,0,0-33.58,8.15-51.91,10.29-25.13,2.93-39.77-4.58-39.77-4.58-1-.58-1.63-1.62-1.7-2.77v-22.16Z"/><path id="Path_1199" d="m39.22,230.6c.45.94.93.86,1.05-.18,0,0,3.14-27.16,19.9-37.21,16.76-10.05,52.48-22.33,64.77-32.38,12.29-10.06,10.05-30.17,13.41-32.39,3.36-2.23,24.57-18.43,134.74-18.43s145.31,21.83,145.31,21.83c.98.68,1.67,1.7,1.95,2.86,2.55,10.52,8.64,19.84,17.25,26.4,14.52,11.17,37.3,17.92,52.69,29.75,19.35,14.87,24.81,27.43,24.81,27.43.41.96,1.11.96,1.55.02l33.04-72.49c.43-1.11.44-2.35.03-3.47,0,0-7.06-16.13-18.23-23.95-11.17-7.82-30.15-15.63-39.08-22.34-6.45-5.19-12.32-11.06-17.51-17.52-.67-.96-.86-2.16-.52-3.28l11.78-32.15c.34-1.02-.09-2.14-1.04-2.65C485.12,40.46,406.39,0,277,0S67.43,40.46,67.43,40.46c-.95.52-1.42,1.63-1.11,2.67l9.99,30.45c.36,1.2.56,2.45.59,3.7,0,0,0,1.44-8.38,14.29-8.38,12.85-30.28,20.1-43.69,26.8-13.41,6.71-24.18,29.56-24.18,29.56-.44,1.1-.44,2.33.02,3.43l38.55,79.23Zm456.72-123.35c.09.04,8.43,3.76,19.15,7.86,10.03,3.84,27.06,15.74,30.09,31.41l.1.52-27.04,59.9c-.36.97-1.26,1.64-2.29,1.72h-.09c-1-.03-1.9-.63-2.31-1.55-4.88-8.06-11.26-15.12-18.79-20.78-7.34-5.35-15.26-9.85-23.6-13.43-2.48-1.04-4.88-2.27-7.17-3.67l-1.16-.8,28.35-59.42c.85-1.77,2.95-2.54,4.74-1.75m-11.65-5.28c.93-.26,1.92-.11,2.73.41l2.54,1.62c1.61,1.05,2.21,3.12,1.4,4.87l-26.51,55.81c-.4.89-1.19,1.54-2.13,1.78-.24.06-.49.08-.73.09-.72,0-1.42-.24-1.99-.68l-2.53-1.93c-1.48-1.17-1.97-3.2-1.2-4.92l26.31-55.26c.41-.88,1.17-1.53,2.1-1.8m-7.96-6.9c.97-.16,1.97.15,2.68.84l2.09,1.96c1.31,1.3,1.69,3.27.94,4.96l-26.5,55.8c-.41.88-1.19,1.53-2.13,1.77-.24.06-.48.1-.73.09-.72,0-1.42-.25-2-.69l-2.53-1.93c-1.48-1.17-1.97-3.2-1.19-4.92l27.17-56.16c.41-.9,1.23-1.55,2.2-1.74M75.74,49.75c-.42-.96-.02-2.09.91-2.57,0,0,72.58-35.99,188.45-37.14,141.28-1.39,212.22,38.44,212.22,38.44.92.53,1.28,1.67.82,2.63l-37.96,76.73c-.49.95-1.61,1.38-2.61,1.01,0,0-79.77-31.14-173.31-31.14s-150.25,32.35-150.25,32.35c-.8.48-1.85.22-2.33-.58-.04-.06-.07-.13-.1-.2l-35.85-79.53Zm-3.73,51.43l2.1-1.97c1.16-1.17,3.05-1.19,4.23-.03.27.26.48.58.63.92l27.28,56.11c.79,1.72.31,3.75-1.17,4.93l-2.53,1.91c-.57.45-1.27.69-2,.7-.24,0-.49-.03-.73-.09-.94-.24-1.73-.9-2.14-1.78l-26.61-55.75c-.76-1.68-.39-3.66.92-4.96m-8.45,6.16l2.54-1.64c.81-.53,1.8-.68,2.73-.41.92.27,1.69.92,2.1,1.79l26.42,55.22c.78,1.72.29,3.74-1.19,4.92l-2.53,1.93c-.57.45-1.27.69-2,.7-.24,0-.48-.03-.72-.09-.95-.23-1.74-.89-2.15-1.78l-26.61-55.74c-.81-1.75-.21-3.82,1.39-4.87M7.67,153.04c1.41-21.17,21.73-31.21,30.39-34.54,10.72-4.13,19.05-7.86,19.14-7.9,1.79-.8,3.9-.03,4.75,1.74l28.47,59.36-1.16.8c-2.29,1.4-4.69,2.63-7.16,3.67-8.34,3.59-16.25,8.11-23.57,13.48-7.53,5.67-13.89,12.74-18.74,20.82-.42.92-1.33,1.52-2.34,1.55h-.06c-1.03-.07-1.93-.71-2.32-1.67l-27.43-56.89.03-.44Z"/><path id="Path_1200" d="m73.43,208.08c-.41,0-.84-.02-1.25-.03v280.23l.04,3.35c.8,111.96,91.77,199.13,203.93,199.13,112.06,0,203.12-90.42,203.93-202.48h.03V208.08c-44.17,0-79.99-32.53-79.99-72.64l.05-1.14h-246.77c.02.39.05.76.05,1.14,0,40.12-35.82,72.64-80,72.64m103.2-42.58h200.28c9.91,34.49,39.25,61.64,76.39,70.6v242.44l-.04,5.16c-.66,97.82-80.49,176.59-178.32,175.93-96.89-.65-175.28-79.04-175.93-175.93l-.04-4.31v-242.98c37.74-8.67,67.64-36.04,77.65-70.91"/><path id="Path_1201" d="m374.17,424.29c2.79,3.41,4.31,6.51,4.22,8.62,0,0-19.87-3.09-35.27-2.2s-31.25,8.87-34.6,5.78c-.31-.38-.49-.84-.52-1.33-.13.14-.26.27-.4.4l-.99.65c.11.57.38,1.09.78,1.51,1.03.84,2.34,1.25,3.66,1.15,3.93-.36,7.81-1.17,11.55-2.41,6.71-2.06,13.61-3.43,20.6-4.09,15.04-.86,34.72,2.17,34.91,2.2l1.85.28.09-1.86c-.04-1.72-.51-3.41-1.38-4.9l-3.75-4.33c-.24.2-.49.37-.76.52"/><path id="Path_1202" d="m307.68,425.69c-.09.36-.18.72-.26,1.07.44.78.87,1.48,1.24,2.05.26-1.17.56-2.41.91-3.69-.65.19-1.28.39-1.9.57"/><path id="Path_1203" d="m372.3,424.66c1.69,1.84,3.06,3.96,4.05,6.26-11.03-1.59-22.18-2.22-33.33-1.89-7.22.66-14.35,2.07-21.28,4.2-4.91,1.34-10.99,3.02-12.01,2.1-.61-1.08.19-5.29,1.75-10.78-.65.19-1.28.37-1.9.56-.36,1.28-.66,2.53-.91,3.7l.26.42c.68,1,.92,2.24.67,3.42-.23.99-.79,1.88-1.59,2.51.04.49.22.95.53,1.33,3.35,3.08,19.19-4.91,34.59-5.78,15.39-.88,35.27,2.2,35.27,2.2.1-2.11-1.43-5.21-4.22-8.62-.55.25-1.16.39-1.77.39l-.09-.02"/><path id="Path_1204" d="m173.09,435.66c.42.25.9.38,1.38.38.5,0,.99-.12,1.43-.34l6.06-2.98c-.28-.49-.47-1.03-.56-1.59l-6.25,3.06c-.53.34-1.24.19-1.58-.34-.14-.22-.2-.47-.18-.73l-5.5-138.61c-.07-.8.52-1.52,1.32-1.59.16-.01.32,0,.48.04l11.65,2.11v-1.7l-11.35-2.05c-.96-.18-1.95.07-2.7.7-.73.65-1.12,1.59-1.06,2.57l5.48,138.61c0,1.01.53,1.94,1.38,2.47"/><path id="Path_1205" d="m386.85,274.75l-1.38,156.7c0,1.05-.57,1.25-1.25.46l-8.13-9.37c-.15.29-.33.57-.55.82,1.21,1.47,2.27,3.05,3.15,4.74l4.26,4.91c.66,1.07,2.07,1.41,3.14.75.78-.48,1.2-1.38,1.06-2.28l1.39-157.87-1.09-.41c-1.99-.76-5.76-.41-10.65.68v1.63c4.68-1.08,8.23-1.44,10.05-.74"/><path id="Path_1206" d="m374.94,423.78l3.75,4.31c-.89-1.68-1.95-3.27-3.16-4.74-.18.16-.38.3-.59.42"/><path id="Path_1207" d="m181.35,429.3l-6.31,3.09-5.45-137.74,11.76,2.13v-1.7l-11.65-2.12c-.78-.19-1.57.29-1.76,1.07-.04.16-.05.32-.03.48l5.49,138.61c-.06.63.39,1.19,1.02,1.26.27.03.54-.04.76-.19l6.25-3.06c-.05-.26-.07-.53-.08-.79v-1.04Z"/><path id="Path_1208" d="m385.16,276.07l-1.35,152.82-7.1-8.18c-.07.65-.28,1.28-.63,1.84l8.13,9.37c.69.79,1.25.57,1.26-.46l1.38-156.7c-1.82-.7-5.36-.34-10.05.74v1.69c2.72-.79,5.54-1.17,8.37-1.11"/><path id="Path_1209" d="m306.18,424.39c.26.53.51,1.06.76,1.54.25-.09.49-.16.73-.24.16-.63.33-1.27.51-1.93-.69.21-1.35.41-2.01.62"/><path id="Path_1210" d="m300.19,279.35c-.35-.46-.7-.91-1.04-1.36-8.48,3.99-15.7,7.75-19.37,9.71l.03,1.88c3.39-1.82,11.17-5.93,20.38-10.24"/><path id="Path_1211" d="m329.99,267.62c6.78-1.81,13.77-2.7,20.78-2.63,7.48.01,14.94.82,22.25,2.42,1.24.28,2.12,1.39,2.1,2.66v4.18c.57-.14,1.12-.26,1.68-.39v-3.79c.01-2.05-1.4-3.84-3.4-4.3-7.43-1.62-15.02-2.44-22.63-2.46-7.17-.06-14.31.84-21.23,2.69-2.89.8-5.96,1.85-9.11,3,.4.44.8.89,1.2,1.34,2.89-1.05,5.71-1.97,8.37-2.71"/><path id="Path_1212" d="m284.67,429.88l-2.42-45.95-.95.18.31,19.45,1.39,26.42c.11,1.87,1.4,3.46,3.21,3.94-.18-.67-.36-1.35-.52-2.07-.6-.48-.98-1.19-1.03-1.96"/><path id="Path_1213" d="m333.01,417.69c-7.64,1.53-14.74,3.22-20.97,4.96-.2.65-.38,1.28-.56,1.9,6.45-1.84,13.9-3.64,21.86-5.23,3.23-.63,6.51-.94,9.8-.93,9.47.16,18.81,2.17,27.5,5.92.52.23,1.09.35,1.66.35-.67-.77-1.42-1.58-2.25-2.39-8.54-3.53-17.68-5.41-26.92-5.55-3.4-.01-6.79.31-10.13.96"/><path id="Path_1214" d="m372.97,422.89c.42.48.82.94,1.2,1.4.27-.15.53-.32.77-.52l-1.08-1.25c-.27.18-.57.3-.89.37"/><path id="Path_1215" d="m308.18,423.77c-.18.65-.34,1.28-.5,1.93.62-.19,1.25-.39,1.9-.57.17-.63.36-1.28.55-1.93-.65.19-1.32.39-1.95.57"/><path id="Path_1216" d="m372.4,423.01c-.38,0-.75-.08-1.09-.23-.35-.15-.8-.34-1.25-.52.82.8,1.58,1.62,2.25,2.41l.09.02c.61,0,1.21-.14,1.77-.39-.38-.47-.77-.93-1.2-1.4-.19.06-.38.09-.57.11"/><path id="Path_1217" d="m310.13,423.2c-.19.64-.38,1.28-.55,1.91.62-.18,1.25-.37,1.9-.56.18-.61.36-1.25.56-1.9-.65.19-1.28.36-1.91.55"/><path id="Path_1218" d="m376.71,420.7c.04-.14.07-.29.09-.43v-143.08c-.55.13-1.09.27-1.68.42v141.27l1.59,1.83Z"/><path id="Path_1219" d="m281.24,380.7l.83-.16-1.19-22.42.36,22.58Z"/><path id="Path_1220" d="m374.44,422.03c.4.45.73.89,1.09,1.33.21-.25.4-.53.55-.82l-1.14-1.32c-.12.29-.29.57-.5.8"/><path id="Path_1221" d="m375.12,275.92c.56-.14,1.14-.29,1.68-.41v-1.64c-.56.12-1.1.25-1.68.39v1.67Z"/><path id="Path_1222" d="m281.27,382.41l.03,1.7.94-.18-.09-1.68-.88.17Z"/><path id="Path_1223" d="m373.86,422.52l1.08,1.25c.21-.12.41-.26.59-.42-.36-.44-.7-.88-1.09-1.33-.17.2-.36.36-.58.5"/><path id="Path_1224" d="m281.24,380.7l.03,1.71.89-.17-.09-1.7-.83.16Z"/><path id="Path_1225" d="m375.12,418.87v1.39c0,.32-.07.64-.19.94l1.15,1.33c.34-.56.56-1.18.63-1.83l-1.59-1.83Z"/><path id="Path_1226" d="m376.8,277.19v-1.69c-.54.12-1.11.27-1.68.41v1.69c.58-.15,1.12-.28,1.68-.41"/><path id="Path_1227" d="m305.48,422.86c.23.54.45,1.04.69,1.54.66-.21,1.32-.42,2.01-.62.17-.63.35-1.26.54-1.9-1.1.33-2.18.66-3.23.99"/><path id="Path_1228" d="m330.44,269.23c6.63-1.76,13.47-2.63,20.33-2.56,7.36,0,14.69.81,21.88,2.37.48.11.81.54.79,1.03v4.62c.56-.15,1.14-.3,1.68-.43v-4.18c.02-1.27-.86-2.38-2.1-2.66-7.31-1.6-14.76-2.41-22.24-2.42-7.02-.07-14.01.82-20.78,2.63-2.66.74-5.47,1.67-8.37,2.71.4.44.79.9,1.19,1.35,2.64-.94,5.2-1.77,7.63-2.45"/><path id="Path_1229" d="m301.21,280.74c-.34-.47-.68-.93-1.02-1.38-9.22,4.31-16.99,8.43-20.39,10.24l.04,1.89c2.48-1.35,11.05-5.93,21.37-10.75"/><path id="Path_1230" d="m285.28,409.68l-1.38-26.07-1.66.32,2.42,45.95c.05.77.42,1.48,1.03,1.96-1.47-7.3-1.61-14.81-.41-22.16"/><path id="Path_1231" d="m343.14,415.04c-3.51-.01-7.01.32-10.46,1-6.77,1.36-13.69,2.98-20.06,4.73-.21.64-.4,1.27-.58,1.88,6.23-1.74,13.32-3.44,20.97-4.96,3.34-.65,6.73-.97,10.13-.96,9.24.13,18.38,2.02,26.92,5.55-.99-.99-2.06-2-3.26-3.02-7.6-2.69-15.6-4.11-23.66-4.22"/><path id="Path_1232" d="m308.71,421.87c-.19.64-.37,1.27-.55,1.89.64-.19,1.3-.38,1.96-.57.18-.62.38-1.25.56-1.88-.66.18-1.33.38-1.98.56"/><path id="Path_1233" d="m372.4,421.33c-.15,0-.29-.03-.42-.09-.26-.11-.63-.27-.96-.4.7.69,1.35,1.38,1.96,2.04.31-.06.61-.19.88-.36l-1.14-1.32c-.11.03-.2.12-.31.12"/><path id="Path_1234" d="m310.13,423.2c.63-.19,1.26-.36,1.91-.55.19-.61.38-1.24.58-1.88-.65.18-1.29.36-1.93.54-.2.64-.4,1.27-.57,1.89"/><path id="Path_1235" d="m366.8,419.26c1.2,1.02,2.27,2.03,3.26,3.02.44.18.91.37,1.25.52.34.15.72.23,1.09.23.19-.02.38-.06.56-.12-.6-.67-1.25-1.36-1.95-2.04-1.09-.45-2.5-1-4.22-1.59"/><path id="Path_1236" d="m375.12,418.87v-141.27c-.55.14-1.1.29-1.68.45v138.89l1.68,1.93Z"/><path id="Path_1237" d="m280.89,358.13l1.19,22.42,1.66-.32-3.56-67.44.72,45.34Z"/><path id="Path_1238" d="m373.45,276.35c.58-.16,1.12-.29,1.68-.43v-1.67l-1.68.44v1.66Z"/><path id="Path_1239" d="m373.45,420.27c-.02.18-.09.35-.2.49.41.41.82.85,1.19,1.26.22-.23.39-.5.5-.8l-1.49-1.71v.76Z"/><path id="Path_1240" d="m283.82,381.92l-1.66.32.09,1.68,1.66-.32-.09-1.68Z"/><path id="Path_1241" d="m372.71,421.2l1.14,1.32c.22-.13.42-.3.59-.5-.38-.41-.79-.85-1.2-1.26-.12.21-.31.37-.54.44"/><path id="Path_1242" d="m373.45,278.06c.57-.16,1.12-.31,1.68-.46v-1.69c-.56.14-1.09.27-1.68.43v1.72Z"/><path id="Path_1243" d="m282.07,380.55l.09,1.69,1.66-.32-.09-1.69-1.66.32Z"/><path id="Path_1244" d="m373.45,419.51l1.49,1.71c.12-.3.18-.62.19-.94v-1.39l-1.68-1.93v2.56Z"/><path id="Path_1245" d="m305.3,426.43c.55,1.03,1.08,1.93,1.59,2.73.15-.77.32-1.57.52-2.41-.17-.28-.32-.54-.48-.83-.56.16-1.1.34-1.63.51"/><path id="Path_1246" d="m286.34,261.23c-.84-.85-1.34-1.98-1.4-3.18v-28.21c0-.13.1-.24.23-.25.09,0,.18.05.22.13,9.11,15,21.84,27.13,33.35,39.88.56-.22,1.12-.41,1.69-.62-2.73-3.03-5.5-6.02-8.27-8.99-9.02-9.65-18.35-19.64-25.34-31.15l-.94-1.2-2.62.92v29.48c.07,1.67.77,3.25,1.96,4.42,5.04,4.8,9.7,9.99,13.93,15.52.52-.25,1.06-.49,1.58-.73-4.36-5.72-9.17-11.08-14.4-16.03"/><path id="Path_1247" d="m292.48,443.4c-2.22-2.72-3.76-5.93-4.51-9.36-.19.05-.39.08-.58.1-.4-.02-.79-.1-1.17-.24,1.3,4.98,3.16,8.76,5.07,10.68l.96.96,14.37-9.35c-.16-.59-.25-1.2-.26-1.82l-13.87,9.01Z"/><path id="Path_1248" d="m308.01,435.17c-.13-2.14.09-4.29.65-6.36-.38-.57-.79-1.27-1.24-2.05-.2.83-.37,1.63-.52,2.41.22.35.44.71.64,1.01.87,1.32.51,3.1-.81,3.97-.01,0-.02.02-.04.02l-.34.22c.01.62.1,1.23.26,1.83l.99-.64c.14-.12.28-.25.4-.4"/><path id="Path_1249" d="m309.6,432.66c.25-1.18,0-2.41-.66-3.42-.09-.12-.19-.29-.27-.42-.57,2.07-.78,4.22-.65,6.36.8-.63,1.36-1.52,1.58-2.52"/><path id="Path_1250" d="m313.4,297.6c-2.98-6.18-6.53-12.08-10.61-17.6-.53.25-1.05.49-1.58.73,4.08,5.51,7.64,11.38,10.63,17.55.52-.23,1.05-.46,1.56-.69"/><path id="Path_1251" d="m335.5,288.22c-3.82-5.81-8.06-11.34-12.68-16.55-.56.2-1.12.41-1.68.62,4.67,5.2,8.95,10.73,12.82,16.55l1.54-.62"/><path id="Path_1252" d="m302.52,410.39c-1.46,4.24-.36,8.99,1.34,13,.54-.17,1.07-.35,1.62-.52-1.58-3.69-2.69-8.11-1.38-11.93.77-2.23,4.56-5.87,8.95-10.08,7.91-7.21,15.02-15.25,21.21-23.99l-1.12-1.3c-12.26,18.32-28.56,28.86-30.61,34.82"/><path id="Path_1253" d="m291.64,393.98c2.08-4.56,4.46-8.99,7.11-13.24l-2.2.42c-2.39,3.91-4.54,7.96-6.44,12.14-2.32,5.22-3.93,10.73-4.81,16.38l1.06,20.12c.04.47.39.85.86.93-2.29-12.42-.74-25.23,4.44-36.75"/><path id="Path_1254" d="m320.11,324.46c-.16-8.21-1.98-16.3-5.33-23.8-.53.24-1.05.45-1.56.69,3.28,7.27,5.05,15.13,5.22,23.11,0,21.97-8.33,35.14-17.16,49.06-.79,1.25-1.58,2.51-2.37,3.78l2.25-.43c9.2-14.6,18.97-28.62,18.97-52.41"/><path id="Path_1255" d="m346.92,331.15c.04,14.68-4.1,29.08-11.92,41.5.06.06.14.09.19.16l.99,1.14c8.15-12.79,12.46-27.64,12.42-42.81.05-14.13-3.86-28-11.28-40.03l-1.54.62c7.34,11.83,11.2,25.49,11.14,39.41"/><path id="Path_1256" d="m336.43,289.69c-.31-.49-.62-.98-.94-1.47-.51.22-1.03.41-1.53.63.31.48.63.96.94,1.46l1.53-.62"/><path id="Path_1257" d="m334.27,376.87c.32-.48.65-.95.96-1.44l-1.14-1.31c-.32.49-.64.96-.96,1.44l1.14,1.31Z"/><path id="Path_1258" d="m297.71,379.23c-.39.64-.77,1.28-1.16,1.93l2.2-.42c.4-.65.79-1.3,1.19-1.94l-2.22.44Z"/><path id="Path_1259" d="m314.11,299.16c-.24-.52-.47-1.04-.72-1.55-.52.23-1.05.46-1.55.69.25.51.48,1.04.72,1.55.51-.23,1.03-.45,1.55-.69"/><path id="Path_1260" d="m314.11,299.16c-.53.24-1.05.46-1.55.69.22.5.45.99.67,1.5.51-.24,1.04-.46,1.55-.69-.22-.5-.44-1-.67-1.5"/><path id="Path_1261" d="m335.01,372.66c-.31.49-.61.96-.92,1.44l1.15,1.32c.31-.49.63-.96.95-1.47l-1-1.14c-.06-.07-.13-.1-.18-.16"/><path id="Path_1262" d="m335.78,291.74c.52-.21,1.03-.41,1.55-.63-.29-.48-.59-.95-.89-1.43l-1.53.62c.3.48.57.96.87,1.44"/><path id="Path_1263" d="m301.15,376.86l-2.25.43c-.4.64-.79,1.28-1.19,1.94l2.22-.43c.4-.64.8-1.28,1.21-1.94"/><path id="Path_1264" d="m287.97,434.04c-.14-.51-.26-1.07-.4-1.6-.07,0-.12.03-.19.03-.62-.01-1.21-.23-1.69-.63.16.73.34,1.4.52,2.07.38.14.77.22,1.17.24.2-.02.39-.06.58-.1"/><path id="Path_1265" d="m319.95,270.95c.56-.21,1.12-.41,1.69-.62-.41-.45-.8-.9-1.21-1.34-.56.2-1.11.4-1.68.62.4.44.8.89,1.2,1.34"/><path id="Path_1266" d="m301.78,278.62c-.35-.46-.69-.91-1.04-1.36l-1.59.73c.35.44.7.91,1.05,1.37.52-.26,1.05-.5,1.58-.74"/><path id="Path_1267" d="m304.56,424.9c.25.53.49,1.05.75,1.54.53-.17,1.07-.36,1.62-.52-.26-.47-.51-1-.75-1.53-.55.17-1.09.35-1.62.51"/><path id="Path_1268" d="m302.8,280c-.34-.47-.68-.93-1.02-1.38-.54.25-1.07.5-1.58.74.34.45.68.91,1.02,1.38.53-.25,1.05-.49,1.58-.73"/><path id="Path_1269" d="m303.87,423.39c.23.53.45,1.03.69,1.53.53-.18,1.07-.35,1.6-.52-.24-.5-.46-1-.69-1.54-.55.18-1.07.36-1.6.53"/><path id="Path_1270" d="m322.82,271.68c-.4-.45-.8-.9-1.2-1.35-.56.2-1.12.41-1.68.62.4.44.8.9,1.19,1.35.57-.21,1.12-.42,1.69-.62"/><path id="Path_1271" d="m286.35,429.79l-1.07-20.12c-1.19,7.36-1.05,14.87.43,22.17.47.39,1.07.61,1.68.63.07,0,.12-.04.19-.04-.13-.56-.26-1.12-.38-1.72-.47-.07-.82-.46-.86-.93"/><path id="Path_1272" d="m303.69,426.97c.75,1.42,1.56,2.79,2.45,4.13.18.26.24.58.18.89-.07.32-.26.6-.54.77l-12.97,8.43c-1.48-2.39-2.56-4.99-3.22-7.72-.5.3-1.05.49-1.62.57.74,3.43,2.28,6.63,4.49,9.36l13.89-9.02c0-1.75.19-3.5.55-5.22-.52-.8-1.05-1.71-1.59-2.73-.56.18-1.09.36-1.62.54"/><path id="Path_1273" d="m287.47,259.99c-.49-.53-.79-1.21-.86-1.93v-23.33c6.77,10.07,15.05,18.95,23.09,27.56,2.49,2.66,4.96,5.3,7.36,7.96.56-.22,1.12-.43,1.68-.64-11.51-12.76-24.25-24.88-33.35-39.88-.06-.12-.21-.17-.33-.1-.08.04-.13.13-.13.22v28.2c.07,1.19.57,2.32,1.4,3.18,5.23,4.94,10.05,10.3,14.41,16.03.54-.26,1.06-.5,1.6-.75-4.49-5.91-9.47-11.43-14.88-16.52"/><path id="Path_1274" d="m306.36,434.38l.34-.22c1.34-.86,1.73-2.64.87-3.97,0-.01-.02-.02-.02-.04-.2-.29-.42-.65-.64-1-.36,1.72-.54,3.47-.55,5.22"/><path id="Path_1275" d="m314.97,296.91c-2.97-6.2-6.51-12.11-10.57-17.65-.54.25-1.07.48-1.6.73,4.07,5.52,7.62,11.42,10.6,17.6.53-.23,1.04-.45,1.57-.69"/><path id="Path_1276" d="m333.96,288.84c-3.87-5.82-8.16-11.35-12.82-16.55-.56.21-1.11.4-1.68.62,4.71,5.2,9.03,10.74,12.94,16.57.53-.22,1.04-.43,1.56-.65"/><path id="Path_1277" d="m302.52,410.39c2.05-5.96,18.35-16.51,30.61-34.82l-.48-.56c-.25-.23-.57-.38-.91-.44-6.1,8.71-13.14,16.71-21.01,23.86-5.09,4.88-8.76,8.41-9.8,11.41-1.6,4.65-.49,9.75,1.33,14.08.52-.18,1.06-.36,1.59-.54-1.7-4.01-2.8-8.75-1.34-13"/><path id="Path_1278" d="m293.17,394.66c2.28-4.95,4.89-9.75,7.81-14.35l-2.23.42c-2.65,4.26-5.03,8.68-7.11,13.25-5.18,11.51-6.72,24.33-4.43,36.75.07,0,.11.07.19.07.24,0,.46-.08.64-.24.23-.18.51-.36.76-.55-2.16-11.95-.63-24.28,4.37-35.35"/><path id="Path_1279" d="m345.24,331.16c.02,14.34-4.02,28.4-11.66,40.54.53.23,1.01.56,1.41.96,7.82-12.43,11.96-26.82,11.92-41.5.07-13.92-3.8-27.59-11.15-39.41-.51.22-1.02.42-1.53.63,7.27,11.62,11.08,25.07,10.99,38.78"/><path id="Path_1280" d="m304.12,375.31c8.69-13.72,17.67-27.9,17.67-50.85-.16-8.45-2.01-16.77-5.45-24.49-.52.23-1.05.46-1.56.69,3.36,7.49,5.18,15.59,5.34,23.8,0,23.79-9.77,37.8-18.97,52.41l2.26-.44c.23-.37.46-.74.7-1.11"/><path id="Path_1281" d="m334.92,290.31c-.31-.49-.63-.98-.95-1.46l-1.55.65c.32.48.62.96.93,1.46l1.57-.65"/><path id="Path_1282" d="m315.69,298.47c-.24-.53-.47-1.04-.72-1.55-.54.24-1.05.46-1.57.69.25.52.48,1.04.72,1.55l1.57-.69"/><path id="Path_1283" d="m299.94,378.8c-.4.64-.79,1.28-1.19,1.93l2.22-.42c.4-.65.8-1.3,1.21-1.94l-2.25.44Z"/><path id="Path_1284" d="m333.14,375.56c.32-.48.64-.96.96-1.44l-.17-.2c-.33-.35-.74-.63-1.2-.8-.32.5-.65.96-.98,1.44.34.06.65.21.91.44l.48.56Z"/><path id="Path_1285" d="m301.15,376.86c-.4.65-.8,1.3-1.21,1.94l2.25-.43c.41-.65.82-1.3,1.22-1.94l-2.26.43Z"/><path id="Path_1286" d="m316.35,299.98c-.23-.5-.44-1.01-.65-1.5-.55.23-1.06.45-1.57.69.21.5.43.99.66,1.5.53-.23,1.05-.46,1.56-.69"/><path id="Path_1287" d="m332.73,373.12c.45.17.86.45,1.2.8l.17.2c.3-.48.6-.96.91-1.46-.41-.4-.88-.73-1.4-.96-.29.47-.57.96-.87,1.42"/><path id="Path_1288" d="m335.78,291.74c-.29-.48-.56-.96-.87-1.44l-1.57.65c.3.48.62.94.91,1.42.51-.22,1.02-.42,1.53-.63"/><path id="Path_1289" d="m302.96,425.44c.25.52.48,1.05.73,1.53.53-.18,1.07-.36,1.62-.54-.26-.48-.51-1.01-.75-1.53-.55.18-1.07.36-1.6.54"/><path id="Path_1290" d="m302.34,276.51c-.55.25-1.07.5-1.6.74.35.45.7.9,1.05,1.37.53-.26,1.06-.5,1.6-.74-.35-.46-.7-.91-1.04-1.37"/><path id="Path_1291" d="m318.26,271.58c.56-.22,1.12-.41,1.69-.63-.4-.44-.8-.9-1.21-1.34-.56.21-1.11.42-1.68.64.4.44.8.89,1.2,1.33"/><path id="Path_1292" d="m289.16,431.81l-.07.05c-.43.35-.97.55-1.53.58.13.54.26,1.09.4,1.6.58-.08,1.13-.27,1.63-.57-.15-.54-.3-1.07-.43-1.66"/><path id="Path_1293" d="m289.16,431.81c-.13-.57-.26-1.19-.38-1.8-.26.19-.53.38-.75.55-.18.16-.41.25-.65.25-.07,0-.11-.07-.18-.08.11.58.24,1.15.37,1.72.56-.03,1.09-.23,1.53-.58l.07-.05"/><path id="Path_1294" d="m304.4,279.27c-.34-.47-.68-.93-1.02-1.39-.54.25-1.07.49-1.6.74.34.45.68.91,1.02,1.38.53-.25,1.07-.49,1.6-.73"/><path id="Path_1295" d="m319.45,272.92c.56-.22,1.12-.41,1.68-.62-.4-.45-.79-.9-1.2-1.35-.56.21-1.12.41-1.68.63.4.44.8.89,1.2,1.34"/><path id="Path_1296" d="m302.27,423.92c.22.53.45,1.03.69,1.53.52-.18,1.06-.36,1.6-.54-.24-.5-.47-1-.69-1.53-.55.18-1.07.36-1.6.54"/><path id="Path_1297" d="m250.03,443.4c-2.79,3.91-15.08-6.7-27.92-7.82-12.84-1.12-32.77,2.8-32.77,2.8-.21-1.75-.28-3.52-.23-5.29-.53.37-.85.6-.87.62-.26.18-.54.33-.83.46,0,1.47.09,2.94.26,4.4l.22,1.79,1.77-.35c.2-.04,19.86-3.85,32.3-2.77,6,.53,12.02,3.29,16.87,5.5,3.72,1.72,6.94,3.19,9.35,3.19,1.27.07,2.49-.52,3.22-1.56.96-1.35.75-4.98-.09-9.63-.63-.08-1.24-.28-1.79-.6.93,4.58,1.3,8.15.51,9.25"/><path id="Path_1298" d="m247.59,433.08c1.07,4.85,1.55,8.37,1.07,9.35-.61.88-5.33-1.28-8.44-2.71-5.08-2.33-11.39-5.23-17.97-5.79-1.68-.15-3.45-.22-5.29-.22-8.77.2-17.51,1.1-26.14,2.69-.1-1.48-.09-2.96,0-4.44-.72.45-1.29.83-1.72,1.12-.06,1.77.02,3.53.23,5.29,0,0,19.93-3.91,32.77-2.79,12.84,1.12,25.13,11.71,27.92,7.81.79-1.09.42-4.67-.51-9.24l-.04-.02s-.72-.42-1.88-1.05"/><path id="Path_1299" d="m183.01,276.65c.05-1.83,1.19-3.45,2.89-4.13,10.88-3.49,22.25-5.2,33.68-5.07,1.01,0,2.03,0,3.08.04,18.34.48,32.2,10.83,36.35,14.29l.09-2.09c-5.24-4.15-18.83-13.43-36.4-13.89-1.06-.03-2.09-.04-3.11-.04-11.63-.13-23.2,1.62-34.27,5.18-2.36.92-3.93,3.17-3.99,5.7v16.73l1.68.3v-17.03Z"/><path id="Path_1300" d="m251.95,433.17c-.33,0-.65-.07-.96-.19.12.6.24,1.2.34,1.77.21.05.42.08.63.09.79-.02,1.57-.26,2.22-.71.02-.8.04-1.6.05-2.41-.42.88-1.3,1.44-2.27,1.43"/><path id="Path_1301" d="m187.23,432.39c-.51.42-1.15.66-1.81.68-.78-.02-1.49-.43-1.9-1.09l-1.55.75c.71,1.23,2.02,2,3.45,2.02.71-.03,1.4-.22,2.02-.56,0-.67,0-1.32.03-1.97l-.24.18"/><path id="Path_1302" d="m181.34,296.78v132.52l1.68-.83v-131.39l-1.68-.3Z"/><path id="Path_1303" d="m183.02,430.34l-1.6.78c.08.56.27,1.11.55,1.6l1.55-.76c-.32-.48-.5-1.04-.49-1.62"/><path id="Path_1304" d="m183.02,295.38v-1.71l-1.68-.3v1.71l1.68.3Z"/><path id="Path_1305" d="m183.02,297.09v-1.71l-1.68-.3v1.71l1.68.3Z"/><path id="Path_1306" d="m183.01,430.33v-1.86l-1.68.82v1.04c0,.27.03.53.08.79l1.6-.78h0Z"/><path id="Path_1307" d="m191.06,429.85c-.09.69-.17,1.38-.22,2.1,4.5-2.83,14.4-8.1,25.69-8.1,12.62,0,26.18,6.61,31.06,9.23-.16-.69-.32-1.4-.5-2.14-5.82-3-18.6-8.75-30.56-8.75-10.86,0-20.41,4.65-25.47,7.67"/><path id="Path_1308" d="m250.34,432.7s-.5-.29-1.28-.72c.17.74.33,1.47.47,2.18.55.31,1.16.52,1.79.59-.1-.57-.22-1.16-.34-1.77-.22-.07-.44-.16-.64-.28"/><path id="Path_1309" d="m189.12,433.09c.02-.71.05-1.41.1-2.09-.86.56-1.47.99-1.77,1.21-.04.65-.05,1.3-.04,1.97.29-.13.57-.28.83-.46.02-.02.34-.26.87-.62"/><path id="Path_1310" d="m247.59,433.08c1.17.62,1.85,1.03,1.88,1.05l.05.03c-.14-.71-.3-1.44-.47-2.19-.52-.28-1.15-.62-1.95-1.04.17.74.34,1.44.49,2.15"/><path id="Path_1311" d="m191.06,429.85c-.71.42-1.31.8-1.84,1.15-.06.67-.09,1.38-.1,2.09.42-.3,1-.69,1.72-1.14.05-.72.12-1.41.22-2.1"/><path id="Path_1312" d="m184.69,276.65c.05-1.12.75-2.12,1.78-2.55,10.7-3.41,21.88-5.08,33.12-4.96.99,0,2,0,3.02.04,19.72.52,34.39,13.03,36.31,14.74l.09-2.13c-4.15-3.47-18.02-13.81-36.35-14.29-1.05-.03-2.07-.04-3.08-.04-11.43-.13-22.8,1.58-33.68,5.07-1.7.68-2.83,2.3-2.89,4.13v17.03l1.68.31v-17.34Z"/><path id="Path_1313" d="m186.2,431.07c-.22.19-.49.3-.78.32-.13-.02-.26-.08-.35-.18l-1.55.76c.41.66,1.12,1.07,1.9,1.09.66-.02,1.3-.26,1.81-.68l.24-.18c.04-.74.12-1.47.21-2.19-.94.64-1.47,1.05-1.47,1.05"/><path id="Path_1314" d="m255.09,389.18l-2.17,41.16c-.04.73-.43,1.15-.96,1.15-.27,0-.53-.09-.75-.24,0,0-.26-.15-.68-.39.16.72.32,1.42.45,2.11.31.12.65.18.98.19.97,0,1.86-.56,2.27-1.43.29-14.13.65-28.42,1.05-42.6l-.19.04Z"/><path id="Path_1315" d="m255.48,381.77l-.21,3.95h.09s.11-3.95.11-3.95"/><path id="Path_1316" d="m184.69,297.39l-1.68-.3v131.39l1.68-.82v-130.27Z"/><path id="Path_1317" d="m255.09,389.18l.18-.04c.02-.57.04-1.15.05-1.72l-.14.03-.09,1.72Z"/><path id="Path_1318" d="m184.69,430.33v-.8l-1.67.82c0,.58.17,1.15.49,1.63l1.55-.76c-.26-.21-.4-.54-.37-.88"/><path id="Path_1319" d="m184.69,293.98l-1.68-.3v1.71l1.68.3v-1.71Z"/><path id="Path_1320" d="m255.27,385.72l-.09,1.73.14-.03c.02-.57.03-1.15.05-1.72h-.09Z"/><path id="Path_1321" d="m184.69,297.39v-1.7l-1.68-.3v1.71l1.68.3Z"/><path id="Path_1322" d="m184.69,427.66l-1.68.82v1.86h0s1.67-.81,1.67-.81v-1.87Z"/><path id="Path_1323" d="m192.67,427.01c-.39.41-.84.76-1.32,1.06-.12.58-.21,1.19-.29,1.78,5.06-3.02,14.6-7.67,25.46-7.67,11.98,0,24.75,5.77,30.57,8.75-.17-.7-.34-1.41-.53-2.15-6.4-3.18-18.49-8.28-30.05-8.28-8.36.21-16.54,2.44-23.85,6.51"/><path id="Path_1324" d="m191.46,427.68c-.03.13-.08.26-.1.4.48-.3.92-.65,1.32-1.06-.41.22-.83.44-1.21.66"/><path id="Path_1325" d="m188.17,429.69c-.17.11-.35.24-.5.33-.09.73-.17,1.44-.21,2.19.3-.22.91-.65,1.77-1.21.07-.67.15-1.32.26-1.95l-1.31.64Z"/><path id="Path_1326" d="m248.54,429.8c.18.73.35,1.46.51,2.18.77.42,1.25.7,1.28.72.2.12.42.22.64.28-.14-.68-.29-1.38-.45-2.1-.44-.26-1.12-.62-1.98-1.07"/><path id="Path_1327" d="m188.17,429.69l1.31-.64.03-.21c-.5.3-.94.58-1.34.85"/><path id="Path_1328" d="m191.35,428.07c-.12.09-.24.16-.37.24l-1.52.73c-.09.64-.18,1.28-.25,1.96.52-.34,1.12-.73,1.84-1.15.09-.59.16-1.2.29-1.78"/><path id="Path_1329" d="m246.58,428.79c.19.74.36,1.44.53,2.15.8.41,1.43.75,1.95,1.04-.15-.72-.32-1.43-.51-2.18-.57-.3-1.22-.64-1.97-1.01"/><path id="Path_1330" d="m189.5,428.84c0,.07-.01.14-.03.21l1.52-.74c.13-.07.25-.14.37-.23.03-.14.08-.26.1-.4-.73.41-1.37.79-1.96,1.16"/><path id="Path_1331" d="m279.36,473.73l-.29-18.45v17.52c0,.33.11.66.29.93"/><path id="Path_1332" d="m279.63,384.44l1.08,68.65c.09-.02.15-.08.23-.09l1.44-.23-.77-49.22-1.02-19.31-.96.19Z"/><path id="Path_1333" d="m263.76,212.63c.06-1.33,1.19-2.35,2.52-2.29.5.02.98.2,1.38.51l8.43,6.51c.58.45.92,1.13.93,1.87l1.09,69.38c.42-.23,1-.55,1.67-.9l-1.08-68.51c-.02-1.25-.6-2.42-1.59-3.18l-8.42-6.51c-1.78-1.38-4.35-1.05-5.73.73-.51.66-.81,1.46-.85,2.29-.5,10.15-1.67,34.82-3,67.15.69.56,1.23,1,1.62,1.34,1.37-33.19,2.57-58.46,3.05-68.4"/><path id="Path_1334" d="m281.62,509.96c.01,1.34-1.06,2.44-2.4,2.45-.31,0-.61-.05-.9-.16l-21.7-8.51c-.93-.35-1.54-1.24-1.54-2.23.02-21.66.33-45.26.82-69.34-.34.83-.95,1.52-1.72,1.98-.46,23.4-.75,46.29-.78,67.37,0,1.68,1.03,3.19,2.6,3.8l21.72,8.5c.47.19.98.28,1.49.28.83,0,1.65-.25,2.33-.73,1.12-.77,1.78-2.06,1.77-3.42l-.56-35.38c-.96.04-1.55.07-1.66.07l.55,35.33Z"/><path id="Path_1335" d="m279.58,381.03l.84-.16-1.2-22.63.36,22.79Z"/><path id="Path_1336" d="m279.6,382.73l.03,1.71.96-.19-.1-1.69-.9.17Z"/><path id="Path_1337" d="m279.57,381.03l.03,1.71.9-.18-.08-1.69-.85.16Z"/><path id="Path_1338" d="m279.84,291.49c-.07.03-.13.07-.2.11-.35.19-.56.57-.53.96l.74,14.29.23.03-.25-15.4Z"/><path id="Path_1339" d="m280.13,310.28h-.09s.14,2.5.14,2.5l-.05-2.5Z"/><path id="Path_1340" d="m280.1,308.59l-.03-1.7-.22-.03.09,1.71.15.02Z"/><path id="Path_1341" d="m280.13,310.28l-.03-1.7-.15-.02.09,1.71h.09Z"/><path id="Path_1342" d="m278.15,290.68c.2-.22.43-.41.69-.56.26-.14.61-.32.96-.52l-.03-1.88c-.67.35-1.24.67-1.66.9l.04,2.06Z"/><path id="Path_1343" d="m280.59,384.25l1.02,19.31-.3-19.45-.72.14Z"/><path id="Path_1344" d="m278.5,312.81l.71,45.43,1.2,22.63.83-.16-.34-22.58-2.39-45.32Z"/><path id="Path_1345" d="m280.5,382.56l.09,1.69.72-.13-.03-1.71-.77.15Z"/><path id="Path_1346" d="m280.41,380.87l.09,1.7.78-.15-.03-1.71-.84.16Z"/><path id="Path_1347" d="m279.86,306.86l-.75-14.29c-.02-.4.18-.77.53-.96l.21-.11-.04-1.88c-.36.2-.71.38-.96.52-.26.15-.5.33-.7.56l.26,16,1.46.18Z"/><path id="Path_1348" d="m280.89,358.13l-.72-45.36-.13-2.52-1.58-.21.04,2.75,2.39,45.33Z"/><path id="Path_1349" d="m279.95,308.57l-.09-1.71-1.46-.19.03,1.69,1.53.21Z"/><path id="Path_1350" d="m280.04,310.27l-.09-1.71-1.53-.2.03,1.7,1.59.21Z"/><path id="Path_1351" d="m280.71,453.09l.33,21.53c.11,0,.7-.03,1.68-.07l-.35-21.77-1.44.23c-.08.02-.15.05-.23.09"/><path id="Path_1352" d="m259.56,304.17l.89-16.85c0-1.19-.46-2.33-1.28-3.19l-.23-.21c-.26,6.42-.53,13.12-.79,20.06l1.42.19Z"/><path id="Path_1353" d="m258,307.35c-.88,23.02-1.77,48.43-2.53,74.42l3.91-74.25-1.38-.18Z"/><path id="Path_1354" d="m258.07,305.66l1.4.19.09-1.69-1.42-.19c-.02.56-.05,1.12-.07,1.69"/><path id="Path_1355" d="m259.48,305.85l-1.4-.19c-.02.56-.05,1.11-.07,1.69l1.38.18.09-1.68Z"/><path id="Path_1356" d="m255.89,432.17c.3-14.39.66-28.93,1.07-43.36l-.18.04-2.19,41.58c-.02.46-.15.91-.37,1.31-.02.8-.04,1.6-.05,2.41.76-.46,1.36-1.15,1.72-1.97"/><path id="Path_1357" d="m260.3,282.9c.12.11.22.27.33.4l.09-2.26c-.39-.34-.92-.79-1.62-1.34l-.09,2.09c.73.61,1.2,1.03,1.28,1.12"/><path id="Path_1358" d="m256.97,385.4l.09-.02c.04-1.21.07-2.42.1-3.63l-.19,3.65Z"/><path id="Path_1359" d="m256.87,387.13l-.09,1.72.18-.04c0-.56.03-1.14.05-1.71l-.13.02Z"/><path id="Path_1360" d="m256.97,385.4l-.09,1.72.13-.02c.02-.57.04-1.15.05-1.72l-.08.02Z"/><path id="Path_1361" d="m259.15,284.13c.82.86,1.28,2,1.28,3.19l-.88,16.85.24.03c.28-7.24.56-14.22.83-20.9-.11-.12-.21-.28-.32-.4s-.56-.51-1.28-1.12l-.09,2.14.23.21"/><path id="Path_1362" d="m254.23,431.74c.22-.4.35-.85.38-1.31l2.19-41.58-1.52.29c-.4,14.18-.75,28.46-1.05,42.6"/><path id="Path_1363" d="m256.97,385.4l.19-3.65c.75-25.91,1.64-51.24,2.52-74.19l-.28-.03-3.91,74.23-.11,3.94,1.6-.3Z"/><path id="Path_1364" d="m255.32,387.42c-.02.56-.03,1.14-.05,1.72l1.51-.29.09-1.72-1.55.3Z"/><path id="Path_1365" d="m259.73,305.89c.02-.56.05-1.12.07-1.68l-.25-.04-.09,1.69.26.03Z"/><path id="Path_1366" d="m259.67,307.56c.02-.56.05-1.11.07-1.69l-.26-.03-.09,1.68.29.04Z"/><path id="Path_1367" d="m255.37,385.71c-.02.56-.03,1.14-.05,1.72l1.55-.3.09-1.72-1.6.31Z"/><path id="Path_1368" d="m279.07,455.27v-.03c.04-.99.69-1.86,1.64-2.16l-1.08-68.65-1.67.32,1.11,70.52Z"/><path id="Path_1369" d="m262.33,282.75c1.38-33.72,2.6-59.58,3.11-70.02,0-.27.17-.52.42-.63.1-.05.21-.08.32-.08.16,0,.32.06.45.16l8.42,6.52c.18.14.28.34.29.56l1.11,70.89c.39-.62.93-1.14,1.57-1.5l.09-.04-1.1-69.38c-.01-.73-.35-1.42-.93-1.87l-8.43-6.51c-1.05-.82-2.56-.64-3.38.41-.31.39-.49.87-.51,1.38-.48,9.94-1.68,35.21-3.05,68.4.4.34.66.58.73.65.33.32.62.67.88,1.06"/><path id="Path_1370" d="m279.36,473.73l.57,36.25c0,.41-.32.75-.73.75-.09,0-.19-.02-.27-.05l-21.72-8.5c-.28-.11-.47-.38-.47-.68.03-34.7.8-74.33,1.9-113.02l-.16.03-2.21,42c-.03.57-.16,1.13-.38,1.65-.5,24.07-.8,47.68-.83,69.34,0,.99.62,1.88,1.55,2.23l21.71,8.5c1.23.49,2.63-.11,3.13-1.34.12-.3.18-.62.17-.94l-.56-35.34h-.09c-.66.03-1.28-.31-1.6-.89"/><path id="Path_1371" d="m276.82,312.88l1.08,68.47,1.67-.32-.36-22.79-2.39-45.36Z"/><path id="Path_1372" d="m258.66,385.07h.08c.03-1.05.06-2.1.09-3.15l-.17,3.15Z"/><path id="Path_1373" d="m277.93,383.06l.03,1.7,1.67-.32-.03-1.7-1.67.32Z"/><path id="Path_1374" d="m258.57,386.79l-.09,1.72.16-.02c0-.57.03-1.15.05-1.72l-.12.03Z"/><path id="Path_1375" d="m258.74,385.05h-.08s-.09,1.74-.09,1.74l.12-.03c.02-.56.03-1.14.05-1.72"/><path id="Path_1376" d="m277.9,381.35l.03,1.71,1.67-.32-.03-1.71-1.67.32Z"/><path id="Path_1377" d="m276.46,290.15l.25,16.3,1.44.19-.73-13.98c-.05-.73.21-1.45.72-1.98l-.04-2.07-.08.05c-.65.35-1.19.87-1.57,1.5"/><path id="Path_1378" d="m279.22,358.24l-.72-45.43-.15-2.76-1.57-.21.05,3.05,2.4,45.35Z"/><path id="Path_1379" d="m278.26,308.34l-.09-1.71-1.44-.19.03,1.7,1.51.2Z"/><path id="Path_1380" d="m278.35,310.05l-.09-1.71-1.52-.2.03,1.7,1.57.21Z"/><path id="Path_1381" d="m278.18,306.64l.22.03-.25-15.99c-.5.53-.76,1.25-.72,1.98l.74,13.98Z"/><path id="Path_1382" d="m278.46,310.06h-.1s.15,2.75.15,2.75l-.05-2.75Z"/><path id="Path_1383" d="m278.43,308.36l-.03-1.7-.23-.03.09,1.71.16.02Z"/><path id="Path_1384" d="m278.46,310.06l-.03-1.7-.16-.02.09,1.71h.1Z"/><path id="Path_1385" d="m279.07,455.23v.04l.29,18.45c.33.57.95.91,1.6.89h.09l-.34-21.53c-.94.3-1.6,1.16-1.64,2.15"/><path id="Path_1386" d="m258.49,388.52l-1.54.29c-.4,14.44-.75,28.97-1.07,43.36.22-.52.35-1.08.39-1.65l2.21-42Z"/><path id="Path_1387" d="m261.23,304.39l.25.03c.29-7.52.58-14.75.86-21.68-.25-.38-.55-.74-.88-1.06-.07-.07-.34-.31-.73-.65-.03.75-.06,1.52-.09,2.27.96,1.15,1.49,2.61,1.49,4.11l-.9,16.98Z"/><path id="Path_1388" d="m261.34,307.79l-.29-.04-3.89,74c-.04,1.21-.07,2.42-.1,3.63l1.6-.31.16-3.16c.75-25.88,1.64-51.19,2.52-74.12"/><path id="Path_1389" d="m261.41,306.1c.02-.56.05-1.12.07-1.69l-.25-.03-.09,1.68.27.04Z"/><path id="Path_1390" d="m258.57,386.79l-1.56.3c-.02.57-.03,1.14-.05,1.72l1.53-.3.09-1.72Z"/><path id="Path_1391" d="m257.05,385.38c-.02.57-.03,1.15-.05,1.72l1.56-.3.09-1.72-1.61.31Z"/><path id="Path_1392" d="m261.34,307.79c.02-.56.05-1.11.07-1.68l-.27-.04-.09,1.68.29.04Z"/><path id="Path_1393" d="m261.23,304.39l.9-16.98c0-1.5-.53-2.95-1.49-4.11-.27,6.68-.55,13.66-.83,20.9l1.42.19Z"/><path id="Path_1394" d="m259.67,307.56c-.88,22.95-1.77,48.27-2.52,74.18l3.89-74-1.38-.18Z"/><path id="Path_1395" d="m261.13,306.06l.09-1.68-1.41-.19c-.03.56-.05,1.11-.07,1.68l1.39.19Z"/><path id="Path_1396" d="m261.05,307.75l.09-1.68-1.39-.19c-.02.56-.04,1.12-.07,1.69l1.38.18Z"/><path id="Path_1397" d="m37.39,212.05h.06c1.01-.04,1.91-.64,2.34-1.55,4.85-8.08,11.21-15.16,18.74-20.83,7.33-5.36,15.23-9.89,23.57-13.48,2.47-1.05,4.87-2.27,7.16-3.67l1.16-.82-28.47-59.34c-.85-1.77-2.95-2.55-4.75-1.75-.09.04-8.41,3.77-19.14,7.9-8.67,3.34-28.97,13.37-30.39,34.54l-.03.44,27.42,56.9c.39.95,1.29,1.6,2.32,1.67m1.28-91.98c10.89-4.19,19.22-7.93,19.22-7.93.97-.42,2.09,0,2.55.94l27.86,58.07c-4.19,2.94-17.43,7.06-30.79,17.2-7.72,5.81-14.25,13.06-19.2,21.36-.49.92-1.27.91-1.72-.04l-27.24-56.51c1.26-18.85,18.43-28.9,29.32-33.09"/><path id="Path_1398" d="m38.31,209.69c4.95-8.3,11.47-15.55,19.19-21.36,13.36-10.13,26.6-14.26,30.79-17.2l-27.86-58.07c-.46-.95-1.59-1.36-2.55-.94,0,0-8.33,3.74-19.22,7.93-10.89,4.19-28.06,14.23-29.32,33.09l27.24,56.5c.45.94,1.23.96,1.73.04m.95-88.07c10.81-4.15,19.22-7.92,19.31-7.97.13-.05.28,0,.35.13l27.21,56.73c-1.34.74-3.21,1.6-5.44,2.64-8.55,3.71-16.67,8.35-24.2,13.85-7.53,5.7-13.96,12.73-18.98,20.73l-26.47-54.9c1.54-18.93,20.22-28.12,28.22-31.2"/><path id="Path_1399" d="m88.79,167.97c.41.88,1.19,1.54,2.14,1.78.24.06.48.08.73.09.72,0,1.42-.25,2-.69l2.53-1.93c1.47-1.18,1.96-3.2,1.19-4.92l-26.42-55.21c-.78-1.67-2.77-2.39-4.44-1.6-.14.07-.27.14-.4.22l-2.54,1.63c-1.61,1.06-2.2,3.13-1.38,4.87l26.62,55.75Zm-24.33-59.21l2.54-1.63c.75-.51,1.77-.32,2.28.43.06.08.1.17.14.26l26.42,55.21c.44,1,.16,2.17-.69,2.86l-2.53,1.92c-.63.53-1.56.46-2.1-.17-.1-.12-.18-.25-.24-.39l-26.62-55.75c-.44-.98-.11-2.14.78-2.74"/><path id="Path_1400" d="m90.3,167.25c.32.76,1.19,1.12,1.95.8.14-.06.27-.14.38-.23l2.52-1.93c.85-.69,1.13-1.86.69-2.86l-26.42-55.21c-.37-.83-1.34-1.2-2.17-.83-.09.04-.18.09-.26.14l-2.54,1.63c-.89.61-1.21,1.76-.78,2.74l26.63,55.75Zm-24.93-57.08l2.54-1.63,26.42,55.21c.1.28.02.6-.2.8l-2.39,1.83-26.56-55.6c-.08-.22,0-.47.18-.61"/><path id="Path_1401" d="m97.71,161.9c.41.88,1.19,1.54,2.14,1.78.24.06.48.09.73.09.72,0,1.43-.25,2-.7l2.52-1.91c1.48-1.18,1.97-3.21,1.18-4.93l-27.28-56.11c-.66-1.51-2.42-2.2-3.93-1.54-.35.15-.67.37-.94.65l-2.09,1.96c-1.31,1.3-1.68,3.28-.93,4.96l26.61,55.75Zm-24.55-59.49l2.09-1.96c.49-.54,1.32-.59,1.86-.1.16.14.28.31.35.51l27.28,56.11c.45,1,.17,2.17-.68,2.85l-2.53,1.93c-.63.53-1.57.45-2.1-.19-.1-.11-.17-.24-.23-.38l-26.6-55.75c-.44-1.03-.21-2.22.56-3.02"/><path id="Path_1402" d="m99.22,161.18c.31.75,1.17,1.11,1.93.8.14-.06.28-.14.4-.24l2.53-1.91c.84-.69,1.13-1.86.69-2.86l-27.3-56.11c-.26-.68-1.03-1.02-1.71-.75-.19.08-.37.19-.51.35l-2.09,1.96c-.77.81-.99,1.99-.56,3.02l26.62,55.75Zm-24.91-57.55l1.82-1.71,27.12,55.77c.09.28.02.58-.19.79l-2.39,1.84-26.55-55.62c-.12-.37-.04-.77.2-1.07"/><path id="Path_1403" d="m462.86,168.42l1.16.8c2.3,1.4,4.69,2.62,7.17,3.66,8.35,3.58,16.26,8.09,23.6,13.44,7.53,5.67,13.91,12.73,18.79,20.79.42.91,1.31,1.51,2.31,1.55h.09c1.03-.08,1.93-.75,2.29-1.72l27.03-59.9-.1-.52c-3.03-15.67-20.07-27.58-30.09-31.41-10.72-4.1-19.06-7.82-19.14-7.86-1.8-.79-3.9-.02-4.75,1.75l-28.35,59.42Zm29.86-58.7c.46-.95,1.59-1.36,2.55-.94,0,0,8.34,3.73,19.24,7.9,10.9,4.17,26.33,16.17,29.04,30.17l-26.82,59.41c-.43.95-1.19.98-1.69.06-4.98-8.29-11.52-15.53-19.26-21.32-13.38-10.1-26.63-14.2-30.82-17.13l27.75-58.13Z"/><path id="Path_1404" d="m495.8,184.98c7.73,5.79,14.27,13.04,19.24,21.32.5.92,1.26.9,1.69-.06l26.82-59.42c-2.71-13.99-18.15-25.99-29.04-30.17s-19.23-7.89-19.23-7.89c-.96-.43-2.09-.01-2.55.93l-27.74,58.14c4.19,2.93,17.43,7.03,30.82,17.13m-1.57-74.54c.07-.13.22-.18.36-.13.09.04,8.5,3.8,19.32,7.92,9.91,3.8,24.98,15.07,27.89,28.4l-26.01,57.62c-5.03-7.96-11.46-14.95-18.98-20.61-7.54-5.48-15.67-10.11-24.23-13.8-2.22-1.02-4.1-1.88-5.45-2.63l27.09-56.77Z"/><path id="Path_1405" d="m455.9,159.03c-.77,1.72-.28,3.75,1.2,4.92l2.53,1.91c.77.61,1.77.83,2.73.6.94-.24,1.73-.9,2.13-1.78l26.5-55.82c.79-1.75.2-3.81-1.4-4.86l-2.55-1.62c-.8-.53-1.8-.69-2.73-.42-.93.27-1.69.93-2.1,1.81l-26.3,55.26Zm27.81-54.54c.37-.83,1.34-1.2,2.17-.83.08.04.16.08.24.13l2.55,1.63c.89.6,1.22,1.75.79,2.73l-26.5,55.81c-.32.76-1.19,1.12-1.96.8-.14-.06-.27-.13-.38-.23l-2.53-1.93c-.85-.69-1.14-1.86-.7-2.86l26.31-55.26Z"/><path id="Path_1406" d="m458.11,162.61l2.53,1.93c.63.53,1.56.45,2.09-.18.1-.12.18-.25.24-.39l26.5-55.81c.44-.98.11-2.14-.78-2.74l-2.55-1.63c-.75-.5-1.77-.3-2.27.46-.05.08-.1.16-.13.24l-26.31,55.27c-.44,1-.15,2.17.7,2.85m.8-2.14l26.32-55.26,2.54,1.62c.18.14.25.38.18.6l-26.28,55.78-.03-.02-2.53-1.91c-.21-.21-.28-.52-.2-.8"/><path id="Path_1407" d="m446.97,152.97c-.78,1.72-.29,3.75,1.19,4.93l2.53,1.91c.57.44,1.27.68,2,.69,1.24,0,2.36-.73,2.85-1.87l26.51-55.8c.75-1.69.37-3.67-.94-4.96l-2.09-1.96c-1.16-1.17-3.05-1.19-4.23-.03-.27.27-.49.59-.64.94l-27.18,56.15Zm28.68-55.43c.26-.68,1.03-1.02,1.71-.76.19.07.37.19.51.35l2.09,1.96c.78.8,1,1.99.57,3.02l-26.5,55.81c-.31.76-1.18,1.12-1.94.8-.14-.06-.27-.14-.39-.24l-2.54-1.91c-.84-.69-1.13-1.86-.69-2.85l27.17-56.17Z"/><path id="Path_1408" d="m449.18,156.56l2.53,1.91c.63.53,1.57.45,2.1-.18.1-.12.18-.24.23-.38l26.5-55.81c.44-1.03.21-2.22-.56-3.02l-2.09-1.96c-.49-.54-1.32-.59-1.86-.1-.16.14-.28.32-.35.51l-27.17,56.16c-.44,1-.16,2.17.69,2.85m.82-2.13l27-55.82,1.81,1.71c.25.3.33.7.21,1.07l-26.29,55.77h-.02s-2.54-1.94-2.54-1.94c-.21-.21-.28-.51-.19-.79"/><path id="Path_1409" d="m466.64,54.88l1.82-2.82c-.55-.35-56.42-35.45-191.11-35.45S84.02,51.69,83.44,52.04l1.75,2.85c.56-.35,58.55-34.94,192.14-34.94s188.76,34.57,189.3,34.92"/><path id="Path_1410" d="m113.59,120.73l1.75,2.85c.49-.3,49.98-29.91,157.74-29.91s162.89,32.52,163.44,32.85l1.73-2.87c-.56-.33-56.34-33.33-165.17-33.33s-159.01,30.1-159.5,30.4"/><path id="Path_1411" d="m139.5,86.2c-.71.91-1.57,1.69-2.54,2.3-1.18.77-2.44,1.39-3.77,1.86-1.39.53-2.85.86-4.33,1-1.32.13-2.65.03-3.94-.31-1.2-.33-2.32-.92-3.28-1.72-1.03-.9-1.85-2.01-2.41-3.25l-8.05,2.95c1.59,4.34,5.02,7.76,9.37,9.33,4.17,1.4,9.29,1,15.36-1.22,2.38-.84,4.62-2.01,6.67-3.48,1.79-1.28,3.33-2.87,4.55-4.69,1.11-1.67,1.84-3.57,2.12-5.56.26-2.06,0-4.16-.73-6.1-.5-1.46-1.25-2.83-2.22-4.03-.83-1.01-1.85-1.85-3-2.49-1.14-.61-2.38-1.03-3.66-1.23-1.4-.22-2.82-.33-4.24-.32-1.55.02-3.09.12-4.63.3-1.59.2-3.23.4-4.91.63-1.81.25-3.37.4-4.66.46-1.09.06-2.19.02-3.28-.13-.78-.1-1.53-.4-2.16-.88-.57-.5-1-1.14-1.24-1.86-.3-.79-.38-1.64-.25-2.47.16-.85.52-1.65,1.05-2.35.64-.82,1.4-1.54,2.27-2.11,1.08-.71,2.25-1.29,3.47-1.72,5.7-2.08,9.58-.98,11.64,3.32l8.13-2.97c-.79-1.96-1.99-3.72-3.53-5.16-1.46-1.35-3.22-2.36-5.13-2.94-2.08-.63-4.27-.85-6.43-.65-2.54.22-5.04.79-7.42,1.7-2.22.78-4.31,1.87-6.23,3.24-1.63,1.17-3.06,2.6-4.22,4.24-1.03,1.46-1.74,3.12-2.06,4.87-.31,1.73-.22,3.5.27,5.18.14.52.31,1.02.53,1.51.21.47.43.93.67,1.38.75,1.57,1.9,2.91,3.34,3.9,1.4.89,2.97,1.48,4.62,1.73,1.96.3,3.94.37,5.92.22,2.18-.15,4.56-.38,7.15-.7,1.78-.19,3.37-.32,4.72-.4,1.18-.08,2.36-.02,3.53.18.88.14,1.71.48,2.43,1,.66.51,1.16,1.21,1.42,2,.35.9.45,1.88.29,2.84-.18.96-.58,1.86-1.18,2.63"/><path id="Path_1412" d="m161.77,39.78l-20.96,5.26,1.09,4.35,7.92-2,5.5,21.94,5.03-1.26-5.5-21.94,8.01-2.01-1.09-4.35Z"/><path id="Path_1413" d="m182.79,47.67c.85-1.51,2.04-2.8,3.49-3.76,1.51-.97,3.21-1.61,4.98-1.86,1.38-.23,2.79-.25,4.17-.06,1.21.17,2.38.57,3.45,1.17,1.01.58,1.9,1.37,2.59,2.32.74,1,1.3,2.13,1.65,3.33l8.86-1.37c-.58-2.31-1.59-4.48-2.97-6.42-1.46-1.92-3.34-3.47-5.5-4.54-1.94-1.06-4.07-1.75-6.26-2.04-2.39-.29-4.8-.24-7.17.16-3.04.42-5.97,1.43-8.63,2.96-2.48,1.47-4.59,3.48-6.18,5.89-3.18,4.89-4.22,10.97-3.09,18.23.46,3.34,1.46,6.58,2.94,9.61,1.33,2.66,3.21,5.01,5.51,6.89,2.22,1.81,4.83,3.08,7.63,3.7,3.01.65,6.11.72,9.15.21,2.5-.35,4.94-1.08,7.22-2.16,2.07-1.01,3.92-2.4,5.47-4.11,1.53-1.67,2.67-3.67,3.32-5.84.69-2.36.98-4.83.84-7.28l-8.79,1.36c.2,2.59-.62,5.16-2.29,7.15-1.85,1.93-4.33,3.14-7,3.42-1.77.31-3.59.21-5.32-.27-1.65-.48-3.17-1.35-4.41-2.54-1.38-1.35-2.49-2.95-3.28-4.72-.97-2.17-1.63-4.46-1.96-6.81-.4-2.35-.46-4.75-.17-7.11.22-1.93.82-3.8,1.75-5.5"/><path id="Path_1414" d="m253.25,68.28l-21.19,1.37-2.49-38.67-8.88.56,2.98,46.39,30.07-1.93-.49-7.73Z"/><path id="Path_1415" d="m285.39,64.12l4.15,11.91,9.35.08-17.13-46.61-9.72-.07-17.03,46.37,8.89.06,4.15-11.85,17.34.12Zm-8.6-26.97l6.56,19.81-13.16-.09,6.6-19.71Z"/><path id="Path_1416" d="m340.08,54.54c2.02-2.06,3.21-4.79,3.35-7.67.34-2.78-.17-5.59-1.48-8.07-.58-1.11-1.36-2.1-2.31-2.91-.95-.8-2.02-1.45-3.17-1.93-1.28-.53-2.61-.93-3.98-1.19-1.44-.28-3.05-.51-4.79-.68l-20.55-1.96-4.41,46.27,8.86.84,1.74-18.29,8.62.83c1,.08,1.98.33,2.89.75.86.4,1.64.94,2.32,1.6.7.68,1.29,1.47,1.73,2.34.47.92.84,1.9,1.1,2.9l2.97,11.91,9.51.91-3.42-12.67c-.55-2.12-1.42-4.14-2.59-5.99-1.01-1.54-2.45-2.75-4.14-3.48l.02-.1c2.87-.28,5.57-1.48,7.7-3.43m-8.31-2.79c-.88.52-1.86.85-2.87.96-1.35.15-2.72.15-4.07,0l-10.78-1.03,1.31-13.75,11.5,1.08c2.19.05,4.3.83,5.98,2.23,1.32,1.42,1.89,3.38,1.55,5.3-.08,1.09-.36,2.16-.82,3.16-.4.83-1.02,1.53-1.8,2.03"/><path id="Path_1417" d="m389.54,49.82l1.49-7.44-33.75-6.77-9.13,45.58,34.77,6.96,1.48-7.41-26.04-5.21,2.43-12.13,23.39,4.69,1.49-7.45-23.39-4.68,2.23-11.15,25.04,5.01Z"/><path id="Path_1418" d="m442.84,59.76c-2.04-1.53-4.29-2.77-6.67-3.69-2.18-.89-4.47-1.47-6.8-1.72-2-.22-4.02-.1-5.97.34-1.74.4-3.37,1.18-4.78,2.27-1.39,1.08-2.5,2.47-3.26,4.05-.24.47-.44.97-.6,1.47-.15.5-.29.99-.41,1.48-.48,1.67-.53,3.44-.12,5.13.46,1.6,1.24,3.08,2.3,4.36,1.26,1.52,2.69,2.9,4.27,4.1,1.72,1.34,3.66,2.75,5.8,4.24,1.46,1.05,2.72,2,3.79,2.85.94.72,1.78,1.55,2.51,2.48.56.68.96,1.49,1.15,2.36.16.82.07,1.68-.26,2.45-.34.9-.92,1.7-1.67,2.31-.77.6-1.67,1-2.63,1.17-1.13.21-2.29.22-3.43.03-1.39-.21-2.75-.59-4.05-1.12-1.39-.54-2.7-1.25-3.9-2.13-1.07-.78-2-1.75-2.73-2.85-.69-1.05-1.13-2.24-1.31-3.48-.17-1.35-.05-2.73.37-4.03l-7.94-3.16c-1.7,4.3-1.42,9.14.78,13.21,2.18,3.83,6.27,6.93,12.28,9.31,2.33.95,4.79,1.57,7.29,1.84,2.18.24,4.39.08,6.52-.46,1.94-.51,3.75-1.45,5.29-2.74,1.57-1.36,2.78-3.09,3.51-5.04.6-1.43.94-2.94,1.03-4.48.05-1.31-.15-2.62-.58-3.85-.44-1.22-1.09-2.36-1.91-3.37-.9-1.09-1.89-2.11-2.95-3.05-1.16-1.02-2.38-1.97-3.66-2.85-1.32-.91-2.68-1.85-4.08-2.8-1.52-1.02-2.78-1.94-3.79-2.76-.86-.68-1.65-1.45-2.37-2.29-.51-.6-.86-1.32-1.02-2.09-.1-.75,0-1.52.31-2.21.29-.79.8-1.48,1.46-2,.68-.53,1.48-.89,2.33-1.06,1.02-.19,2.07-.22,3.1-.07,1.28.19,2.53.53,3.73,1.02,5.64,2.25,7.8,5.65,6.48,10.22l8.05,3.19c.71-1.99.99-4.11.8-6.21-.2-1.98-.83-3.89-1.87-5.6-1.14-1.85-2.63-3.47-4.37-4.77"/><path id="Path_1419" d="m401.48,57.79c1.04-1.07,1.76-2.41,2.07-3.87l-2.27-.65-1.04,5.13c.45-.1.88-.31,1.23-.6"/><path id="Path_1420" d="m408.08,54.61c-.4,1.49-1.01,2.9-1.82,4.21-.64,1.02-1.48,1.9-2.49,2.57-.93.6-1.99.96-3.09,1.05-.41.02-.82.02-1.23-.02l-.43,2.13,6.16,1.23,5.46-19.74-7.59-1.53-.2,1,7.24,2.09-2.01,7.01Z"/><path id="Path_1421" d="m401.48,57.79c-.36.3-.78.5-1.23.6l-.8,4.02c.41.04.82.05,1.23.03,1.1-.09,2.16-.45,3.09-1.05,1-.67,1.85-1.55,2.49-2.57.81-1.31,1.42-2.73,1.82-4.22l2.01-7-7.24-2.09-1.55,7.75,2.27.65c-.31,1.46-1.03,2.8-2.07,3.87"/><path id="Path_1422" d="m549.94,626.58l-65.6-31.98c-.37-.17-.8,0-.97.36-.03.06-.05.12-.06.19-6.42,39.52-31.14,66.42-35.11,70.53-.28.28-.73.28-1.01,0-.02-.02-.03-.03-.05-.05l-9.26-10.58c-.25-.3-.7-.34-1-.09,0,0-.01,0-.02.01-6.57,5.88-73.78,64.02-163.77,64.02s-151.52-58.37-158.05-64.78c-.29-.27-.75-.26-1.02.03-.02.02-.04.05-.06.08l-7.9,10.44c-.25.33-.71.4-1.04.15,0,0-.02-.01-.02-.02-20.03-16.86-35.5-67.02-37.6-74.08-.12-.38-.52-.59-.9-.47-.04.01-.08.03-.12.05L.4,624.05c-.32.17-.48.54-.38.89,20.26,65.74,61.62,111.6,66.61,116.98.27.28.71.3.99.03.01-.01.02-.02.03-.03l11.54-11.49c.27-.29.72-.3,1-.03.02.01.03.03.04.04,5.89,6.58,65.02,68.96,189.74,68.96s196-59.62,202.88-65.67c.29-.26.74-.23,1,.06.01.02.03.03.04.05l6.98,8.87c.25.31.71.37,1.04.13,46.95-36,66.57-108.37,68.4-115.44.08-.33-.09-.67-.4-.82m-509.21,67.6c-.96-.07-1.85-.54-2.44-1.31l-1.86-2.38c-1.16-1.53-1.03-3.68.31-5.06l39.43-39.38-39.46,37.26c-.69.71-1.69,1.02-2.67.85-.97-.19-1.79-.84-2.2-1.74-.09-.19-8.81-18.34-14.7-28.17-4.04-6.73-9.49-16.85-10.18-26.96l-.08-1.11,52.48-27.06c1.72-.87,3.82-.33,4.91,1.26.1.16,2.69,4.09,5.25,14.34,1.69,6.78,9.61,24.25,9.7,24.42.71,1.69.33,3.65-.96,4.95l-1.11,1.05c1.24-1.2,3.22-1.16,4.42.09.15.16.29.34.41.53l1.73,2.66c1,1.6.79,3.67-.52,5.03l-39.87,39.76c-.63.63-1.49.99-2.38,1h-.2m8.66,7.24c-.62.62-1.45.96-2.33.96h-.28c-.96-.1-1.83-.61-2.38-1.4l-1.54-2.16c-1.08-1.57-.9-3.68.42-5.05l40.33-40.25c.69-.69,1.65-1.05,2.62-.96.97.11,1.83.66,2.36,1.48l1.75,2.66c1,1.6.77,3.68-.55,5.03l-40.39,39.69Zm429.33,13.01s-80.39,76.86-205.64,76.86-199.61-78.48-199.61-78.48c-.72-.78-.72-1.98,0-2.77l39.01-41.89c.72-.77,1.92-.83,2.71-.13,0,0,68.72,61.28,157.9,61.28s163.1-58.93,163.1-58.93c.85-.65,2.05-.57,2.81.19l39.79,41.18c.72.76.7,1.96-.06,2.68m29.75-10.57l-1.54,2.15c-.56.79-1.43,1.3-2.39,1.4h-.27c-.87,0-1.71-.35-2.33-.97l-40.4-39.7c-1.31-1.36-1.53-3.43-.54-5.03l1.76-2.66c.52-.82,1.39-1.36,2.36-1.47.97-.08,1.93.27,2.61.96l40.34,40.26c1.32,1.37,1.5,3.48.42,5.05m35.91-71.57c-.7,10.11-6.14,20.23-10.18,26.97-5.89,9.82-14.61,27.98-14.71,28.16-.41.9-1.22,1.55-2.19,1.75-.17.03-.34.04-.52.05-.81-.01-1.58-.34-2.16-.91l-39.41-37.21,39.36,39.33c1.34,1.37,1.48,3.53.32,5.06l-1.86,2.38c-.59.77-1.48,1.24-2.44,1.31h-.2c-.9,0-1.75-.36-2.38-.99l-39.87-39.75c-1.3-1.36-1.52-3.44-.53-5.04l1.74-2.66c.9-1.47,2.82-1.92,4.28-1.02.19.12.36.25.52.4l-1.09-1.03c-1.29-1.3-1.67-3.26-.96-4.95.08-.18,8.01-17.65,9.7-24.42,2.55-10.25,5.14-14.18,5.25-14.34,1.09-1.58,3.18-2.12,4.9-1.26l52.49,27.06-.07,1.1Z"/><path id="Path_1423" d="m487.08,605.39c-.1.17-2.68,4.1-5.25,14.36-1.69,6.77-9.61,24.24-9.7,24.41-.71,1.69-.33,3.65.96,4.96l1.09,1.03c.06.03.12.07.17.1l.87.88,39.41,37.2c.58.56,1.35.88,2.16.89.17,0,.35-.01.52-.04.97-.2,1.79-.86,2.2-1.77.09-.17,8.81-18.33,14.71-28.15,4.03-6.73,9.48-16.85,10.18-26.96l.08-1.1-52.48-27.07c-1.72-.85-3.81-.31-4.91,1.26m45.7,53.01c-6,10.01-14.78,28.31-14.78,28.31-.26.67-1.01,1.01-1.69.76-.2-.07-.37-.19-.51-.35l-41.54-39.23c-.78-.81-1.01-2-.59-3.05,0,0,8.05-17.69,9.8-24.71,2.51-10.08,5.01-13.81,5.01-13.81.62-.88,1.79-1.18,2.75-.71l51.51,26.56c-.63,9.12-5.34,18.54-9.95,26.21"/><path id="Path_1424" d="m488.46,606.34s-2.5,3.73-5.01,13.81c-1.74,7.01-9.79,24.71-9.79,24.71-.42,1.04-.18,2.23.59,3.03l41.53,39.22c.48.54,1.3.59,1.84.12.16-.14.29-.32.36-.52,0,0,8.78-18.29,14.78-28.3,4.61-7.68,9.32-17.1,9.94-26.21l-51.51-26.56c-.97-.47-2.13-.17-2.75.71m42.88,51.21c-5.49,9.16-13.38,25.39-14.68,28.08l-41.25-38.95c-.26-.31-.34-.74-.22-1.12.32-.73,8.13-17.92,9.89-25,2.38-9.57,4.76-13.26,4.79-13.28.1-.12.25-.19.4-.19.06,0,.12.01.17.04l50.51,26.05c-.95,9.04-5.91,18.19-9.63,24.37"/><path id="Path_1425" d="m471.75,649.29c-.97.11-1.83.66-2.36,1.48l-1.73,2.65c-1,1.6-.79,3.68.52,5.04l39.87,39.75c.63.63,1.48.99,2.37,1h.21c.96-.07,1.85-.55,2.43-1.32l1.87-2.38c1.16-1.53,1.02-3.68-.32-5.05l-39.38-39.34-1.03-.98c-.67-.61-1.56-.92-2.46-.85m41.85,45.19l-1.86,2.39c-.54.73-1.56.88-2.29.35-.08-.06-.15-.12-.22-.2l-39.88-39.75c-.74-.8-.86-1.99-.3-2.93l1.74-2.66c.41-.71,1.32-.95,2.02-.54.13.08.26.18.36.29l40.24,40.2c.74.78.81,1.98.18,2.85"/><path id="Path_1426" d="m474.2,650.14l1.03.98-.87-.88s-.11-.06-.16-.1"/><path id="Path_1427" d="m473.18,651.44c-.55-.61-1.49-.66-2.1-.11-.11.1-.21.22-.29.35l-1.73,2.65c-.57.93-.45,2.13.3,2.93l39.87,39.75c.62.66,1.65.69,2.31.07.07-.07.14-.14.2-.22l1.86-2.39c.64-.87.56-2.07-.18-2.85l-40.24-40.19Zm39.1,42.01l-1.86,2.38-39.87-39.74c-.18-.24-.21-.56-.09-.83l1.66-2.53,40.12,40.08c.15.18.17.43.05.63"/><path id="Path_1428" d="m467.73,658.57c-.69-.69-1.64-1.04-2.61-.96-.97.11-1.84.65-2.36,1.48l-1.74,2.65c-1,1.61-.77,3.68.54,5.04l40.4,39.7c.61.61,1.45.96,2.32.96h.28c.96-.11,1.84-.62,2.39-1.41l1.54-2.15c1.07-1.57.9-3.67-.42-5.04l-40.34-40.26Zm39.39,44.34l-1.54,2.15c-.47.73-1.45.93-2.17.46-.1-.07-.2-.15-.29-.24l-40.39-39.7c-.75-.79-.88-1.99-.31-2.92l1.73-2.66c.41-.71,1.32-.95,2.03-.53.13.08.25.17.35.29l40.34,40.26c.74.79.84,1.98.25,2.89"/><path id="Path_1429" d="m466.55,659.75c-.55-.61-1.5-.65-2.11-.1-.11.1-.2.22-.28.34l-1.74,2.66c-.56.94-.43,2.13.32,2.92l40.39,39.7c.6.63,1.6.65,2.23.05.09-.08.16-.18.23-.28l1.54-2.15c.59-.9.49-2.1-.25-2.89l-40.34-40.26Zm39.21,42.18l-1.44,2.15-40.41-39.7c-.17-.23-.21-.54-.09-.8l1.65-2.53,40.22,40.13c.17.21.19.5.07.73"/><path id="Path_1430" d="m77.15,645.14l1.1-1.05c1.3-1.3,1.68-3.26.96-4.95-.08-.18-8.01-17.65-9.7-24.42-2.55-10.26-5.13-14.18-5.25-14.34-1.09-1.59-3.18-2.14-4.91-1.27l-52.47,27.07.08,1.1c.7,10.11,6.15,20.23,10.18,26.96,5.9,9.83,14.61,27.99,14.71,28.17.41.9,1.22,1.55,2.2,1.74.17.03.34.05.52.05.8,0,1.57-.33,2.15-.9l39.46-37.27.82-.8s.1-.06.15-.09m-41.59,36.95c-.48.54-1.31.59-1.85.11-.16-.14-.28-.32-.36-.52,0,0-8.77-18.29-14.77-28.3-4.61-7.68-9.32-17.1-9.95-26.21l51.51-26.57c.96-.47,2.12-.17,2.74.71,0,0,2.51,3.73,5.02,13.82,1.74,7,9.79,24.71,9.79,24.71.42,1.04.19,2.23-.59,3.03l-41.54,39.22Z"/><path id="Path_1431" d="m77.69,639.83s-8.05-17.7-9.79-24.71c-2.52-10.09-5.01-13.82-5.01-13.82-.62-.87-1.79-1.17-2.75-.71l-51.5,26.58c.63,9.11,5.34,18.53,9.95,26.21,6,10.01,14.77,28.3,14.77,28.3.26.68,1.01,1.02,1.69.76.2-.08.38-.2.52-.36l41.53-39.22c.78-.81,1.01-1.99.59-3.03m-1.74,1.82l-41.25,38.95c-1.26-2.62-9.17-18.9-14.68-28.08-3.71-6.19-8.66-15.34-9.61-24.39l50.5-26.04c.2-.09.44-.03.58.14.02.03,2.39,3.72,4.78,13.29,1.77,7.06,9.57,24.27,9.9,25,.12.39.03.81-.23,1.12"/><path id="Path_1432" d="m83.17,653.43c1.31-1.36,1.52-3.43.52-5.03l-1.73-2.66c-.9-1.47-2.83-1.93-4.3-1.02-.19.12-.37.25-.53.41l-.96.91-39.43,39.39c-1.34,1.38-1.47,3.53-.31,5.06l1.86,2.38c.59.76,1.47,1.24,2.43,1.31h.21c.89,0,1.75-.35,2.37-.99l39.87-39.76Zm-43.56,38.41l-1.85-2.39c-.64-.86-.56-2.06.18-2.84l40.24-40.2c.55-.61,1.5-.65,2.11-.1.11.1.2.22.28.34l1.74,2.66c.56.94.44,2.13-.31,2.93l-39.87,39.76c-.63.66-1.68.68-2.33.05-.07-.06-.13-.13-.18-.21"/><path id="Path_1433" d="m77,645.23l-.8.8.96-.91s-.1.05-.15.09"/><path id="Path_1434" d="m82.3,649.32l-1.74-2.66c-.41-.71-1.32-.95-2.03-.53-.13.08-.25.17-.35.29l-40.24,40.2c-.74.78-.81,1.98-.18,2.85l1.86,2.39c.54.73,1.57.88,2.3.34.08-.06.15-.12.22-.19l39.87-39.75c.75-.8.87-1.99.31-2.93m-1.49,1.74l-39.89,39.75-1.86-2.38c-.11-.2-.09-.45.05-.63l40.03-40.24.02.03,1.73,2.66c.13.27.1.58-.09.82"/><path id="Path_1435" d="m90.34,656.7l-1.74-2.65c-.52-.83-1.39-1.37-2.36-1.48-.97-.08-1.93.27-2.61.96l-40.34,40.26c-1.32,1.37-1.49,3.47-.42,5.04l1.54,2.15c.55.8,1.43,1.31,2.39,1.4h.27c.87,0,1.71-.34,2.33-.95l40.4-39.7c1.32-1.36,1.54-3.44.54-5.04m-1.72,3.85l-40.4,39.69c-.59.63-1.58.66-2.21.07-.09-.09-.17-.18-.24-.29l-1.54-2.15c-.6-.9-.5-2.1.25-2.89l40.33-40.26c.55-.61,1.5-.66,2.11-.1.11.1.21.22.28.35l1.73,2.66c.57.93.44,2.13-.31,2.92"/><path id="Path_1436" d="m87.19,654.98c-.41-.71-1.31-.95-2.02-.54-.14.08-.26.18-.36.3l-40.34,40.26c-.74.79-.83,1.99-.24,2.89l1.53,2.15c.48.73,1.47.92,2.19.44.1-.06.19-.14.27-.22l40.4-39.69c.75-.79.88-1.99.31-2.92l-1.74-2.65Zm.26,4.38l-40.32,39.7-1.53-2.16c-.13-.23-.11-.52.06-.73l40.12-40.31.02.02,1.73,2.66c.13.26.1.58-.09.81"/><path id="Path_1437" d="m131.07,711.33l-5.93,7.63-8.36-6.5,5.93-7.62-3.7-2.89-15.05,19.37,3.7,2.89,6.68-8.61,8.36,6.49-6.68,8.61,3.71,2.89,15.04-19.37-3.7-2.88Z"/><rect id="Rectangle_338" x="121.41" y="725.16" width="24.53" height="4.69" transform="translate(-559.11 468.31) rotate(-59.08)"/><path id="Path_1438" d="m149.22,739.17l5.02,2.36-1.28,2.75c-1,.49-2.11.71-3.22.64-1.25-.11-2.47-.44-3.6-.99-.92-.42-1.75-1.02-2.43-1.77-.63-.7-1.08-1.55-1.32-2.46-.25-1.01-.3-2.05-.14-3.08.41-2.49,1.5-4.82,3.15-6.74.69-.77,1.52-1.41,2.44-1.88.84-.41,1.76-.61,2.69-.59.99.03,1.96.27,2.85.71.73.33,1.41.76,2.03,1.27.53.43.97.96,1.31,1.55.31.53.49,1.13.55,1.74.05.63-.04,1.26-.26,1.86l4.25,2c.41-1.14.58-2.35.5-3.55-.08-1.15-.4-2.28-.93-3.31-.57-1.09-1.34-2.07-2.26-2.89-1.05-.93-2.24-1.71-3.51-2.29-1.52-.75-3.18-1.18-4.87-1.26-1.53-.07-3.05.19-4.47.76-1.43.61-2.73,1.51-3.8,2.65-1.21,1.28-2.19,2.75-2.92,4.35-.79,1.62-1.28,3.36-1.47,5.14-.16,1.56.01,3.14.5,4.64.49,1.44,1.28,2.76,2.32,3.87,1.14,1.2,2.5,2.17,4.01,2.85,1.31.65,2.72,1.06,4.17,1.22,1.21.12,2.43-.03,3.58-.43l-.29,2.25,2.68,1.26,5.46-11.63-9.17-4.31-1.56,3.31Z"/><path id="Path_1439" d="m179.14,744.53l-10.05-3.32,3.03-9.18-4.46-1.48-7.7,23.29,4.46,1.47,3.42-10.35,10.05,3.33-3.42,10.35,4.46,1.47,7.7-23.28-4.46-1.47-3.03,9.17Z"/><path id="Path_1440" d="m214.08,744.5c-.77-.85-1.7-1.54-2.73-2.04-1.2-.6-2.49-1.03-3.82-1.26-1.21-.25-2.45-.34-3.69-.25-1.06.08-2.1.34-3.07.76-.86.37-1.63.93-2.26,1.63-.61.69-1.04,1.52-1.28,2.41-.08.27-.14.55-.17.83-.04.27-.06.53-.08.8-.09.91.06,1.84.43,2.68.38.78.93,1.48,1.6,2.03.8.68,1.67,1.26,2.61,1.72,1.02.52,2.16,1.07,3.41,1.64.86.4,1.6.77,2.25,1.11.56.28,1.07.63,1.54,1.05.36.3.64.68.83,1.11.15.41.19.86.09,1.28-.09.5-.32.98-.65,1.37-.34.38-.77.67-1.24.85-.57.21-1.17.33-1.78.36-.74.01-1.48-.05-2.2-.2-.77-.14-1.52-.39-2.22-.73-.63-.3-1.2-.72-1.69-1.22-.45-.47-.8-1.04-1.01-1.67-.22-.69-.29-1.41-.2-2.13l-4.43-.87c-.47,2.4.14,4.88,1.68,6.77,1.94,2,4.49,3.28,7.25,3.64,1.3.27,2.64.36,3.97.26,1.15-.09,2.28-.39,3.33-.87.96-.45,1.8-1.11,2.48-1.93.69-.86,1.15-1.88,1.34-2.96.17-.8.21-1.61.09-2.42-.1-.68-.33-1.34-.67-1.94-.35-.59-.79-1.12-1.32-1.56-.57-.48-1.18-.91-1.82-1.3-.7-.42-1.43-.79-2.18-1.12-.77-.35-1.56-.71-2.38-1.07-.88-.38-1.62-.73-2.22-1.06-.51-.27-1-.59-1.44-.96-.32-.26-.57-.6-.73-.98-.12-.38-.14-.79-.06-1.18.08-.44.28-.84.56-1.18.3-.34.68-.61,1.11-.77.51-.2,1.05-.31,1.6-.33.68-.03,1.37.03,2.03.17,3.14.62,4.59,2.18,4.34,4.68l4.48.88c.18-1.1.12-2.22-.18-3.3-.29-1.01-.81-1.94-1.51-2.73"/><path id="Path_1441" d="m223.68,753.01c.39-.95.96-1.81,1.68-2.54.65-.65,1.44-1.13,2.31-1.41.9-.28,1.85-.36,2.79-.24.73.08,1.45.27,2.13.56.59.26,1.13.63,1.58,1.08.43.44.77.97.99,1.55.23.62.35,1.27.36,1.93l4.7.56c.03-1.26-.17-2.51-.6-3.69-.46-1.18-1.2-2.24-2.15-3.09-.84-.81-1.82-1.46-2.89-1.93-1.17-.48-2.41-.8-3.66-.94-1.6-.22-3.23-.12-4.8.28-1.47.4-2.83,1.11-3.98,2.1-2.45,2.31-3.94,5.46-4.17,8.83-.24,1.76-.19,3.55.13,5.3.3,1.54.92,3,1.82,4.29.87,1.23,2.02,2.25,3.34,2.97,1.44.75,3,1.23,4.62,1.4,1.32.18,2.66.16,3.98-.07,1.2-.22,2.34-.66,3.37-1.31,1.01-.64,1.87-1.49,2.52-2.5.69-1.1,1.19-2.31,1.47-3.58l-4.66-.57c-.26,1.35-1.04,2.53-2.18,3.31-1.22.72-2.65.99-4.04.74-.95-.1-1.86-.4-2.67-.89-.78-.47-1.42-1.13-1.88-1.91-.51-.88-.84-1.86-.99-2.86-.19-1.24-.2-2.5-.03-3.74.14-1.25.45-2.47.92-3.64"/><path id="Path_1442" d="m258.77,757.18l-10.57-.56.53-9.65-4.69-.26-1.32,24.49,4.69.26.58-10.88,10.56.56-.57,10.88,4.68.26,1.32-24.49-4.69-.26-.52,9.65Z"/><path id="Path_1443" d="m287.18,750.82c-1.04-1.1-2.31-1.97-3.71-2.54-3.12-1.2-6.58-1.17-9.68.09-1.4.59-2.66,1.48-3.69,2.6-1.05,1.17-1.84,2.54-2.34,4.02-.57,1.68-.83,3.44-.78,5.21-.01,1.76.28,3.5.87,5.15.52,1.48,1.34,2.84,2.41,3.98,1.05,1.11,2.33,1.98,3.75,2.54,3.14,1.19,6.62,1.15,9.73-.09,1.4-.59,2.65-1.49,3.66-2.63,1.03-1.17,1.81-2.54,2.31-4.02.54-1.67.8-3.41.76-5.16,0-1.77-.29-3.52-.89-5.19-.52-1.48-1.34-2.83-2.41-3.98m-1.95,12.71c-.27,1-.72,1.93-1.34,2.76-.58.76-1.32,1.38-2.17,1.82-.91.45-1.9.68-2.91.67-1,.02-1.99-.19-2.89-.62-.85-.42-1.6-1.02-2.2-1.77-.64-.81-1.12-1.74-1.41-2.73-.34-1.13-.52-2.31-.52-3.49-.02-1.2.12-2.39.44-3.54.28-1,.74-1.93,1.37-2.75.57-.77,1.32-1.38,2.18-1.81.91-.45,1.91-.68,2.93-.67,1-.03,2,.19,2.9.62.85.42,1.59,1.02,2.18,1.77.62.82,1.09,1.74,1.38,2.73.33,1.14.49,2.32.49,3.5.03,1.18-.12,2.36-.43,3.5"/><path id="Path_1444" d="m312.69,749.26c-1.11-1.03-2.43-1.81-3.86-2.29-1.57-.52-3.23-.71-4.88-.56-1.66.1-3.29.53-4.78,1.27-1.36.68-2.56,1.65-3.51,2.84-.97,1.23-1.68,2.65-2.07,4.17-.86,3.44-.6,7.06.75,10.34.61,1.44,1.51,2.74,2.65,3.82,1.12,1.04,2.46,1.83,3.91,2.31,3.21.99,6.67.73,9.7-.72,1.36-.69,2.55-1.66,3.49-2.86.95-1.24,1.64-2.66,2.03-4.17.44-1.7.58-3.46.43-5.2-.11-1.77-.52-3.5-1.21-5.13-.61-1.44-1.51-2.74-2.65-3.82m-1.15,12.81c-.2,1.01-.6,1.97-1.16,2.84-1.09,1.67-2.92,2.71-4.91,2.81-1.97.18-3.91-.59-5.23-2.06-.69-.77-1.22-1.65-1.58-2.62-.41-1.11-.66-2.28-.73-3.46-.1-1.19-.02-2.39.23-3.56.21-1.01.61-1.97,1.18-2.84.53-.8,1.24-1.46,2.06-1.94.88-.5,1.86-.8,2.87-.85,1-.09,2.01.05,2.94.42.87.37,1.65.92,2.28,1.63.68.77,1.21,1.67,1.55,2.64.4,1.12.64,2.28.72,3.47.1,1.18.03,2.37-.22,3.53"/><path id="Path_1445" d="m325.91,765.14l-2.8-20.25-4.65.64,3.35,24.3,15.74-2.18-.56-4.04-11.09,1.54Z"/><path id="Path_1446" d="m362.62,737.26l-19.04,4.44.91,3.95,7.21-1.67,4.65,19.93,4.57-1.07-4.65-19.92,7.26-1.7-.91-3.96Z"/><path id="Path_1447" d="m370.28,734.91l-1.07,26.03,4.48-1.4.17-6.62,8.73-2.74,4.01,5.32,4.7-1.48-16.13-20.64-4.89,1.54Zm3.5,14.08l.13-10.96,6.49,8.88-6.62,2.07Z"/><path id="Path_1448" d="m406.36,737.57c-.85-.46-1.82-.66-2.78-.58l-.03-.05c1.27-.84,2.23-2.08,2.74-3.51.44-1.46.31-3.03-.34-4.4-.52-1.38-1.46-2.56-2.69-3.39-.54-.38-1.15-.66-1.79-.8-.64-.13-1.3-.17-1.95-.12-.73.08-1.45.22-2.15.44-.82.24-1.62.53-2.41.87l-10.05,4.19,9.4,22.63,4.34-1.8-3.72-8.94,4.21-1.74c.48-.22,1.01-.34,1.54-.37,1.02-.04,2.02.25,2.86.83.45.31.86.67,1.22,1.08l4.33,4.81,4.65-1.93-4.72-5.04c-.78-.85-1.69-1.58-2.69-2.16m-4.63-3.39c-.28.46-.65.86-1.09,1.17-.6.41-1.23.75-1.9,1.02l-5.26,2.18-2.8-6.74,5.62-2.33c1.03-.52,2.2-.68,3.34-.45.97.34,1.72,1.11,2.03,2.09.23.53.37,1.09.4,1.67.02.48-.1.96-.34,1.38"/><path id="Path_1449" d="m419.88,737.09l-3.09-5.74,11.07-5.95-1.89-3.53-11.08,5.95-2.84-5.29,11.85-6.38-1.89-3.53-16,8.59,11.63,21.6,16.47-8.86-1.89-3.5-12.33,6.63Z"/><path id="Path_1450" d="m440.08,725.32l-3.71-5.37,10.34-7.15-2.28-3.29-10.34,7.15-3.42-4.94,11.07-7.66-2.27-3.29-14.93,10.33,13.94,20.16,15.38-10.64-2.26-3.29-11.52,7.98Z"/><path id="Path_1451" d="m104.44,862.09l.93-38.58-7.03-2.83-25.54,28.67,6.42,2.58,6.38-7.4,12.52,5.04-.4,9.8,6.73,2.71Zm-15.24-22.09l10.38-12.37-.9,16.19-9.49-3.82Z"/><path id="Path_1452" d="m119.83,829.01l-11.23,34.34,22.26,7.29,1.87-5.71-15.69-5.13,9.37-28.63-6.58-2.15Z"/><path id="Path_1453" d="m145.63,837.27l-9.29,34.93,22.64,6.01,1.54-5.8-15.95-4.24,7.75-29.11-6.69-1.78Z"/><path id="Path_1454" d="m208.61,857.16l1.04-5.81-24.79-4.43-6.35,35.58,6.8,1.21,2.59-14.52,15.43,2.76,1.05-5.81-15.44-2.75,1.7-9.44,17.98,3.21Z"/><path id="Path_1455" d="m218.54,888.17c2.16,1.17,4.53,1.89,6.97,2.13,2.44.31,4.92.13,7.28-.55,2.15-.63,4.14-1.72,5.82-3.19,1.71-1.53,3.1-3.4,4.07-5.48,1.09-2.34,1.78-4.85,2.03-7.42.32-2.59.19-5.21-.38-7.76-.5-2.25-1.46-4.37-2.82-6.24-1.33-1.8-3.03-3.29-4.98-4.37-4.36-2.29-9.42-2.85-14.17-1.56-2.16.62-4.16,1.7-5.86,3.17-1.74,1.52-3.14,3.38-4.12,5.47-1.11,2.36-1.81,4.89-2.06,7.48-.32,2.57-.2,5.18.37,7.7.5,2.26,1.45,4.39,2.81,6.26,1.35,1.81,3.06,3.3,5.04,4.38m-1.16-17.55c.18-1.75.61-3.47,1.28-5.1.58-1.41,1.42-2.7,2.48-3.8.99-1.01,2.19-1.78,3.51-2.26,1.41-.48,2.91-.63,4.39-.45,2.9.26,5.5,1.89,7,4.39.77,1.3,1.29,2.74,1.53,4.24.28,1.73.32,3.48.1,5.22-.17,1.73-.6,3.44-1.25,5.05-.57,1.41-1.4,2.69-2.45,3.8-.98,1.01-2.17,1.79-3.49,2.27-1.4.5-2.9.66-4.37.47-1.46-.14-2.87-.62-4.11-1.41-1.18-.76-2.17-1.78-2.9-2.98-.79-1.3-1.33-2.75-1.59-4.25-.3-1.72-.34-3.47-.13-5.2"/><path id="Path_1456" d="m275.07,879c-.85-1.15-2.03-2.02-3.37-2.52v-.09c2.23-.34,4.27-1.38,5.84-2.99,1.48-1.69,2.29-3.86,2.27-6.1.14-2.17-.37-4.33-1.49-6.2-.5-.84-1.15-1.57-1.93-2.16-.77-.58-1.63-1.04-2.54-1.36-1.02-.36-2.07-.62-3.14-.75-1.14-.16-2.38-.26-3.74-.32l-16.04-.63-1.41,36.12,6.9.26.56-14.28,6.72.26c1.53.03,3,.6,4.15,1.6.57.5,1.06,1.09,1.44,1.74.41.7.74,1.44.98,2.2l2.82,9.11,7.42.29-3.21-9.67c-.52-1.62-1.29-3.15-2.27-4.54m-6.28-6.52c-1.04.18-2.1.24-3.16.19l-8.41-.34.44-10.73,8.96.35c1.7-.06,3.38.46,4.75,1.47,1.08,1.05,1.61,2.55,1.43,4.04-.01.85-.18,1.7-.5,2.49-.27.66-.73,1.23-1.31,1.65-.66.45-1.4.75-2.19.88"/><path id="Path_1457" d="m321.6,884.48c-1.56,1.38-3.56,2.15-5.64,2.19-1.39.12-2.8-.08-4.11-.57-1.25-.47-2.36-1.24-3.24-2.25-.98-1.14-1.74-2.46-2.23-3.88-.61-1.74-.96-3.56-1.06-5.41-.15-1.85-.03-3.71.34-5.52.31-1.48.89-2.89,1.73-4.15.76-1.11,1.77-2.02,2.95-2.67,1.23-.65,2.59-1.03,3.99-1.11,1.08-.08,2.17,0,3.23.24.93.22,1.8.61,2.59,1.14.75.52,1.38,1.19,1.85,1.96.51.82.86,1.73,1.05,2.68l6.95-.46c-.29-1.83-.93-3.59-1.87-5.18-1-1.58-2.36-2.91-3.96-3.88-1.44-.95-3.03-1.62-4.71-2-1.82-.39-3.69-.51-5.55-.36-2.38.13-4.72.71-6.88,1.72-2.02.97-3.79,2.39-5.18,4.15-2.91,4.02-4.21,8.99-3.62,13.92.13,2.62.68,5.2,1.63,7.64.85,2.15,2.15,4.09,3.81,5.71,1.6,1.55,3.54,2.71,5.66,3.38,2.28.7,4.68.96,7.06.76,1.96-.1,3.9-.5,5.75-1.18,1.67-.65,3.2-1.6,4.51-2.82,1.3-1.19,2.31-2.66,2.96-4.3.7-1.78,1.08-3.67,1.14-5.59l-6.9.46c-.02,2.02-.82,3.95-2.25,5.38"/><path id="Path_1458" d="m355.68,851.04l2.07,14.09-15.43,2.26-2.07-14.08-6.84,1.01,5.27,35.75,6.84-1.01-2.35-15.88,15.43-2.27,2.34,15.88,6.84-1.01-5.26-35.75-6.84,1.01Z"/><path id="Path_1459" d="m397.3,865.1c-1.12-.89-2.48-1.44-3.9-1.57v-.08c2.04-.9,3.75-2.44,4.85-4.39,1-2.01,1.22-4.32.62-6.48-.42-2.14-1.48-4.1-3.05-5.62-.69-.68-1.51-1.21-2.41-1.58-.89-.36-1.84-.59-2.8-.66-1.07-.08-2.15-.05-3.22.09-1.24.15-2.48.37-3.7.65l-15.66,3.53,7.94,35.25,6.74-1.52-3.14-13.94,6.56-1.48c.76-.18,1.55-.22,2.33-.14.73.09,1.44.3,2.1.63.68.33,1.3.77,1.84,1.31.58.56,1.09,1.19,1.52,1.88l5.08,8.08,7.24-1.64-5.59-8.5c-.92-1.43-2.06-2.72-3.37-3.81m-5.02-8.02c-.09.71-.38,1.38-.84,1.93-.52.6-1.16,1.09-1.88,1.41-.96.45-1.97.78-3.01,1l-8.21,1.85-2.35-10.48,8.75-1.97c1.63-.49,3.38-.42,4.96.2,1.31.74,2.21,2.04,2.42,3.53.21.83.27,1.69.16,2.53"/><rect id="Rectangle_339" x="406.85" y="839.27" width="6.92" height="36.13" transform="translate(-215.36 141.86) rotate(-15.59)"/><path id="Path_1460" d="m448.39,849.54c-.63-.8-1.4-1.48-2.27-2.01-.88-.5-1.83-.85-2.83-1.05-1.08-.2-2.18-.32-3.28-.34-1.2-.03-2.4.01-3.6.13-1.25.11-2.53.24-3.84.37-1.41.15-2.62.24-3.63.25-.85.03-1.71-.03-2.55-.17-.6-.1-1.17-.35-1.65-.73-.43-.4-.75-.91-.92-1.47-.22-.62-.27-1.28-.13-1.93.14-.65.43-1.26.85-1.79.51-.63,1.13-1.17,1.82-1.59.85-.53,1.77-.96,2.73-1.26,4.48-1.49,7.47-.54,8.97,2.85l6.38-2.12c-.57-1.54-1.47-2.93-2.62-4.1-1.11-1.08-2.44-1.9-3.91-2.39-1.61-.54-3.3-.76-4.99-.66-1.98.11-3.93.5-5.8,1.15-1.74.55-3.39,1.35-4.91,2.37-1.3.87-2.45,1.95-3.39,3.19-.83,1.11-1.41,2.38-1.71,3.73-.35,1.75-.19,3.57.46,5.23.15.37.32.73.49,1.08.55,1.24,1.41,2.31,2.5,3.11,1.07.73,2.28,1.23,3.55,1.46,1.51.28,3.05.37,4.59.29,1.7-.06,3.55-.19,5.58-.37,1.38-.1,2.62-.17,3.67-.2.91-.03,1.83.04,2.73.22.68.13,1.31.42,1.87.83.5.42.87.97,1.07,1.59.25.71.3,1.48.16,2.21-.16.74-.5,1.43-.98,2.01-.57.69-1.26,1.27-2.03,1.73-.93.57-1.93,1.02-2.98,1.35-1.09.38-2.23.61-3.38.68-1.03.07-2.06-.04-3.05-.33-.93-.29-1.79-.77-2.52-1.42-.78-.72-1.4-1.6-1.8-2.58l-6.31,2.1c1.14,3.41,3.72,6.14,7.06,7.47,3.21,1.19,7.2.99,11.97-.6,1.86-.59,3.63-1.45,5.26-2.54,1.42-.95,2.66-2.14,3.66-3.53.9-1.28,1.5-2.75,1.77-4.29.25-1.59.11-3.22-.42-4.75-.36-1.15-.92-2.22-1.64-3.19"/><path id="Path_1461" d="m472.32,822.54l-2.25-5.55-26.69,10.86,2.25,5.54,10.1-4.11,11.35,27.94,6.41-2.61-11.35-27.92,10.18-4.15Z"/></g></g></g></g></g></svg>